<?xml version="1.0" standalone="no"?>
<!DOCTYPE svg PUBLIC "-//W3C//DTD SVG 20010904//EN"
 "http://www.w3.org/TR/2001/REC-SVG-20010904/DTD/svg10.dtd">
<svg version="1.0" xmlns="http://www.w3.org/2000/svg"
 width="512.000000pt" height="512.000000pt" viewBox="0 0 512.000000 512.000000"
 preserveAspectRatio="xMidYMid meet">

<g transform="translate(0.000000,512.000000) scale(0.100000,-0.100000)"
fill="#000000" stroke="none">
<path d="M1971 4789 c-131 -26 -237 -81 -349 -181 -33 -29 -92 -73 -132 -98
-142 -88 -271 -252 -324 -411 -40 -120 -47 -194 -44 -479 l3 -265 80 -7 c69
-6 155 -27 217 -52 15 -7 17 8 20 151 3 143 6 163 28 208 31 64 91 124 155
155 l50 25 885 0 885 0 50 -25 c64 -31 124 -91 155 -155 22 -45 25 -65 28
-206 l4 -156 65 24 c35 13 107 29 160 35 l95 12 -5 306 c-4 277 -6 312 -26
380 -28 95 -79 200 -132 269 l-42 55 17 70 c9 39 19 105 22 146 7 98 -18 153
-86 188 l-44 22 -846 -1 c-465 -1 -865 -5 -889 -10z"/>
<path d="M2425 3349 c-236 -47 -413 -167 -547 -373 -34 -53 -70 -125 -85 -171
-25 -73 -27 -94 -28 -240 0 -140 3 -169 23 -235 64 -205 229 -395 426 -490
127 -61 190 -74 346 -74 156 0 219 13 346 74 208 100 369 295 430 520 25 91
25 310 0 399 -79 288 -292 497 -586 578 -68 18 -258 25 -325 12z m430 -974
c25 -24 32 -64 19 -112 l-6 -23 -308 0 -308 0 -6 23 c-13 48 -6 88 19 112 l24
25 271 0 271 0 24 -25z"/>
<path d="M580 2860 c-32 -32 -27 -95 11 -130 46 -44 135 -81 206 -87 53 -5 70
-2 115 20 29 15 70 42 91 61 31 29 37 42 37 75 0 87 -83 110 -160 46 -32 -27
-51 -35 -80 -35 -29 0 -48 8 -80 35 -50 42 -107 48 -140 15z"/>
<path d="M1220 2860 c-14 -14 -20 -33 -20 -61 0 -35 6 -47 37 -76 21 -19 62
-46 91 -60 45 -22 62 -25 115 -20 71 6 156 42 205 86 26 24 32 37 32 70 0 87
-83 110 -160 46 -32 -27 -51 -35 -80 -35 -29 0 -48 8 -80 35 -50 42 -107 48
-140 15z"/>
<path d="M3598 2865 c-48 -18 -123 -69 -143 -97 -22 -33 -19 -75 10 -103 35
-36 74 -32 125 10 70 59 110 59 180 0 51 -42 90 -46 125 -10 38 38 34 80 -14
125 -80 76 -199 108 -283 75z"/>
<path d="M4238 2865 c-48 -18 -123 -69 -143 -97 -22 -33 -19 -75 10 -103 35
-36 74 -32 125 10 70 59 110 59 180 0 51 -42 90 -46 125 -10 38 38 34 80 -14
125 -80 76 -199 108 -283 75z"/>
<path d="M1004 2295 c-27 -13 -66 -40 -87 -59 -31 -28 -37 -40 -37 -75 0 -87
83 -110 160 -46 32 27 51 35 80 35 29 0 48 -8 80 -35 77 -64 160 -41 160 46 0
33 -6 46 -37 75 -94 86 -218 109 -319 59z"/>
<path d="M3785 2295 c-38 -38 -34 -80 14 -125 120 -115 282 -115 402 0 48 45
52 87 14 125 -35 36 -74 32 -125 -10 -23 -19 -53 -38 -66 -41 -36 -9 -67 2
-114 41 -51 42 -90 46 -125 10z"/>
<path d="M1600 1066 c0 -123 56 -313 129 -435 54 -91 157 -209 231 -264 l62
-47 540 0 541 0 69 56 c81 66 164 162 220 258 74 125 128 309 128 432 l0 54
-159 0 -158 0 -6 -68 c-23 -246 -203 -462 -457 -548 -42 -15 -84 -19 -180 -19
-96 0 -138 4 -180 19 -255 86 -434 301 -457 548 l-6 68 -158 0 -159 0 0 -54z"/>
</g>
</svg>
