<svg width="705" height="384" viewBox="0 0 705 384" fill="none" xmlns="http://www.w3.org/2000/svg">
<path d="M18.2685 191.461C19.6278 194.074 22.8481 195.091 25.4612 193.731C28.0743 192.372 29.0908 189.152 27.7315 186.539C26.3722 183.926 23.1519 182.909 20.5388 184.269C17.9257 185.628 16.9092 188.848 18.2685 191.461ZM194.134 99.9798C195.493 102.593 198.713 103.609 201.326 102.25C203.94 100.891 204.956 97.6705 203.597 95.0573C202.237 92.4442 199.017 91.4278 196.404 92.7871C193.791 94.1464 192.774 97.3667 194.134 99.9798ZM23.4615 189.887L199.327 98.4057L198.404 96.6314L22.5385 188.113L23.4615 189.887Z" fill="white"/>
<path d="M646.635 102.008C640.369 95.7771 630.238 95.8059 624.008 102.072C617.777 108.338 617.806 118.469 624.072 124.699C630.338 130.93 640.469 130.901 646.699 124.635C652.93 118.369 652.901 108.238 646.635 102.008ZM581.873 162.885C580.704 164.06 580.71 165.959 581.885 167.127C583.06 168.296 584.959 168.29 586.127 167.115L581.873 162.885ZM633.226 111.238L581.873 162.885L586.127 167.115L637.481 115.469L633.226 111.238Z" fill="white"/>
<path d="M524.118 229.125C525.291 227.955 525.294 226.056 524.125 224.882C522.955 223.709 521.056 223.706 519.882 224.875L524.118 229.125ZM445.686 303.059C439.448 296.8 429.318 296.783 423.059 303.021C416.8 309.259 416.783 319.389 423.021 325.648C429.259 331.907 439.389 331.924 445.648 325.686C451.907 319.448 451.924 309.318 445.686 303.059ZM519.882 224.875L432.236 312.229L436.471 316.478L524.118 229.125L519.882 224.875Z" fill="white"/>
<path d="M267.647 164.473C268.46 165.22 269.725 165.167 270.473 164.353C271.22 163.54 271.167 162.275 270.353 161.527L267.647 164.473ZM206.516 105.585C210.502 101.247 210.217 94.4998 205.879 90.5138C201.541 86.5279 194.794 86.8132 190.808 91.151C186.822 95.4888 187.107 102.237 191.445 106.222C195.783 110.208 202.531 109.923 206.516 105.585ZM270.353 161.527L200.015 96.8955L197.309 99.8408L267.647 164.473L270.353 161.527Z" fill="white"/>
<path d="M441.515 321.586C445.502 317.249 445.218 310.501 440.88 306.514C436.543 302.528 429.795 302.812 425.809 307.149C421.822 311.486 422.107 318.234 426.444 322.221C430.781 326.207 437.529 325.923 441.515 321.586ZM338.354 224.028C337.54 223.28 336.275 223.333 335.528 224.146C334.78 224.959 334.833 226.225 335.646 226.972L338.354 224.028ZM435.016 312.895L338.354 224.028L335.646 226.972L432.309 315.84L435.016 312.895Z" fill="white"/>
<path d="M432 162C432 163.105 432.895 164 434 164C435.105 164 436 163.105 436 162H432ZM434 53.6667C439.891 53.6667 444.667 48.891 444.667 43C444.667 37.109 439.891 32.3333 434 32.3333C428.109 32.3333 423.333 37.109 423.333 43C423.333 48.891 428.109 53.6667 434 53.6667ZM436 162V43H432V162H436Z" fill="white"/>
<path d="M434 324.667C439.891 324.667 444.667 319.891 444.667 314C444.667 308.109 439.891 303.333 434 303.333C428.109 303.333 423.333 308.109 423.333 314C423.333 319.891 428.109 324.667 434 324.667ZM436 226C436 224.895 435.105 224 434 224C432.895 224 432 224.895 432 226H436ZM436 314V226H432V314H436Z" fill="white"/>
<path d="M444.499 41.056C443.157 35.32 437.419 31.7583 431.683 33.1008C425.946 34.4433 422.385 40.1815 423.727 45.9176C425.07 51.6536 430.808 55.2153 436.544 53.8728C442.28 52.5303 445.842 46.7921 444.499 41.056ZM209.499 96.056C208.157 90.32 202.419 86.7583 196.683 88.1008C190.946 89.4433 187.385 95.1815 188.727 100.918C190.07 106.654 195.808 110.215 201.544 108.873C207.28 107.53 210.842 101.792 209.499 96.056ZM433.658 41.5394L198.658 96.5394L199.569 100.434L434.569 45.4342L433.658 41.5394Z" fill="white"/>
<path d="M18.51 186.122C16.9204 188.602 17.642 191.9 20.1218 193.49C22.6016 195.08 25.9004 194.358 27.49 191.878C29.0796 189.398 28.358 186.1 25.8782 184.51C23.3984 182.92 20.0996 183.642 18.51 186.122ZM213.51 311.122C211.92 313.602 212.642 316.9 215.122 318.49C217.602 320.08 220.9 319.358 222.49 316.878C224.08 314.398 223.358 311.1 220.878 309.51C218.398 307.92 215.1 308.642 213.51 311.122ZM22.4603 189.842L217.46 314.842L218.54 313.158L23.5397 188.158L22.4603 189.842Z" fill="white"/>
<path d="M244 98C244 122.853 223.853 143 199 143C174.147 143 154 122.853 154 98C154 73.1472 174.147 53 199 53C223.853 53 244 73.1472 244 98ZM176.5 98C176.5 110.426 186.574 120.5 199 120.5C211.426 120.5 221.5 110.426 221.5 98C221.5 85.5736 211.426 75.5 199 75.5C186.574 75.5 176.5 85.5736 176.5 98Z" fill="white"/>
<path d="M249 314C249 331.121 235.121 345 218 345C200.879 345 187 331.121 187 314C187 296.879 200.879 283 218 283C235.121 283 249 296.879 249 314ZM204.05 314C204.05 321.704 210.296 327.95 218 327.95C225.704 327.95 231.95 321.704 231.95 314C231.95 306.296 225.704 300.05 218 300.05C210.296 300.05 204.05 306.296 204.05 314Z" fill="white"/>
<path d="M46 189C46 201.703 35.7025 212 23 212C10.2975 212 0 201.703 0 189C0 176.297 10.2975 166 23 166C35.7025 166 46 176.297 46 189ZM11.5 189C11.5 195.351 16.6487 200.5 23 200.5C29.3513 200.5 34.5 195.351 34.5 189C34.5 182.649 29.3513 177.5 23 177.5C16.6487 177.5 11.5 182.649 11.5 189Z" fill="white"/>
<path d="M477 43C477 66.7482 457.748 86 434 86C410.252 86 391 66.7482 391 43C391 19.2518 410.252 0 434 0C457.748 0 477 19.2518 477 43ZM412.5 43C412.5 54.8741 422.126 64.5 434 64.5C445.874 64.5 455.5 54.8741 455.5 43C455.5 31.1259 445.874 21.5 434 21.5C422.126 21.5 412.5 31.1259 412.5 43Z" fill="white"/>
<path d="M705 113C705 151.66 673.66 183 635 183C596.34 183 565 151.66 565 113C565 74.3401 596.34 43 635 43C673.66 43 705 74.3401 705 113ZM603.5 113C603.5 130.397 617.603 144.5 635 144.5C652.397 144.5 666.5 130.397 666.5 113C666.5 95.603 652.397 81.5 635 81.5C617.603 81.5 603.5 95.603 603.5 113Z" fill="white"/>
<path d="M504 314C504 352.66 472.66 384 434 384C395.34 384 364 352.66 364 314C364 275.34 395.34 244 434 244C472.66 244 504 275.34 504 314ZM402.5 314C402.5 331.397 416.603 345.5 434 345.5C451.397 345.5 465.5 331.397 465.5 314C465.5 296.603 451.397 282.5 434 282.5C416.603 282.5 402.5 296.603 402.5 314Z" fill="white"/>
</svg>
