<?xml version="1.0" encoding="utf-8"?>
<!-- Generator: Adobe Illustrator 27.5.0, SVG Export Plug-In . SVG Version: 6.00 Build 0)  -->
<svg version="1.1" xmlns="http://www.w3.org/2000/svg" xmlns:xlink="http://www.w3.org/1999/xlink" x="0px" y="0px"
	 viewBox="0 0 500 500" style="enable-background:new 0 0 500 500;" xml:space="preserve">
<g id="Floor">
	<path style="fill:#F5F5F5;" d="M418.087,247.718c-93.44-53.948-244.442-53.947-337.274,0.001
		c-92.838,53.952-92.346,141.418,1.094,195.365c93.446,53.951,244.448,53.95,337.286-0.002
		C512.025,389.135,511.533,301.669,418.087,247.718z"/>
</g>
<g id="Shadows_1_">
	<path style="opacity:0.1;" d="M398.915,338.459l-78.009-45.014l-94.768,54.69c-2.478,1.43-2.477,5.006,0.001,6.435l25.6,14.764
		c-15.767-1.883-32.785,0.711-44.972,7.793c-19.256,11.19-19.154,29.332,0.227,40.521c19.382,11.19,50.702,11.19,69.958,0
		c12.201-7.09,16.618-16.97,13.295-26.106l4.659,2.687c5.746,3.314,12.822,3.312,18.567-0.004l85.445-49.332
		C401.393,343.463,401.393,339.888,398.915,338.459z"/>
	<path style="opacity:0.1;" d="M406.734,421.724l-52.033-30.041c-1.534-0.886-1.537-3.098-0.006-3.988l45.859-26.65
		c0.714-0.415,1.595-0.416,2.31-0.003l53.189,30.709c1.534,0.886,1.537,3.098,0.006,3.988l-44.704,25.979
		C409.927,422.547,408.164,422.55,406.734,421.724z"/>
	<g>
		<g style="opacity:0.1;">
			<path d="M54.651,376.267c-2.49,1.438-2.496,3.764-0.029,5.197l10.151,5.858c2.474,1.438,6.482,1.438,8.973,0l111.341-64.283
				c2.483-1.434,2.503-3.76,0.029-5.197l-10.151-5.858c-2.467-1.434-6.489-1.434-8.972,0L54.651,376.267z"/>
		</g>
		<g style="opacity:0.1;">
			<path d="M85.881,385.497c-2.49,1.438-2.496,3.763-0.029,5.197l10.151,5.857c2.474,1.438,6.482,1.438,8.972,0l95.084-54.923
				c2.483-1.434,2.503-3.76,0.029-5.197l-10.151-5.857c-2.467-1.434-6.489-1.434-8.973,0L85.881,385.497z"/>
		</g>
	</g>
</g>
<g id="Windows">
	<g>
		<g>
			<g>
				<g>
					<g style="enable-background:new    ;">
						<g>
							<polygon style="fill:#F0F0F0;" points="302.035,121.201 304.066,120.021 303.947,162.012 301.916,163.192 							"/>
						</g>
						<g>
							<polygon style="fill:#F5F5F5;" points="301.916,163.192 303.947,162.012 362.524,195.831 360.493,197.011 							"/>
						</g>
						<g>
							<path style="fill:#E0E0E0;" d="M299.706,117.167l63.25,36.517l-0.134,47.36l-63.25-36.517L299.706,117.167z M360.493,197.011
								l0.119-41.99l-58.576-33.819l-0.119,41.99L360.493,197.011"/>
						</g>
						<g>
							<polygon style="fill:#F5F5F5;" points="299.706,117.167 301.737,115.987 364.987,152.505 362.956,153.685 							"/>
						</g>
						<g>
							<polygon style="fill:#F0F0F0;" points="362.956,153.685 364.987,152.505 364.853,199.865 362.822,201.045 							"/>
						</g>
					</g>
				</g>
				<g>
					<polygon style="fill:#E0E0E0;" points="330.154,137.437 330.034,179.427 332.371,180.776 332.49,138.786 					"/>
					<polygon style="fill:#F0F0F0;" points="332.491,138.785 332.49,138.786 332.371,180.776 334.402,179.596 334.515,139.953 					
						"/>
					
						<rect x="331.322" y="136.762" transform="matrix(0.5 -0.866 0.866 0.5 46.0533 355.9884)" style="fill:#E0E0E0;" width="0.001" height="2.698"/>
				</g>
				<polygon style="opacity:0.2;" points="332.485,140.671 332.49,138.786 330.154,137.437 330.148,139.322 332.485,140.671 				"/>
				<polygon style="opacity:0.2;" points="332.485,140.671 334.123,139.727 332.491,138.785 332.49,138.786 				"/>
				
					<rect x="331.322" y="136.762" transform="matrix(0.5 -0.866 0.866 0.5 46.0533 355.9884)" style="fill:#E0E0E0;" width="0.001" height="2.698"/>
			</g>
			<g>
				<g>
					<g style="enable-background:new    ;">
						<g>
							<polygon style="fill:#F0F0F0;" points="302.035,76.2 304.066,75.019 303.947,117.01 301.916,118.19 							"/>
						</g>
						<g>
							<polygon style="fill:#F5F5F5;" points="301.916,118.19 303.947,117.01 362.524,150.829 360.493,152.009 							"/>
						</g>
						<g>
							<path style="fill:#E0E0E0;" d="M299.706,72.166l63.25,36.517l-0.134,47.36l-63.25-36.517L299.706,72.166z M360.493,152.009
								l0.119-41.99L302.035,76.2l-0.119,41.99L360.493,152.009"/>
						</g>
						<g>
							<polygon style="fill:#F5F5F5;" points="299.706,72.166 301.737,70.985 364.987,107.503 362.956,108.683 							"/>
						</g>
						<g>
							<polygon style="fill:#F0F0F0;" points="362.956,108.683 364.987,107.503 364.853,154.863 362.822,156.043 							"/>
						</g>
					</g>
				</g>
				<g>
					<polygon style="fill:#E0E0E0;" points="330.154,92.435 330.034,134.425 332.371,135.774 332.49,93.784 					"/>
					<polygon style="fill:#F0F0F0;" points="332.491,93.783 332.49,93.784 332.371,135.774 334.402,134.594 334.515,94.952 					"/>
					
						<rect x="331.322" y="91.76" transform="matrix(0.5 -0.866 0.866 0.5 85.0258 333.4876)" style="fill:#E0E0E0;" width="0.001" height="2.698"/>
				</g>
				<polygon style="opacity:0.2;" points="332.485,95.669 332.49,93.784 330.154,92.435 330.148,94.32 332.485,95.669 				"/>
				<polygon style="opacity:0.2;" points="332.485,95.669 334.123,94.726 332.491,93.783 332.49,93.784 				"/>
				
					<rect x="331.322" y="91.76" transform="matrix(0.5 -0.866 0.866 0.5 85.0181 333.4797)" style="fill:#E0E0E0;" width="0.001" height="2.698"/>
			</g>
			<g>
				<g>
					<g style="enable-background:new    ;">
						<g>
							<polygon style="fill:#F0F0F0;" points="302.035,31.198 304.066,30.018 303.947,72.008 301.916,73.188 							"/>
						</g>
						<g>
							<polygon style="fill:#F5F5F5;" points="301.916,73.188 303.947,72.008 362.524,105.827 360.493,107.008 							"/>
						</g>
						<g>
							<path style="fill:#E0E0E0;" d="M299.706,27.164l63.25,36.517l-0.134,47.36l-63.25-36.517L299.706,27.164z M360.493,107.008
								l0.119-41.99l-58.576-33.819l-0.119,41.99L360.493,107.008"/>
						</g>
						<g>
							<polygon style="fill:#F5F5F5;" points="299.706,27.164 301.737,25.984 364.987,62.501 362.956,63.681 							"/>
						</g>
						<g>
							<polygon style="fill:#F0F0F0;" points="362.956,63.681 364.987,62.501 364.853,109.861 362.822,111.042 							"/>
						</g>
					</g>
				</g>
				<g>
					<polygon style="fill:#E0E0E0;" points="330.154,47.433 330.034,89.424 332.371,90.773 332.49,48.782 					"/>
					<polygon style="fill:#F0F0F0;" points="332.491,48.782 332.49,48.782 332.371,90.773 334.402,89.592 334.515,49.95 					"/>
					
						<rect x="331.322" y="46.758" transform="matrix(0.5 -0.866 0.866 0.5 124.0069 310.9935)" style="fill:#E0E0E0;" width="0.001" height="2.698"/>
				</g>
				<polygon style="opacity:0.2;" points="332.485,50.667 332.49,48.782 330.154,47.433 330.148,49.318 332.485,50.667 				"/>
				<polygon style="opacity:0.2;" points="332.485,50.667 334.123,49.724 332.491,48.782 332.49,48.782 				"/>
				
					<rect x="331.322" y="46.758" transform="matrix(0.5 -0.866 0.866 0.5 124.0069 310.9935)" style="fill:#E0E0E0;" width="0.001" height="2.698"/>
			</g>
		</g>
		<g>
			<g>
				<g>
					<g style="enable-background:new    ;">
						<g>
							<polygon style="fill:#F0F0F0;" points="379.273,166.203 381.304,165.023 381.185,207.013 379.154,208.193 							"/>
						</g>
						<g>
							<polygon style="fill:#F5F5F5;" points="379.154,208.193 381.185,207.013 439.762,240.832 437.731,242.013 							"/>
						</g>
						<g>
							<path style="fill:#E0E0E0;" d="M376.944,162.169l63.25,36.517l-0.134,47.36l-63.25-36.517L376.944,162.169z M437.731,242.013
								l0.119-41.991l-58.577-33.819l-0.119,41.99L437.731,242.013"/>
						</g>
						<g>
							<polygon style="fill:#F5F5F5;" points="376.944,162.169 378.975,160.989 442.225,197.506 440.194,198.686 							"/>
						</g>
						<g>
							<polygon style="fill:#F0F0F0;" points="440.194,198.686 442.225,197.506 442.091,244.867 440.06,246.047 							"/>
						</g>
					</g>
				</g>
				<g>
					<polygon style="fill:#E0E0E0;" points="407.391,182.438 407.272,224.429 409.609,225.778 409.728,183.787 					"/>
					<polygon style="fill:#F0F0F0;" points="409.729,183.787 409.728,183.787 409.609,225.778 411.64,224.597 411.753,184.955 					
						"/>
					
						<rect x="408.56" y="181.763" transform="matrix(0.5 -0.866 0.866 0.5 45.708 445.3908)" style="fill:#E0E0E0;" width="0.001" height="2.698"/>
				</g>
				<polygon style="opacity:0.2;" points="409.723,185.672 409.728,183.787 407.391,182.438 407.386,184.323 409.723,185.672 				
					"/>
				<polygon style="opacity:0.2;" points="409.723,185.672 411.361,184.729 409.729,183.787 409.728,183.787 				"/>
				
					<rect x="408.56" y="181.763" transform="matrix(0.5 -0.866 0.866 0.5 45.708 445.3908)" style="fill:#E0E0E0;" width="0.001" height="2.698"/>
			</g>
			<g>
				<g>
					<g style="enable-background:new    ;">
						<g>
							<polygon style="fill:#F0F0F0;" points="379.273,121.201 381.304,120.021 381.185,162.012 379.154,163.192 							"/>
						</g>
						<g>
							<polygon style="fill:#F5F5F5;" points="379.154,163.192 381.185,162.012 439.762,195.831 437.731,197.011 							"/>
						</g>
						<g>
							<path style="fill:#E0E0E0;" d="M376.944,117.167l63.25,36.517l-0.134,47.36l-63.25-36.517L376.944,117.167z M437.731,197.011
								l0.119-41.99l-58.577-33.819l-0.119,41.99L437.731,197.011"/>
						</g>
						<g>
							<polygon style="fill:#F5F5F5;" points="376.944,117.167 378.975,115.987 442.225,152.505 440.194,153.685 							"/>
						</g>
						<g>
							<polygon style="fill:#F0F0F0;" points="440.194,153.685 442.225,152.505 442.091,199.865 440.06,201.045 							"/>
						</g>
					</g>
				</g>
				<g>
					<polygon style="fill:#E0E0E0;" points="407.391,137.437 407.272,179.427 409.609,180.776 409.728,138.786 					"/>
					<polygon style="fill:#F0F0F0;" points="409.729,138.785 409.728,138.786 409.609,180.776 411.64,179.596 411.753,139.953 					
						"/>
					
						<rect x="408.56" y="136.762" transform="matrix(0.5 -0.866 0.866 0.5 84.6722 422.8784)" style="fill:#E0E0E0;" width="0.001" height="2.698"/>
				</g>
				<polygon style="opacity:0.2;" points="409.723,140.671 409.728,138.786 407.391,137.437 407.386,139.322 409.723,140.671 				
					"/>
				<polygon style="opacity:0.2;" points="409.723,140.671 411.361,139.727 409.729,138.785 409.728,138.786 				"/>
				
					<rect x="408.56" y="136.762" transform="matrix(0.5 -0.866 0.866 0.5 84.6722 422.8784)" style="fill:#E0E0E0;" width="0.001" height="2.698"/>
			</g>
			<g>
				<g>
					<g style="enable-background:new    ;">
						<g>
							<polygon style="fill:#F0F0F0;" points="379.273,76.2 381.304,75.019 381.185,117.01 379.154,118.19 							"/>
						</g>
						<g>
							<polygon style="fill:#F5F5F5;" points="379.154,118.19 381.185,117.01 439.762,150.829 437.731,152.009 							"/>
						</g>
						<g>
							<path style="fill:#E0E0E0;" d="M376.944,72.166l63.25,36.517l-0.134,47.36l-63.25-36.517L376.944,72.166z M437.731,152.009
								l0.119-41.99L379.273,76.2l-0.119,41.99L437.731,152.009"/>
						</g>
						<g>
							<polygon style="fill:#F5F5F5;" points="376.944,72.166 378.975,70.985 442.225,107.503 440.194,108.683 							"/>
						</g>
						<g>
							<polygon style="fill:#F0F0F0;" points="440.194,108.683 442.225,107.503 442.091,154.863 440.06,156.043 							"/>
						</g>
					</g>
				</g>
				<g>
					<polygon style="fill:#E0E0E0;" points="407.391,92.435 407.272,134.425 409.609,135.774 409.728,93.784 					"/>
					<polygon style="fill:#F0F0F0;" points="409.729,93.783 409.728,93.784 409.609,135.774 411.64,134.594 411.753,94.952 					"/>
					
						<rect x="408.56" y="91.76" transform="matrix(0.5 -0.866 0.866 0.5 123.6447 400.3777)" style="fill:#E0E0E0;" width="0.001" height="2.698"/>
				</g>
				<polygon style="opacity:0.2;" points="409.723,95.669 409.728,93.784 407.391,92.435 407.386,94.32 409.723,95.669 				"/>
				<polygon style="opacity:0.2;" points="409.723,95.669 411.361,94.726 409.729,93.783 409.728,93.784 				"/>
				
					<rect x="408.56" y="91.76" transform="matrix(0.5 -0.866 0.866 0.5 123.6349 400.3685)" style="fill:#E0E0E0;" width="0.001" height="2.698"/>
			</g>
		</g>
	</g>
</g>
<g id="Device">
	<g>
		<g>
			<g>
				<path style="fill:#455A64;" d="M177.451,67.106l0.008-0.007c-0.777-2.727-6.314-7.912-11.824-7.803
					c-0.199-0.002-1.189,0.099-1.547,0.303L57.06,120.491c-1.819,1.035-3.224,2.59-4.114,4.408
					c-0.675,1.378-1.061,2.903-1.061,4.491v231.509c0,5.897,6.8,11.525,13.185,8.818c0.016-0.007,0.027-0.023,0.043-0.03
					c0.138-0.05,0.276-0.089,0.41-0.166l107.033-60.993c3.196-1.821,5.169-5.217,5.169-8.895V68.222
					C177.724,67.81,177.615,67.441,177.451,67.106z"/>
				<path style="fill:#BA68C8;" d="M66.815,153.86c0-1.841,0.988-3.54,2.588-4.45l99.377-56.538
					c1.706-0.971,3.825,0.262,3.825,2.225v186.68c0,1.835-0.991,3.539-2.586,4.449l-99.377,56.629
					c-1.706,0.972-3.827-0.26-3.827-2.224V153.86z"/>
				<path style="opacity:0.2;" d="M66.815,153.86c0-1.841,0.988-3.54,2.588-4.45l99.377-56.538c1.706-0.971,3.825,0.262,3.825,2.225
					v186.68c0,1.835-0.991,3.539-2.586,4.449l-99.377,56.629c-1.706,0.972-3.827-0.26-3.827-2.224V153.86z"/>
				<path style="opacity:0.3;" d="M51.885,129.389v231.509c0,5.897,6.8,11.525,13.185,8.818c0.016-0.007,0.027-0.023,0.043-0.03
					c-1.618,0.586-3.417-0.579-3.417-2.389v-231.51c0-2.051,0.632-4.002,1.729-5.654l-10.479-5.235
					C52.271,126.277,51.885,127.802,51.885,129.389z"/>
				<path style="opacity:0.1;fill:#FFFFFF;" d="M165.635,59.296c-0.199-0.002-1.189,0.099-1.547,0.303L57.06,120.491
					c-1.819,1.035-3.224,2.59-4.114,4.408l10.479,5.235c0.872-1.312,2.03-2.439,3.447-3.244l107.028-60.892
					c1.348-0.767,2.937-0.148,3.552,1.109l0.008-0.007C176.682,64.372,171.145,59.187,165.635,59.296z"/>
				<g>
					<g>
						<g>
							<path style="fill:#263238;" d="M132.901,104.227c0.752-0.434,1.375-0.098,1.377,0.766c0.003,0.864-0.617,1.936-1.368,2.37
								l-20.998,12.123c-0.752,0.434-1.358,0.069-1.361-0.794c-0.002-0.864,0.6-1.907,1.352-2.341L132.901,104.227z"/>
						</g>
						<g>
							<path style="fill:#263238;" d="M106.51,119.464c0.752-0.434,1.358-0.088,1.361,0.775c0.002,0.864-0.6,1.927-1.352,2.361
								c-0.752,0.434-1.375,0.079-1.377-0.785C105.14,120.951,105.758,119.898,106.51,119.464z"/>
						</g>
					</g>
					<g>
						<path style="fill:#263238;" d="M119.951,102.464c1.502-0.867,2.714-0.176,2.719,1.549c0.005,1.726-1.199,3.848-2.701,4.715
							c-1.501,0.867-2.746,0.158-2.751-1.568C117.213,105.435,118.449,103.331,119.951,102.464z"/>
					</g>
					<g>
						<path style="fill:#263238;" d="M119.959,320.411c3.058-1.766,5.527-0.36,5.537,3.155c0.01,3.515-2.442,7.839-5.501,9.605
							c-3.059,1.766-5.594,0.321-5.604-3.194C114.382,326.462,116.9,322.177,119.959,320.411z"/>
					</g>
				</g>
			</g>
		</g>
	</g>
</g>
<g id="Screen">
	<g>
		<g>
			<g>
				<g>
					<path style="fill:#BA68C8;" d="M197.042,106.822l0.007-0.007c-0.705-2.476-5.731-7.182-10.732-7.083
						c-0.181-0.001-1.08,0.09-1.405,0.275l-97.149,55.271c-1.651,0.94-2.927,2.351-3.734,4.001
						c-0.612,1.251-0.963,2.635-0.963,4.076v210.139c0,5.353,6.172,10.461,11.967,8.004c0.015-0.006,0.024-0.021,0.039-0.027
						c0.125-0.045,0.251-0.081,0.372-0.15l97.153-55.363c2.901-1.653,4.692-4.735,4.692-8.074v-210.05
						C197.29,107.46,197.191,107.125,197.042,106.822z"/>
					<path style="opacity:0.2;fill:#FFFFFF;" d="M83.067,163.355v210.139c0,5.353,6.172,10.461,11.967,8.004
						c0.015-0.006,0.024-0.021,0.039-0.027c-1.469,0.532-3.101-0.526-3.101-2.169V169.163c0-1.862,0.573-3.633,1.569-5.132
						l-9.511-4.752C83.418,160.53,83.067,161.914,83.067,163.355z"/>
					<path style="opacity:0.4;fill:#FFFFFF;" d="M186.317,99.732c-0.181-0.001-1.08,0.09-1.405,0.275l-97.149,55.271
						c-1.651,0.94-2.927,2.351-3.734,4.001l9.511,4.752c0.791-1.191,1.843-2.214,3.128-2.945l97.148-55.271
						c1.224-0.696,2.666-0.135,3.224,1.007l0.007-0.007C196.344,104.339,191.319,99.633,186.317,99.732z"/>
				</g>
				<path style="opacity:0.3;fill:#FFFFFF;" d="M197.042,106.822l0.007-0.007c-0.705-2.476-5.731-7.182-10.732-7.083
					c-0.181-0.002-1.08,0.09-1.405,0.275l-97.149,55.271c-1.651,0.94-2.927,2.351-3.734,4.001c-0.612,1.251-0.963,2.635-0.963,4.076
					v210.139c0,5.353,6.172,10.461,11.967,8.004c0.015-0.006,0.024-0.021,0.039-0.027c0.125-0.045,0.251-0.081,0.372-0.15
					l97.153-55.363c2.901-1.653,4.692-4.735,4.692-8.074v-210.05C197.29,107.46,197.191,107.125,197.042,106.822z"/>
			</g>
		</g>
		<g>
			<g>
				<g>
					<g style="opacity:0.4;">
						<path style="fill:#FFFFFF;" d="M181.952,145.432c4.137-2.388,7.508-0.475,7.521,4.286l0.241,84.952
							c0.014,4.753-3.336,10.555-7.472,12.943l-73.93,42.684c-4.143,2.392-7.508,0.467-7.521-4.286l-0.241-84.952
							c-0.013-4.761,3.329-10.551,7.473-12.943L181.952,145.432z"/>
					</g>
					<g>
						<path style="fill:none;" d="M154.783,244.534c-0.123,0.133-0.25,0.259-0.374,0.391
							C154.533,244.794,154.659,244.667,154.783,244.534z"/>
						<path style="fill:none;" d="M154.872,244.433c3.727-4.059,6.954-9.043,9.234-14.417c0.093-0.22,0.185-0.435,0.277-0.649
							c-0.091,0.209-0.181,0.418-0.27,0.629C161.832,235.378,158.6,240.371,154.872,244.433z"/>
						<path style="fill:none;" d="M184.33,196.99c0.222-0.206,0.452-0.424,0.674-0.615c0.702-0.611,1.261-1.508,1.534-2.417
							c-0.287,0.916-0.854,1.823-1.554,2.428C184.768,196.581,184.546,196.787,184.33,196.99z"/>
						<path style="fill:none;" d="M167.806,210.311c-0.076,0.059-0.152,0.106-0.228,0.154
							C167.678,210.405,167.745,210.359,167.806,210.311z"/>
						<path style="fill:none;" d="M165.634,209.853c0.17,0.881,0.89,1.129,1.682,0.761
							C166.524,210.982,165.804,210.734,165.634,209.853z"/>
						<path style="fill:#BA68C8;" d="M165.634,209.853c0.17,0.881,0.89,1.129,1.682,0.761c0.114-0.062,0.194-0.108,0.262-0.149
							c0.076-0.048,0.152-0.095,0.228-0.154c0.308-0.238,0.612-0.566,0.885-0.984l3.116-4.766c1.373-2.097,2.163-4.503,2.158-6.558
							l-0.067-23.634l-8.388,4.843l0.086,30.225C165.596,209.588,165.609,209.727,165.634,209.853z"/>
						<path style="opacity:0.3;" d="M165.634,209.853c0.17,0.881,0.89,1.129,1.682,0.761c0.114-0.062,0.194-0.108,0.262-0.149
							c0.076-0.048,0.152-0.095,0.228-0.154c0.308-0.238,0.612-0.566,0.885-0.984l3.116-4.766c1.373-2.097,2.163-4.503,2.158-6.558
							l-0.067-23.634l-8.388,4.843l0.086,30.225C165.596,209.588,165.609,209.727,165.634,209.853z"/>
						<path style="fill:#455A64;" d="M186.634,193.602c-0.036,0.143-0.064,0.254-0.096,0.357c-0.273,0.909-0.832,1.806-1.534,2.417
							c-0.222,0.191-0.452,0.408-0.674,0.615c-0.209,0.19-0.411,0.369-0.62,0.568c-0.216,0.21-0.438,0.439-0.661,0.661
							c-0.209,0.214-0.418,0.412-0.62,0.622c-0.229,0.241-0.451,0.494-0.681,0.743c-0.202,0.225-0.404,0.435-0.606,0.669
							c-0.236,0.268-0.465,0.548-0.694,0.82c-0.195,0.229-0.397,0.463-0.6,0.711c-0.222,0.276-0.451,0.571-0.673,0.855
							c-0.209,0.268-0.411,0.517-0.62,0.793c-0.222,0.291-0.444,0.606-0.673,0.917c-0.202,0.28-0.411,0.556-0.619,0.855
							c-0.229,0.326-0.465,0.672-0.693,1.006c-0.202,0.295-0.404,0.583-0.606,0.886c-0.229,0.35-0.458,0.707-0.68,1.06
							c-0.209,0.322-0.417,0.637-0.619,0.963c-0.229,0.365-0.457,0.746-0.679,1.115c-0.209,0.346-0.417,0.676-0.626,1.029
							c-0.242,0.412-0.484,0.847-0.726,1.266c-0.195,0.338-0.39,0.668-0.585,1.013c-0.262,0.47-0.525,0.963-0.787,1.448
							c-0.175,0.326-0.35,0.637-0.524,0.963c-0.282,0.536-0.572,1.099-0.854,1.65c-0.155,0.299-0.309,0.582-0.464,0.889
							c-0.282,0.567-0.571,1.161-0.86,1.747c-0.215,0.443-0.43,0.877-0.645,1.328c-0.376,0.784-0.759,1.588-1.135,2.411
							c-0.067,0.14-0.128,0.283-0.195,0.423c-0.376,0.823-0.759,1.658-1.135,2.519c-0.168,0.377-0.336,0.776-0.504,1.161
							c-0.189,0.432-0.375,0.855-0.562,1.288c-0.092,0.213-0.184,0.428-0.277,0.649c-2.28,5.374-5.508,10.358-9.234,14.417
							c-0.03,0.033-0.059,0.068-0.089,0.101c-0.123,0.133-0.25,0.26-0.374,0.391c-2.154,2.278-4.461,4.25-6.843,5.802
							c-0.466,0.3-0.918,0.576-1.37,0.837l-2.119,1.223c-3.07,1.773-6.141,3.406-9.199,4.891c-3.064,1.49-6.116,2.832-9.147,4.023
							c-2.025,0.797-4.038,1.523-6.043,2.184l-3.491,1.146l-1.013,0.336c-0.525,3.285-0.472,5.977-0.469,6.119l4.99-1.638
							c8.022-2.651,16.197-6.369,24.389-11.098l2.119-1.223c7.247-4.184,13.99-12.302,17.918-21.56
							c2.86-6.746,5.682-12.523,8.48-17.416l-1.281,20.195l11.242-6.491c0.527-7.116,1.724-21.212,3.589-30.863
							C187.184,198.167,187.172,195.716,186.634,193.602z"/>
						<path style="fill:#BA68C8;" d="M125.731,261.702c3.031-1.191,6.083-2.533,9.147-4.023c3.058-1.486,6.128-3.119,9.199-4.891
							l2.119-1.223c0.452-0.261,0.904-0.538,1.37-0.837c2.382-1.552,4.689-3.524,6.843-5.802c0.124-0.132,0.251-0.258,0.374-0.391
							c0.03-0.033,0.059-0.068,0.089-0.101c3.728-4.062,6.96-9.055,9.241-14.437c0.09-0.211,0.18-0.42,0.27-0.629
							c0.187-0.433,0.373-0.857,0.562-1.288c0.168-0.384,0.336-0.784,0.504-1.161c0.376-0.862,0.759-1.696,1.135-2.519
							c0.067-0.14,0.128-0.283,0.195-0.423c0.376-0.823,0.759-1.627,1.135-2.411c0.215-0.45,0.43-0.885,0.645-1.328
							c0.289-0.586,0.578-1.18,0.86-1.747c0.155-0.307,0.309-0.59,0.464-0.889c0.282-0.551,0.571-1.114,0.854-1.65
							c0.175-0.326,0.35-0.637,0.524-0.963c0.262-0.485,0.524-0.979,0.787-1.448c0.195-0.346,0.39-0.676,0.585-1.013
							c0.242-0.419,0.484-0.854,0.726-1.266c0.209-0.353,0.417-0.684,0.626-1.029c0.222-0.369,0.451-0.749,0.679-1.115
							c0.202-0.326,0.411-0.641,0.619-0.963c0.222-0.354,0.451-0.711,0.68-1.06c0.202-0.303,0.404-0.59,0.606-0.886
							c0.229-0.334,0.464-0.68,0.693-1.006c0.209-0.299,0.417-0.575,0.619-0.855c0.229-0.311,0.451-0.625,0.673-0.917
							c0.209-0.276,0.411-0.525,0.62-0.793c0.222-0.284,0.451-0.579,0.673-0.855c0.202-0.249,0.404-0.482,0.6-0.711
							c0.229-0.272,0.458-0.552,0.694-0.82c0.202-0.233,0.404-0.443,0.606-0.669c0.229-0.249,0.451-0.501,0.681-0.743
							c0.202-0.21,0.411-0.408,0.62-0.622c0.223-0.221,0.445-0.451,0.661-0.661c0.209-0.198,0.411-0.377,0.62-0.568
							c0.216-0.202,0.438-0.408,0.654-0.603c0.7-0.605,1.267-1.512,1.554-2.428c0.031-0.103,0.06-0.214,0.096-0.357
							c0.007-0.026,0.012-0.045,0.018-0.073c1.794-8.476-4.222-11.262-5.455-19.187c0.013-0.132,0.033-0.275-0.048-0.36
							c-0.241-1.725-0.254-3.698,0.084-6.021l-5.452,3.148c-1.046,0.604-1.887,2.06-1.883,3.262l0.067,23.634
							c0.006,2.055-0.785,4.461-2.158,6.558l-3.116,4.766c-0.273,0.418-0.577,0.746-0.885,0.984
							c-0.061,0.047-0.128,0.093-0.228,0.154c-0.068,0.041-0.148,0.087-0.262,0.149c-0.792,0.368-1.512,0.12-1.682-0.761
							c-0.024-0.126-0.037-0.265-0.038-0.416l-0.086-30.225c-0.003-1.202-0.856-1.68-1.896-1.08l-15.001,8.661
							c-0.9,16.456-3.661,41.467-9.836,49.622c-1.813,2.395-4.161,4.089-6.667,5.536c-1.263,0.729-2.566,1.396-3.862,2.058
							c-1.292,0.662-2.577,1.319-3.806,2.029c-3.441,1.986-6.451,4.384-7.993,8.456c-1.248,3.128-1.609,6.956-1.718,9.186
							c-0.051,1.078,0.572,1.65,1.464,1.353l3.491-1.146C121.693,263.225,123.705,262.498,125.731,261.702z"/>
						<path style="fill:#37474F;" d="M171.045,243.19l11.229-6.483c0.005-0.085,0.097-1.702,0.298-4.452l-11.242,6.491
							L171.045,243.19z"/>
					</g>
				</g>
				<g>
					<path style="fill:#FFFFFF;" d="M184.415,119.966c3.731-2.154,6.773-0.421,6.785,3.867c0.012,4.297-3.01,9.531-6.741,11.685
						l-78.603,45.381c-3.739,2.159-6.781,0.425-6.793-3.871c-0.012-4.288,3.01-9.522,6.749-11.681L184.415,119.966z"/>
				</g>
				<g>
					<polygon style="fill:#FFFFFF;" points="190.305,302.436 169.99,314.164 169.999,317.272 190.314,305.543 					"/>
					<polygon style="fill:#FFFFFF;" points="163.68,314.648 190.296,299.282 190.287,296.174 163.671,311.54 					"/>
					<polygon style="fill:#FFFFFF;" points="153.655,314.164 190.278,293.02 190.269,289.912 153.646,311.056 					"/>
					<polygon style="fill:#BA68C8;" points="168.738,284.962 167.085,282.084 165.452,286.859 161.778,289.598 164.446,291.038 
						163.832,295.606 167.112,291.724 170.403,291.812 169.765,287.967 172.416,283.456 					"/>
					<polygon style="fill:#FFFFFF;" points="173.37,260.676 102.879,301.375 102.895,307.124 173.386,266.426 					"/>
					<polygon style="fill:#FFFFFF;" points="146.975,327.452 146.984,330.56 164.995,320.161 164.986,317.053 					"/>
					<polygon style="fill:#FFFFFF;" points="130.635,327.455 148.651,317.053 148.643,313.945 130.627,324.347 					"/>
					<polygon style="fill:#FFFFFF;" points="103.024,352.827 103.033,355.935 141.064,333.978 141.055,330.87 					"/>
					<polygon style="fill:#FFFFFF;" points="103.042,359.089 103.051,362.197 124.803,349.638 124.795,346.53 					"/>
					<polygon style="fill:#FFFFFF;" points="158.868,314.314 103.007,346.565 103.015,349.673 158.877,317.422 					"/>
					<polygon style="fill:#FFFFFF;" points="124.741,327.745 102.989,340.303 102.998,343.411 124.75,330.853 					"/>
					<polygon style="fill:#BA68C8;" points="104.995,329.576 108.275,325.693 111.567,325.782 110.929,321.936 113.58,317.425 
						109.902,318.932 108.248,316.053 106.616,320.829 102.941,323.567 105.609,325.007 					"/>
					<polygon style="fill:#BA68C8;" points="152.401,300.217 155.693,300.305 155.055,296.46 157.706,291.949 154.028,293.456 
						152.374,290.577 150.742,295.352 147.067,298.091 149.736,299.531 149.121,304.099 					"/>
					<polygon style="fill:#BA68C8;" points="124.612,310.439 122.958,307.56 121.326,312.336 117.652,315.074 120.32,316.514 
						119.706,321.082 122.986,317.2 126.277,317.289 125.639,313.443 128.29,308.932 					"/>
					<polygon style="fill:#FFFFFF;" points="157.22,280.002 102.907,311.36 102.917,314.94 157.231,283.582 					"/>
					<polygon style="fill:#BA68C8;" points="139.322,301.946 137.669,299.067 136.032,303.845 132.362,306.581 135.03,308.021 
						134.411,312.592 137.696,308.707 140.987,308.796 140.344,304.953 142.996,300.442 					"/>
					<polygon style="opacity:0.2;" points="104.995,329.576 108.275,325.693 111.567,325.782 110.929,321.936 113.58,317.425 
						109.902,318.932 108.248,316.053 106.616,320.829 102.941,323.567 105.609,325.007 					"/>
					<polygon style="opacity:0.2;" points="152.401,300.217 155.693,300.305 155.055,296.46 157.706,291.949 154.028,293.456 
						152.374,290.577 150.742,295.352 147.067,298.091 149.736,299.531 149.121,304.099 					"/>
					<polygon style="opacity:0.2;" points="124.612,310.439 122.958,307.56 121.326,312.336 117.652,315.074 120.32,316.514 
						119.706,321.082 122.986,317.2 126.277,317.289 125.639,313.443 128.29,308.932 					"/>
					<polygon style="opacity:0.2;" points="139.322,301.946 137.669,299.067 136.032,303.845 132.362,306.581 135.03,308.021 
						134.411,312.592 137.696,308.707 140.987,308.796 140.344,304.953 142.996,300.442 					"/>
				</g>
			</g>
			<g>
				<g>
					<polygon style="fill:#BA68C8;" points="145.482,203.667 140.747,209.735 142.899,214.399 137.391,218.404 137.272,224.867 
						131.939,226.119 129.573,233.262 125.34,231.544 121.132,238.135 118.73,233.746 113.408,238.644 113.256,232.338 
						107.74,234.697 109.859,227.568 105.107,226.977 109.132,220.258 105.961,216.823 111.198,211.673 110.159,205.987 
						115.7,203.298 116.971,196.343 121.859,196.581 125.22,189.559 128.613,192.682 133.483,186.81 134.79,192.276 
						140.328,188.569 139.323,195.435 144.571,194.532 141.432,201.61 					"/>
				</g>
				<g style="opacity:0.1;">
					<polygon points="145.482,203.667 140.747,209.735 142.899,214.399 137.391,218.404 137.272,224.867 131.939,226.119 
						129.573,233.262 125.34,231.544 121.132,238.135 118.73,233.746 113.408,238.644 113.256,232.338 107.74,234.697 
						109.859,227.568 105.107,226.977 109.132,220.258 105.961,216.823 111.198,211.673 110.159,205.987 115.7,203.298 
						116.971,196.343 121.859,196.581 125.22,189.559 128.613,192.682 133.483,186.81 134.79,192.276 140.328,188.569 
						139.323,195.435 144.571,194.532 141.432,201.61 					"/>
				</g>
				<g>
					<g>
						<path style="fill:#FFFFFF;" d="M123.303,201.842c1.815-1.048,2.811-0.386,2.817,1.778l0.02,7.034
							c0.006,2.164-0.983,3.975-2.798,5.023c-1.817,1.049-2.813,0.384-2.819-1.78l-0.02-7.034
							C120.496,204.699,121.485,202.891,123.303,201.842z M124.29,211.858l-0.021-7.302c-0.003-0.967-0.374-1.122-0.961-0.783
							c-0.589,0.34-0.958,0.922-0.956,1.889l0.021,7.302c0.003,0.967,0.374,1.122,0.963,0.781
							C123.923,213.407,124.292,212.825,124.29,211.858"/>
					</g>
					<g>
						<path style="fill:#FFFFFF;" d="M118.22,219.494c2.447-1.413,4.253-0.518,4.26,2.117c0.007,2.633-1.788,5.606-4.235,7.019
							c-2.444,1.411-4.253,0.519-4.26-2.114C113.978,223.88,115.776,220.905,118.22,219.494z M118.24,226.571
							c1.157-0.668,2.06-2.182,2.055-3.699c-0.004-1.52-0.912-1.988-2.07-1.32c-1.157,0.668-2.06,2.182-2.055,3.702
							C116.175,226.771,117.083,227.239,118.24,226.571"/>
					</g>
					<g>
						<path style="fill:#FFFFFF;" d="M119.115,204.414l0.005,1.931l-3.229,1.865l-0.142,3.316l0.035-0.02
							c0.333-0.832,0.853-1.48,1.593-1.907c1.362-0.786,2.056-0.083,2.062,1.905l0.009,3.015c0.006,2.164-0.933,3.946-2.748,4.994
							c-1.817,1.049-2.761,0.355-2.768-1.81l-0.003-1.119l1.749-1.01l0.004,1.254c0.003,0.967,0.374,1.1,0.961,0.761
							c0.589-0.34,0.958-0.9,0.956-1.867l-0.009-2.974c-0.003-0.967-0.374-1.122-0.963-0.781c-0.587,0.339-0.956,0.921-0.953,1.888
							l0.001,0.404l-1.749,1.01l0.313-8.037L119.115,204.414z"/>
					</g>
					<g>
						<polygon style="fill:#FFFFFF;" points="133.627,196.035 134.721,195.404 130.118,211.61 129.024,212.241 						"/>
					</g>
					<g style="enable-background:new    ;">
						<g>
							<polygon style="fill:#FFFFFF;" points="136.615,209.049 136.621,210.97 132.788,213.183 132.794,215.114 136.169,213.165 
								136.174,215.085 132.799,217.034 132.808,220.046 130.646,221.294 130.621,212.51 							"/>
						</g>
						<g>
							<path style="fill:#FFFFFF;" d="M134.836,200.196c1.16-0.67,1.784-0.257,1.788,1.135l0.013,4.445
								c0.004,1.389-0.616,2.523-1.776,3.193c-1.162,0.671-1.786,0.256-1.79-1.134l-0.013-4.445
								C133.054,201.998,133.674,200.867,134.836,200.196z M135.459,206.551l-0.013-4.637c-0.002-0.599-0.238-0.714-0.606-0.502
								c-0.389,0.225-0.605,0.602-0.603,1.2l0.013,4.637c0.002,0.598,0.219,0.725,0.608,0.501
								C135.225,207.538,135.46,207.15,135.459,206.551"/>
						</g>
					</g>
					<g>
						<path style="fill:#FFFFFF;" d="M130.787,204.197c0.004,1.392-0.616,2.523-1.776,3.193c-1.16,0.669-1.784,0.257-1.788-1.135
							l-0.013-4.445c-0.004-1.389,0.616-2.523,1.776-3.193c1.16-0.669,1.784-0.254,1.788,1.135L130.787,204.197z M128.399,205.673
							c0.002,0.599,0.222,0.724,0.608,0.501c0.37-0.214,0.605-0.602,0.603-1.2l-0.013-4.637c-0.002-0.601-0.238-0.715-0.608-0.501
							c-0.387,0.223-0.605,0.599-0.603,1.2L128.399,205.673"/>
					</g>
					<g>
						<polygon style="fill:#FFFFFF;" points="129.603,213.098 129.608,215.018 125.776,217.231 125.781,219.163 129.154,217.215 
							129.16,219.135 125.787,221.083 125.795,224.095 123.634,225.343 123.609,216.559 						"/>
					</g>
				</g>
			</g>
		</g>
		<path style="opacity:0.3;fill:#FFFFFF;" d="M188.757,163.355L188.757,163.355c0-1.081,0.197-2.129,0.555-3.114
			C188.954,161.226,188.757,162.274,188.757,163.355z"/>
	</g>
</g>
<g id="Character">
	<g>
		<g>
			<g>
				<path style="fill:#37474F;" d="M318.804,351.377l58.466-34.199c3.835-2.243,5.422-6.974,3.715-11.076l-2.951-7.092l0,0
					l1.584,3.808c1.568,3.768,0.076,8.112-3.476,10.122l-63.58,35.986C313.305,351.41,316.284,352.851,318.804,351.377z"/>
				<path style="fill:#455A64;" d="M376.774,280.282l-5.228,3.133l6.488,15.594l0,0l2.951,7.092
					c1.706,4.102,0.119,8.833-3.715,11.076l-58.466,34.199c-2.519,1.474-5.499,0.033-6.242-2.451l-4.141,2.344l-78.499-45.37
					l-2.537,26.589l4.117,0.613l0.304-1.799c0.522-3.09,3.964-4.713,6.68-3.15l57.844,33.301c4.822,2.776,7.578,8.113,7.049,13.652
					l-0.197,2.063h4.169l0.853-5.052c0.706-4.179,3.241-7.823,6.913-9.938l66.841-38.499c2.69-1.549,6.13-0.478,7.464,2.325
					l6.325,13.287c0,0,2.07,1.109,2.884-0.887L376.774,280.282z"/>
			</g>
			<g>
				<path style="fill:#455A64;" d="M302.425,214.738l-62.827,48.665c-3.873,3-6.333,7.467-6.799,12.344l-7.046,73.842
					c1.368,1.294,2.921,0.259,2.921,0.259l12.518-74.132c0.432-2.559,1.963-4.8,4.188-6.134l55.528-33.276
					C308.163,231.983,309.443,216.682,302.425,214.738z"/>
				<path style="opacity:0.3;fill:#FFFFFF;" d="M302.425,214.738l-62.827,48.665c-3.873,3-6.333,7.467-6.799,12.344l-7.046,73.842
					c1.368,1.294,2.921,0.259,2.921,0.259l12.518-74.132c0.432-2.559,1.963-4.8,4.188-6.134l55.528-33.276
					C308.163,231.983,309.443,216.682,302.425,214.738z"/>
			</g>
			<path style="fill:#BA68C8;" d="M374.392,298.752l-0.001,0.001c-0.27-0.71-0.774-1.346-1.518-1.776l-62.997-36.372
				c-2.715-1.567-6.06-1.563-8.771,0.012l-62.541,36.345c-0.748,0.435-1.251,1.078-1.517,1.794l-0.008-0.004
				c-1.798,3.309-2.4,10.84,0.101,15.633c0,0,0.428,0.918,1.433,1.523l62.998,36.372c2.715,1.567,6.06,1.563,8.771-0.012
				l62.542-36.345c0.657-0.382,1.122-0.927,1.407-1.539l0.003,0.002C376.792,309.592,376.19,302.061,374.392,298.752z"/>
			<path style="opacity:0.3;fill:#FFFFFF;" d="M374.392,298.752l-0.001,0.001c-0.27-0.71-0.774-1.346-1.518-1.776l-62.997-36.372
				c-2.715-1.567-6.06-1.563-8.771,0.012l-62.541,36.345c-0.748,0.435-1.251,1.078-1.517,1.794l-0.008-0.004
				c-1.798,3.309-2.4,10.84,0.101,15.633c0,0,0.428,0.918,1.433,1.523l62.998,36.372c2.715,1.567,6.06,1.563,8.771-0.012
				l62.542-36.345c0.657-0.382,1.122-0.927,1.407-1.539l0.003,0.002C376.792,309.592,376.19,302.061,374.392,298.752z"/>
			<path style="opacity:0.3;" d="M374.392,298.752l-0.001,0.001c0.573,1.512,0.073,3.361-1.509,4.28l-62.542,36.345
				c-2.71,1.575-6.056,1.58-8.771,0.012l-62.998-36.372c-1.58-0.912-2.087-2.751-1.526-4.262l-0.008-0.004
				c-1.798,3.309-2.4,10.84,0.101,15.633c0,0,0.428,0.918,1.433,1.523l62.998,36.372c2.715,1.567,6.06,1.563,8.771-0.012
				l62.542-36.345c0.657-0.382,1.122-0.927,1.407-1.539l0.003,0.002C376.792,309.592,376.19,302.061,374.392,298.752z"/>
			<g>
				<path style="fill:#FFA8A7;" d="M304.98,202.051L304.98,202.051c0.008-0.008,0.014-0.017,0.021-0.025
					C304.994,202.035,304.986,202.043,304.98,202.051z"/>
				<path style="fill:#BA68C8;" d="M379.597,229.634l-59.56-34.387c-0.556-0.321-1.153-0.472-1.741-0.482v-0.006
					c-0.081-0.001-0.159,0.006-0.24,0.006c-0.018,0.001-0.036,0-0.053,0.001c-5.444,0.053-9.706,3.299-12.873,7.107
					c-0.045,0.049-0.086,0.101-0.129,0.153c-0.007,0.008-0.013,0.017-0.02,0.025c-0.308,0.38-0.549,0.828-0.686,1.339
					l-17.085,63.646c-0.993,3.701,0.624,7.608,3.943,9.524l59.56,34.387c0.669,0.386,1.397,0.53,2.098,0.473l-0.005,0.015
					c6.818-0.701,10.83-4.914,12.84-7.14c0.37-0.409,0.654-0.911,0.81-1.492l17.085-63.646
					C384.533,235.457,382.916,231.55,379.597,229.634z"/>
				<path style="opacity:0.2;fill:#FFFFFF;" d="M379.597,229.634l-59.56-34.387c-0.556-0.321-1.153-0.472-1.741-0.482v-0.006
					c-0.081-0.001-0.159,0.006-0.24,0.006c-0.018,0.001-0.036,0-0.053,0.001c-5.444,0.053-9.706,3.299-12.873,7.107
					c-0.045,0.049-0.086,0.101-0.129,0.153c-0.007,0.008-0.013,0.017-0.02,0.025c-0.308,0.38-0.549,0.828-0.686,1.339
					l-17.085,63.646c-0.993,3.701,0.624,7.608,3.943,9.524l59.56,34.387c0.669,0.386,1.397,0.53,2.098,0.473l-0.005,0.015
					c6.818-0.701,10.83-4.914,12.84-7.14c0.37-0.409,0.654-0.911,0.81-1.492l17.085-63.646
					C384.533,235.457,382.916,231.55,379.597,229.634z"/>
				<path style="opacity:0.1;" d="M379.597,229.634l-59.56-34.387c-0.556-0.321-1.153-0.472-1.741-0.482v-0.006
					c-0.081-0.001-0.16,0.006-0.24,0.006c-0.018,0.001-0.036,0-0.053,0.001c-5.444,0.053-9.706,3.299-12.873,7.107
					c1.103-1.194,2.948-1.57,4.482-0.684l59.56,34.387c1.746,1.008,3.015,2.57,3.687,4.36l10.402-6.006
					C382.583,232.167,381.323,230.63,379.597,229.634z"/>
				<path style="opacity:0.2;" d="M372.858,239.937c0.605,1.613,0.727,3.41,0.256,5.164l-17.085,63.646
					c-0.418,1.557-1.758,2.556-3.22,2.674l-0.005,0.015c6.818-0.701,10.83-4.914,12.84-7.14c0.37-0.409,0.654-0.911,0.81-1.492
					l17.085-63.646c0.477-1.777,0.347-3.599-0.279-5.228L372.858,239.937z"/>
			</g>
		</g>
		<g>
			<g>
				<g>
					<path style="fill:#BA68C8;" d="M272.308,373.217l2.545,5.045c3.598-3.328,4.25-6.015,4.25-6.015
						c-1.164-4.119-2.522-8.307-3.195-10.343c-0.347,2.836-2.283,5.279-3.1,8.046C272.494,371.017,272.356,372.11,272.308,373.217z"
						/>
					<path style="opacity:0.2;" d="M272.308,373.217l2.545,5.045c3.598-3.328,4.25-6.015,4.25-6.015
						c-1.164-4.119-2.522-8.307-3.195-10.343c-0.347,2.836-2.283,5.279-3.1,8.046C272.494,371.017,272.356,372.11,272.308,373.217z"
						/>
					<path style="fill:#BA68C8;" d="M272.429,378.384l2.424-0.122l-2.545-5.045C272.233,374.921,272.374,376.657,272.429,378.384z"
						/>
					<path style="fill:#BA68C8;" d="M274.274,355.943c-0.852-1.29-1.913-2.422-3.011-3.515c0.694,2.114,0.522,4.543-0.046,6.739
						c-0.756,2.925-2.128,5.667-2.813,8.61c-0.833,3.582-0.643,7.432-2.16,10.782c-1.476,3.259-4.577,5.733-8.082,6.448
						c-1.298,0.265-2.741,0.274-3.843-0.462c-0.499-0.333-0.868-0.861-1.057-1.432c-0.77,1.588-1.676,3.105-2.76,4.504
						c-1.201,1.551-2.69,3.253-2.364,5.186c0.27,1.599,1.792,2.758,3.38,3.088c1.588,0.33,3.233-0.005,4.807-0.397
						c3.379-0.842,6.738-1.974,9.622-3.925c2.884-1.951,5.274-4.804,6.105-8.185c0.4-1.63,0.43-3.31,0.376-5
						c-0.055-1.726-0.195-3.463-0.121-5.167c0.048-1.107,0.186-2.2,0.501-3.267c0.817-2.767,2.753-5.21,3.1-8.046
						c0.018-0.152,0.052-0.3,0.061-0.455C276.082,359.498,275.351,357.574,274.274,355.943z"/>
					<path style="opacity:0.1;" d="M274.274,355.943c-0.852-1.29-1.913-2.422-3.011-3.515c0.694,2.114,0.522,4.543-0.046,6.739
						c-0.756,2.925-2.128,5.667-2.813,8.61c-0.833,3.582-0.643,7.432-2.16,10.782c-1.476,3.259-4.577,5.733-8.082,6.448
						c-1.298,0.265-2.741,0.274-3.843-0.462c-0.499-0.333-0.868-0.861-1.057-1.432c-0.77,1.588-1.676,3.105-2.76,4.504
						c-1.201,1.551-2.69,3.253-2.364,5.186c0.27,1.599,1.792,2.758,3.38,3.088c1.588,0.33,3.233-0.005,4.807-0.397
						c3.379-0.842,6.738-1.974,9.622-3.925c2.884-1.951,5.274-4.804,6.105-8.185c0.4-1.63,0.43-3.31,0.376-5
						c-0.055-1.726-0.195-3.463-0.121-5.167c0.048-1.107,0.186-2.2,0.501-3.267c0.817-2.767,2.753-5.21,3.1-8.046
						c0.018-0.152,0.052-0.3,0.061-0.455C276.082,359.498,275.351,357.574,274.274,355.943z"/>
					<path style="fill:#F28F8F;" d="M258.162,385.006c3.506-0.715,6.606-3.188,8.082-6.448c1.517-3.35,1.327-7.2,2.16-10.782
						c0.684-2.942,2.056-5.685,2.813-8.61c0.568-2.196,0.74-4.625,0.046-6.739c-0.289-0.288-0.581-0.575-0.872-0.859
						c-4.341,2.249-9.277,4.1-13.23,6.977c-0.048,5.065-0.099,10.156-0.965,15.147c-0.564,3.247-1.501,6.463-2.935,9.421
						c0.189,0.571,0.559,1.099,1.057,1.432C255.421,385.28,256.863,385.271,258.162,385.006z"/>
				</g>
				<path style="opacity:0.3;" d="M272.429,378.384l2.424-0.122l-2.545-5.045C272.233,374.921,272.374,376.657,272.429,378.384z"/>
				<path style="fill:#FFA8A7;" d="M243.422,371.645c-0.719,4.191-3.926,12.722-3.926,12.722s15.04,0.612,15.372-0.08l4.422-6.835
					L243.422,371.645z"/>
				<path style="fill:#263238;" d="M288.449,271.951l-38.364,21.374c-7.13,3.972-10.929,12.053-9.439,20.078l7.446,40.1l-6.107,19.4
					c5.269,7.065,17.364,7.424,17.364,7.424c6.746-13.532,11.696-19.28,15.528-30.617c3.832-11.337,6.387-19.16,6.387-19.16
					l31.861-8.707c14.894-4.071,25.877-16.779,27.607-32.122c0.543-4.818,0.568-8.107,0.568-8.107L288.449,271.951z"/>
				<path style="opacity:0.2;" d="M285.845,284.583c-0.01,4.239,1.541,8.465,4.29,11.692l-24.176,15.091
					c-3.972,2.487-6.914,6.323-8.284,10.805l-9.582,31.332l8.642-34.894c0.994-4.014,3.52-7.478,7.038-9.652l22.102-13.596
					C283.319,288.973,285.845,284.583,285.845,284.583z"/>
				<g>
					<path style="fill:#BA68C8;" d="M247.654,403.812l0.356,5.639c4.616-1.646,6.273-3.859,6.273-3.859
						c0.549-4.245,0.948-8.629,1.13-10.766c-1.434,2.471-4.175,3.956-6.013,6.179C248.69,401.863,248.133,402.814,247.654,403.812z"
						/>
					<path style="opacity:0.1;" d="M247.654,403.812l0.356,5.639c4.616-1.646,6.273-3.859,6.273-3.859
						c0.549-4.245,0.948-8.629,1.13-10.766c-1.434,2.471-4.175,3.956-6.013,6.179C248.69,401.863,248.133,402.814,247.654,403.812z"
						/>
					<path style="fill:#BA68C8;" d="M245.733,408.611l2.277,0.841l-0.356-5.639C246.915,405.35,246.362,407.002,245.733,408.611z"/>
					<path style="opacity:0.2;" d="M245.733,408.611l2.277,0.841l-0.356-5.639C246.915,405.35,246.362,407.002,245.733,408.611z"/>
					<path style="fill:#BA68C8;" d="M256.254,388.703c-0.276-1.522-0.807-2.979-1.386-4.416c-0.194,2.216-1.306,4.383-2.692,6.178
						c-1.845,2.392-4.185,4.374-5.971,6.81c-2.174,2.966-3.514,6.58-6.226,9.064c-2.639,2.416-6.462,3.472-9.967,2.75
						c-1.298-0.267-2.628-0.826-3.352-1.936c-0.328-0.502-0.46-1.133-0.409-1.732c-1.333,1.157-2.762,2.196-4.309,3.056
						c-1.714,0.954-3.752,1.933-4.212,3.839c-0.381,1.577,0.563,3.24,1.894,4.168c1.331,0.928,2.975,1.267,4.576,1.525
						c3.438,0.554,6.971,0.834,10.39,0.174c3.419-0.66,6.738-2.343,8.832-5.126c1.009-1.341,1.697-2.874,2.312-4.449
						c0.628-1.609,1.182-3.261,1.921-4.798c0.479-0.999,1.036-1.949,1.745-2.807c1.839-2.223,4.58-3.708,6.013-6.179
						c0.077-0.132,0.166-0.255,0.235-0.394C256.518,392.683,256.602,390.626,256.254,388.703z"/>
					<path style="fill:#FFA8A7;" d="M230.012,409.09c3.505,0.721,7.328-0.334,9.967-2.75c2.712-2.484,4.052-6.098,6.226-9.064
						c1.786-2.436,4.126-4.419,5.971-6.81c1.386-1.795,2.499-3.962,2.692-6.178c-0.153-0.379-0.308-0.757-0.464-1.133
						c-4.875,0.361-10.142,0.122-14.908,1.213c-2.036,4.638-4.084,9.299-6.843,13.547c-1.795,2.764-3.921,5.352-6.402,7.508
						c-0.051,0.599,0.082,1.23,0.409,1.732C227.384,408.264,228.714,408.823,230.012,409.09z"/>
				</g>
			</g>
			<g>
				<path style="fill:#263238;" d="M288.351,189.094c25.336,24.446,31.936,23.603,31.936,23.603
					c9.186-13.474,14.133-28.51,8.551-43.103c-2.321-6.066-5.577-11.504-11.275-14.937c-4.299-2.59-9.834-3.965-14.853-3.398
					c-2.252,0.254-4.574,1.478-6.406,2.762c-0.47,0.329-5.047,4.804-4.721,4.951c-3.33-1.505-7.842,0.839-9.762,3.948
					c-1.92,3.109-2.009,7.036-1.341,10.629C281.497,179.021,284.347,185.231,288.351,189.094z"/>
				<g>
					<g>
						<g>
							<path style="fill:#BA68C8;" d="M292.213,205.624l-0.976,0.011c-6.538,0.073-14.808,4.521-18.849,15.93l-15.704,30.414
								l17.928,7.948l9.806-28.708L292.213,205.624z"/>
						</g>
						<path style="opacity:0.2;" d="M279.623,225.809c-1.253,3.592-1.33,7.467-1.527,11.266c-0.197,3.799-0.638,8.386-2.378,11.768
							c-1.9-1.314-4.23-1.996-6.538-1.911c-2.309,0.084-4.583,0.933-6.382,2.382c-1.294,1.042-2.256,2.476-2.908,4.086l14.722,6.527
							l9.806-28.708l4.821-15.83C284.831,217.412,281.225,221.218,279.623,225.809z"/>
					</g>
					<path style="opacity:0.4;" d="M292.213,205.624l-0.976,0.011c-6.538,0.073-14.808,4.521-18.849,15.93l-15.704,30.414
						l17.928,7.948l9.806-28.708l4.821-15.83c0,0,0,0,0,0L292.213,205.624z"/>
					<g>
						<path style="fill:#FFA8A7;" d="M274.777,254.438c-1.32-3.39-4.518-5.976-8.109-6.557c-3.591-0.581-7.664,1.296-9.984,4.097
							c-1.956,2.363-1.649,5.558-0.415,8.366c1.934,4.405,7.326,6.959,11.96,5.666C272.862,264.717,276.522,258.921,274.777,254.438
							z"/>
					</g>
				</g>
				<path style="fill:#BA68C8;" d="M293.866,205.066c-6.923,1.098-11.211,18.599-13.458,25.239
					c-2.323,6.865,0.835,11.846,4.353,15.995l0,0c1.29,1.521,1.879,3.516,1.62,5.494l-7.278,27.034
					c19.865,14.748,53.167,7.599,62.196,2.784c0-12.345-3.111-21.616-5.838-27.371c-2.633-5.556-4.186-11.561-4.398-17.706
					l-0.342-9.926l2.399-17.119l-17.25-4.104l-15.199-0.677C300.671,204.709,296.12,204.709,293.866,205.066z"/>
				<path style="opacity:0.2;" d="M293.866,205.066c-6.923,1.098-11.211,18.599-13.458,25.239
					c-2.323,6.865,0.835,11.846,4.353,15.995l0,0c1.29,1.521,1.879,3.516,1.62,5.494l-7.278,27.034
					c19.865,14.748,53.167,7.599,62.196,2.784c0-12.345-3.111-21.616-5.838-27.371c-2.633-5.556-4.186-11.561-4.398-17.706
					l-0.342-9.926l2.399-17.119l-17.25-4.104l-15.199-0.677C300.671,204.709,296.12,204.709,293.866,205.066z"/>
				<g>
					<g>
						<g>
							<g style="enable-background:new    ;">
								<path style="fill:#455A64;" d="M293.706,283.166c-0.001-0.007-0.002-0.014-0.003-0.021c0-0.002-0.001-0.004-0.001-0.006
									c-0.002-0.012-0.003-0.023-0.005-0.035c-0.004-0.019-0.009-0.04-0.015-0.061c-0.005-0.019-0.012-0.039-0.018-0.059
									c-0.007-0.019-0.014-0.039-0.022-0.059c-0.008-0.02-0.016-0.04-0.025-0.06c-0.009-0.02-0.018-0.039-0.029-0.06
									c-0.01-0.02-0.02-0.04-0.032-0.061c-0.001-0.001-0.001-0.003-0.002-0.004l-11.735-21.846
									c-0.011-0.02-0.022-0.04-0.033-0.061c-0.012-0.022-0.025-0.043-0.039-0.066c-0.014-0.022-0.027-0.044-0.042-0.066
									c-0.014-0.023-0.029-0.045-0.045-0.068c-0.015-0.023-0.032-0.047-0.048-0.07c-0.016-0.024-0.033-0.047-0.051-0.071
									c-0.017-0.023-0.035-0.047-0.053-0.071c-0.017-0.022-0.035-0.045-0.052-0.068c-0.017-0.022-0.034-0.043-0.052-0.065
									c-0.016-0.02-0.032-0.039-0.048-0.059c-0.014-0.017-0.028-0.033-0.042-0.05c-0.014-0.017-0.028-0.033-0.043-0.05
									c-0.012-0.013-0.023-0.026-0.035-0.04c-0.01-0.012-0.021-0.023-0.031-0.035c-0.01-0.012-0.021-0.023-0.032-0.035
									c-0.011-0.012-0.021-0.024-0.032-0.036c-0.009-0.009-0.017-0.018-0.025-0.027c-0.008-0.009-0.016-0.017-0.024-0.026
									c-0.008-0.009-0.016-0.017-0.024-0.026c-0.008-0.009-0.017-0.017-0.024-0.026c-0.008-0.009-0.016-0.017-0.025-0.026
									c-0.008-0.008-0.016-0.016-0.023-0.023c-0.007-0.007-0.014-0.015-0.021-0.022c-0.007-0.007-0.014-0.015-0.022-0.022
									c-0.007-0.007-0.014-0.015-0.022-0.022c-0.007-0.007-0.014-0.015-0.022-0.022c-0.007-0.007-0.015-0.015-0.022-0.022
									c-0.008-0.008-0.015-0.015-0.023-0.023c-0.008-0.008-0.016-0.016-0.024-0.024c-0.008-0.008-0.016-0.016-0.025-0.024
									c-0.008-0.008-0.016-0.016-0.025-0.024c-0.008-0.008-0.017-0.016-0.025-0.024c-0.008-0.008-0.017-0.016-0.025-0.024
									c-0.013-0.012-0.026-0.025-0.039-0.037c-0.014-0.014-0.029-0.028-0.044-0.041c-0.015-0.014-0.03-0.027-0.045-0.041
									c-0.056-0.051-0.113-0.102-0.17-0.152c-0.013-0.011-0.025-0.022-0.037-0.032c-0.013-0.011-0.025-0.021-0.037-0.032
									c-0.013-0.011-0.025-0.021-0.037-0.032c-0.012-0.01-0.025-0.021-0.037-0.031c-0.008-0.007-0.016-0.013-0.024-0.02
									c-0.008-0.007-0.016-0.013-0.025-0.02c-0.008-0.007-0.016-0.013-0.024-0.02c-0.008-0.007-0.016-0.013-0.024-0.02
									c-0.008-0.007-0.016-0.013-0.024-0.02c-0.008-0.007-0.016-0.013-0.025-0.02c-0.008-0.007-0.016-0.013-0.024-0.019
									c-0.008-0.006-0.016-0.012-0.024-0.019c-0.008-0.006-0.016-0.012-0.024-0.019c-0.008-0.006-0.016-0.013-0.024-0.018
									c-0.008-0.006-0.016-0.012-0.024-0.018c-0.008-0.006-0.016-0.012-0.024-0.018c-0.009-0.007-0.017-0.013-0.026-0.02
									c-0.009-0.007-0.019-0.015-0.029-0.022c-0.009-0.007-0.019-0.014-0.029-0.022c-0.01-0.008-0.019-0.014-0.029-0.022
									c-0.01-0.007-0.019-0.014-0.029-0.021c-0.01-0.007-0.02-0.014-0.03-0.022c-0.013-0.01-0.027-0.019-0.04-0.029
									c-0.013-0.01-0.027-0.019-0.04-0.029c-0.014-0.009-0.027-0.019-0.04-0.028c-0.015-0.01-0.029-0.02-0.044-0.03
									c-0.019-0.013-0.038-0.026-0.057-0.039c-0.019-0.013-0.038-0.025-0.057-0.037c-0.022-0.014-0.043-0.028-0.065-0.042
									c-0.024-0.015-0.047-0.03-0.071-0.045c-0.024-0.015-0.049-0.03-0.073-0.044c-0.026-0.015-0.051-0.03-0.077-0.045
									c-0.015-0.009-0.03-0.017-0.045-0.026l-13.491-7.589c-0.011-0.006-0.022-0.012-0.032-0.018
									c-0.026-0.014-0.052-0.028-0.078-0.042c-0.026-0.014-0.051-0.027-0.076-0.039c-0.025-0.013-0.05-0.024-0.074-0.036
									c-0.025-0.012-0.049-0.023-0.073-0.034c-0.024-0.011-0.048-0.021-0.071-0.031c-0.025-0.01-0.048-0.02-0.072-0.029
									c-0.024-0.009-0.047-0.018-0.07-0.026c-0.025-0.008-0.049-0.017-0.073-0.023c-0.025-0.008-0.05-0.014-0.074-0.02
									c-0.017-0.005-0.033-0.007-0.049-0.011c-0.002-0.001-0.003-0.001-0.005-0.001c-0.007-0.001-0.014-0.003-0.021-0.005
									c-0.028-0.005-0.055-0.009-0.08-0.011c-0.034-0.003-0.065-0.004-0.095-0.002c-0.091,0.005-0.16,0.033-0.204,0.083
									l-1.61,1.842c0.01-0.011,0.043,0,0.055-0.009c-0.134,0.1-0.143,0.317,0.05,0.675l11.735,21.846
									c0.422,0.787,1.571,1.883,2.586,2.454l13.491,7.589c0.696,0.392,1.113,0.401,1.173,0.116
									c-0.009,0.042-0.002,0.096-0.026,0.125l0,0l0,0l1.61-1.842c0.021-0.024,0.036-0.052,0.045-0.085
									c0.007-0.023,0.01-0.047,0.012-0.074C293.709,283.211,293.708,283.189,293.706,283.166z M263.286,252.386
									c0.039,0.002,0.048-0.024,0.093-0.015c0.001,0,0.003,0.001,0.004,0.001c0.012,0.003,0.035,0.016,0.048,0.02
									C263.37,252.378,263.336,252.39,263.286,252.386z M278.754,261.097c0.124,0.106,0.254,0.205,0.371,0.316l0,0
									C279.008,261.302,278.879,261.203,278.754,261.097z M279.598,261.917c0.051,0.058,0.116,0.117,0.164,0.174c0,0,0,0,0,0
									C279.714,262.034,279.65,261.975,279.598,261.917z M292.087,285.019c-0.007-0.116-0.046-0.256-0.143-0.436
									c0.085,0.158,0.133,0.291,0.148,0.399c0,0.001,0.001,0.003,0,0.004C292.095,285.001,292.086,285.006,292.087,285.019z"/>
							</g>
						</g>
						<path style="opacity:0.15;fill:#FFFFFF;" d="M293.706,283.166c-0.001-0.007-0.002-0.014-0.003-0.021
							c0-0.002-0.001-0.004-0.001-0.006c-0.002-0.012-0.003-0.023-0.005-0.035c-0.004-0.019-0.009-0.04-0.015-0.061
							c-0.005-0.019-0.012-0.039-0.018-0.059c-0.007-0.019-0.014-0.039-0.022-0.059c-0.008-0.02-0.016-0.04-0.025-0.06
							c-0.009-0.02-0.018-0.039-0.029-0.06c-0.01-0.02-0.02-0.04-0.032-0.061c-0.001-0.001-0.001-0.003-0.002-0.004l-11.735-21.846
							l-1.61,1.842l11.735,21.846c0.085,0.158,0.133,0.291,0.148,0.399c0,0.001,0.001,0.003,0,0.004
							c0.015,0.108-0.003,0.19-0.051,0.245l0,0l0,0l0,0l1.61-1.842c0.021-0.024,0.036-0.052,0.045-0.085
							c0.007-0.023,0.01-0.047,0.012-0.074C293.709,283.211,293.708,283.189,293.706,283.166z"/>
						<path style="opacity:0.2;fill:#FFFFFF;" d="M281.785,260.834c-0.012-0.022-0.025-0.043-0.039-0.066
							c-0.014-0.022-0.027-0.044-0.042-0.066c-0.014-0.023-0.029-0.045-0.045-0.068c-0.015-0.023-0.032-0.047-0.048-0.07
							c-0.016-0.024-0.033-0.047-0.051-0.071c-0.017-0.023-0.035-0.047-0.053-0.071c-0.017-0.022-0.035-0.045-0.052-0.068
							c-0.017-0.022-0.034-0.043-0.052-0.065c-0.016-0.02-0.032-0.039-0.048-0.059c-0.014-0.017-0.028-0.033-0.042-0.05
							c-0.014-0.017-0.028-0.033-0.043-0.05c-0.012-0.013-0.023-0.026-0.035-0.04c-0.01-0.012-0.021-0.023-0.031-0.035
							c-0.01-0.012-0.021-0.023-0.032-0.035c-0.011-0.012-0.021-0.024-0.032-0.036c-0.009-0.009-0.017-0.018-0.025-0.027
							c-0.008-0.009-0.016-0.017-0.024-0.026c-0.008-0.009-0.016-0.017-0.024-0.026c-0.008-0.009-0.017-0.017-0.024-0.026
							c-0.008-0.009-0.016-0.017-0.025-0.026c-0.008-0.008-0.016-0.016-0.023-0.023c-0.007-0.007-0.014-0.015-0.021-0.022
							c-0.007-0.007-0.014-0.015-0.022-0.022c-0.007-0.007-0.014-0.015-0.022-0.022c-0.007-0.007-0.014-0.015-0.022-0.022
							c-0.007-0.007-0.015-0.015-0.022-0.022c-0.008-0.008-0.015-0.015-0.023-0.023c-0.008-0.008-0.016-0.016-0.024-0.024
							c-0.008-0.008-0.016-0.016-0.025-0.024c-0.008-0.008-0.016-0.016-0.025-0.024c-0.008-0.008-0.017-0.016-0.025-0.024
							c-0.008-0.008-0.017-0.016-0.025-0.024c-0.013-0.012-0.026-0.025-0.039-0.037c-0.014-0.014-0.029-0.028-0.044-0.041
							c-0.015-0.014-0.03-0.027-0.045-0.041c-0.056-0.051-0.113-0.102-0.17-0.152c-0.013-0.011-0.025-0.022-0.037-0.032
							c-0.013-0.011-0.025-0.021-0.037-0.032c-0.013-0.011-0.025-0.021-0.037-0.032c-0.012-0.01-0.025-0.021-0.037-0.031
							c-0.008-0.007-0.016-0.013-0.024-0.02c-0.008-0.007-0.016-0.013-0.025-0.02c-0.008-0.007-0.016-0.013-0.024-0.02
							c-0.008-0.007-0.016-0.013-0.024-0.02c-0.008-0.007-0.016-0.013-0.024-0.02c-0.008-0.007-0.016-0.013-0.025-0.02
							c-0.008-0.007-0.016-0.013-0.024-0.019c-0.008-0.006-0.016-0.012-0.024-0.019c-0.008-0.006-0.016-0.012-0.024-0.019
							c-0.008-0.006-0.016-0.013-0.024-0.018c-0.008-0.006-0.016-0.012-0.024-0.018c-0.008-0.006-0.016-0.012-0.024-0.018
							c-0.009-0.007-0.017-0.013-0.026-0.02c-0.009-0.007-0.019-0.015-0.029-0.022c-0.009-0.007-0.019-0.014-0.029-0.022
							c-0.01-0.008-0.019-0.014-0.029-0.022c-0.01-0.007-0.019-0.014-0.029-0.021c-0.01-0.007-0.02-0.014-0.03-0.022
							c-0.013-0.01-0.027-0.019-0.04-0.029c-0.013-0.01-0.027-0.019-0.04-0.029c-0.014-0.009-0.027-0.019-0.04-0.028
							c-0.015-0.01-0.029-0.02-0.044-0.03c-0.019-0.013-0.038-0.026-0.057-0.039c-0.019-0.013-0.038-0.025-0.057-0.037
							c-0.022-0.014-0.043-0.028-0.065-0.042c-0.024-0.015-0.047-0.03-0.071-0.045c-0.024-0.015-0.049-0.03-0.073-0.044
							c-0.026-0.015-0.051-0.03-0.077-0.045c-0.015-0.009-0.03-0.017-0.045-0.026l-13.491-7.589
							c-0.011-0.006-0.022-0.012-0.032-0.018c-0.026-0.014-0.052-0.028-0.078-0.042c-0.026-0.014-0.051-0.027-0.076-0.039
							c-0.025-0.013-0.05-0.024-0.074-0.036c-0.025-0.012-0.049-0.023-0.073-0.034c-0.024-0.011-0.048-0.021-0.071-0.031
							c-0.025-0.01-0.048-0.02-0.072-0.029c-0.024-0.009-0.047-0.018-0.07-0.026c-0.025-0.008-0.049-0.017-0.073-0.023
							c-0.025-0.008-0.05-0.014-0.074-0.02c-0.017-0.005-0.033-0.007-0.049-0.011c-0.002-0.001-0.003-0.001-0.005-0.001
							c-0.007-0.001-0.014-0.003-0.021-0.005c-0.028-0.005-0.055-0.009-0.08-0.011c-0.034-0.003-0.065-0.004-0.095-0.002
							c-0.091,0.005-0.16,0.033-0.204,0.083l-1.61,1.842c0.071-0.081,0.208-0.104,0.4-0.065c0.001,0,0.003,0.001,0.004,0.001
							c0.194,0.04,0.443,0.141,0.742,0.309l13.491,7.589c0.249,0.141,0.509,0.315,0.765,0.509c0.001,0,0.001,0.001,0.002,0.001
							c0.255,0.195,0.508,0.41,0.742,0.633c0,0,0.001,0.001,0.001,0.001c0.234,0.223,0.45,0.453,0.636,0.677
							c0.001,0.001,0.002,0.002,0.002,0.003c0.185,0.224,0.338,0.443,0.445,0.642l1.61-1.842
							C281.808,260.875,281.796,260.854,281.785,260.834z"/>
					</g>
					<path style="fill:#FFA8A7;" d="M339.788,215.216c-1.911-3.284-4.42-5.806-8.21-6.092c0,0-6.216,3.208-6.216,17.782
						l0.408,36.455l0.008,0.002c-0.894,0.364-1.784,0.741-2.674,1.111c-7.379,3.064-15.565,5.792-23.45,7.086
						c-3.96-3.342-9.608-5.077-14.789-5.019l1.991,3.706c-3.771,2.414-12.286-1.938-12.286-1.938
						c-0.625,5.314,2.817,10.831,7.382,13.622c4.565,2.791,48.144-1.307,57.386-7.292c6.076-3.934,4.64-41.52,4.64-41.52
						C344.399,226.867,342.941,220.632,339.788,215.216z"/>
					<path style="fill:#FFA8A7;" d="M265.356,257.309c-0.126,1.152-0.626,3.208-0.496,4.359c0.391,3.449,1.782,6.833,4.203,9.32
						c0.519,0.534,1.103,1.036,1.807,1.277c0.705,0.241,1.555,0.173,2.101-0.334c0.58-0.538,0.686-1.405,0.732-2.194
						c0.07-1.181,0.087-2.381-0.194-3.529c-0.281-1.149-0.89-2.255-1.861-2.931c-0.708-0.493-1.556-0.728-2.36-1.041
						c-0.804-0.313-1.468-0.845-2.104-1.523L265.356,257.309z"/>
					<path style="fill:#BA68C8;" d="M331.579,209.124c-7.444,4.051-6.69,14.489-6.69,25.902c0,12.545,0.882,28.334,0.882,28.334
						s-6.025,1.327-7.967,2.526c-0.246,0.152-0.693,0.923-0.693,0.923l1.045-0.385c4.492,3.082,4.862,9.484,3.4,13.351l-1.242,0.213
						l0,0c0.733,0.507,1.642,0.698,2.517,0.531c10.883-2.069,13.212-2.589,16.047-4.705c7.891-5.638,6.008-19.062,6.008-31.233
						C344.887,233.573,346.081,209.645,331.579,209.124z"/>
					<path style="opacity:0.4;" d="M331.579,209.124c-7.444,4.051-6.69,14.489-6.69,25.902c0,12.545,0.882,28.334,0.882,28.334
						s-6.025,1.327-7.967,2.526c-0.246,0.152-0.693,0.923-0.693,0.923l1.045-0.385c4.492,3.082,4.862,9.484,3.4,13.351l-1.242,0.213
						l0,0c0.733,0.507,1.642,0.698,2.517,0.531c10.883-2.069,13.212-2.589,16.047-4.705c7.891-5.638,6.008-19.062,6.008-31.233
						C344.887,233.573,346.081,209.645,331.579,209.124z"/>
					<path style="opacity:0.2;" d="M325.771,263.361c5.942-1.192,10.433,5.061,10.433,5.061c-1.85-9.82-8.14-7.751-10.433-5.945
						V263.361z"/>
				</g>
				<g>
					<g>
						<path style="fill:#FFA8A7;" d="M300.671,197.937v13.77c-1.35,1.274-2.64,2.734-2.766,4.553
							c-0.12,1.736,0.947,3.434,2.458,4.297c1.511,0.863,3.384,0.954,5.061,0.49c1.677-0.464,3.174-1.441,4.475-2.596
							c3.542-3.144,5.971-8.406,5.971-13.064v-13.945L300.671,197.937z"/>
						<path style="opacity:0.2;" d="M315.281,191.441c-1.434,7.578-4.388,14.14-14.61,16.498v-10.002L315.281,191.441z"/>
					</g>
					<path style="fill:#FFA8A7;" d="M311.718,183.454c-0.12,0.916-0.208,2.752-0.021,3.657c0.186,0.905,0.613,1.781,1.309,2.389
						c0.696,0.608,1.592,0.85,2.488,0.625c-0.577-2.359,0.973-5.035,3.307-5.707c2.334-0.673,5.07,0.766,5.838,3.07
						c0.551,1.653,0.141,3.524-0.793,4.995s-2.343,2.585-3.841,3.477c-1.785,0.736-3.852-0.052-4.878-1.688
						c-4.389,6.059-12.283,10.792-19.872,10.469c-2.062-0.088-4.154-0.598-5.836-1.793c-2.951-2.098-3.299-5.429-3.797-8.712
						c-0.63-4.157-0.918-8.395-0.417-12.582c0.454-3.792,1.61-7.572,3.567-10.83C294.596,178.36,309.31,170.071,311.718,183.454z"/>
					<g>
						<polygon style="fill:#F28F8F;" points="295.91,182.676 290.992,189.272 295.876,190.73 						"/>
						<path style="fill:#F28F8F;" d="M300.424,193.659c-1.326,0.481-2.653,0.962-3.979,1.443c0.461,0.918,1.809,1.438,2.785,1.118
							C300.206,195.899,300.598,194.671,300.424,193.659z"/>
						<path style="opacity:0.3;" d="M300.424,193.659c-1.326,0.481-2.653,0.962-3.979,1.443c0.461,0.918,1.809,1.438,2.785,1.118
							C300.206,195.899,300.598,194.671,300.424,193.659z"/>
						<path style="fill:#F28F8F;" d="M297.902,196.206c0.447,0.128,0.919,0.148,1.327,0.014c0.766-0.252,1.167-1.063,1.222-1.889
							c-0.538-0.054-1.094,0.065-1.547,0.362C298.384,195.035,298.029,195.597,297.902,196.206z"/>
						<path style="fill:#263238;" d="M303.096,183.714c-0.003,0.795-0.65,1.436-1.445,1.433c-0.795-0.003-1.436-0.65-1.433-1.445
							c0.004-0.795,0.651-1.436,1.445-1.433C302.458,182.272,303.099,182.919,303.096,183.714z"/>
						<path style="fill:#263238;" d="M291.017,183.197c-0.003,0.795-0.65,1.436-1.445,1.433c-0.795-0.003-1.436-0.65-1.433-1.445
							c0.003-0.795,0.65-1.436,1.445-1.433C290.379,181.756,291.021,182.402,291.017,183.197z"/>
						<path style="fill:#263238;" d="M289.641,177.465c-1.066,0.731-2.132,1.462-3.198,2.192c-0.313-0.758-0.004-1.739,0.632-2.255
							C287.712,176.886,288.964,177.003,289.641,177.465z"/>
						<path style="fill:#263238;" d="M301.963,177.343c1.06,0.74,2.12,1.479,3.181,2.219c0.318-0.755,0.019-1.739-0.614-2.26
							C303.897,176.78,302.644,176.887,301.963,177.343z"/>
					</g>
				</g>
				<path style="fill:#263238;" d="M326.919,206.496c0,3.214-2.605,5.819-5.819,5.819s-5.819-2.605-5.819-5.819
					c0-3.214,2.605-5.819,5.819-5.819S326.919,203.282,326.919,206.496z"/>
				<path style="fill:#263238;" d="M323.331,213.778c0,2.91-2.359,5.27-5.27,5.27c-2.91,0-5.27-2.359-5.27-5.27
					c0-2.911,2.359-5.27,5.27-5.27C320.972,208.508,323.331,210.867,323.331,213.778z"/>
				<circle style="fill:#263238;" cx="314.853" cy="219.199" r="4.746"/>
				<path style="fill:#263238;" d="M316.14,223.944c0,2.254-1.828,4.082-4.082,4.082c-2.254,0-4.082-1.827-4.082-4.082
					c0-2.254,1.827-4.082,4.082-4.082C314.312,219.862,316.14,221.69,316.14,223.944z"/>
				<path style="fill:#263238;" d="M314.816,229.159c0,1.997-1.619,3.616-3.616,3.616c-1.997,0-3.616-1.619-3.616-3.616
					c0-1.997,1.619-3.616,3.616-3.616C313.197,225.543,314.816,227.162,314.816,229.159z"/>
				<path style="fill:#263238;" d="M311.621,230.541c-0.881,0.407-1.591,1.171-1.932,2.079c-0.341,0.908-0.31,1.951,0.084,2.837
					c0.419,0.942,1.218,1.691,1.555,2.665c0.409,1.181,0.016,2.596-0.944,3.397c1.383-0.389,2.717-0.841,3.824-1.757
					c1.107-0.916,1.974-2.154,2.311-3.552c0.337-1.397,0.106-2.951-0.743-4.11C314.927,230.941,312.926,229.939,311.621,230.541z"/>
			</g>
		</g>
		<g>
			<path style="fill:#455A64;" d="M378.29,258.715l-62.827,48.665c-3.873,3-6.333,7.467-6.799,12.344l-7.046,73.842
				c1.368,1.294,2.921,0.259,2.921,0.259l12.518-74.132c0.432-2.559,1.962-4.8,4.188-6.134l55.528-33.276
				C384.028,275.959,385.308,260.658,378.29,258.715z"/>
			<path style="opacity:0.3;fill:#FFFFFF;" d="M378.29,258.715l-62.827,48.665c-3.873,3-6.333,7.467-6.799,12.344l-7.046,73.842
				c1.368,1.294,2.921,0.259,2.921,0.259l12.518-74.132c0.432-2.559,1.962-4.8,4.188-6.134l55.528-33.276
				C384.028,275.959,385.308,260.658,378.29,258.715z"/>
		</g>
	</g>
</g>
<g id="Sidetable">
	<g>
		<g>
			<polygon style="fill:#E6E6E6;" points="366.283,387.893 361.838,390.476 361.852,385.335 			"/>
			<polygon style="fill:#787878;" points="361.961,360.457 361.961,360.401 361.961,360.401 361.961,360.401 			"/>
			<rect x="383.584" y="347.917" style="fill:#CFCFCF;" width="0" height="49.938"/>
			<polygon style="fill:#CFCFCF;" points="362.032,335.44 405.279,360.409 405.279,360.409 			"/>
			<path style="fill:#E0E0E0;" d="M366.283,387.893l38.897,22.457l-0.014,5.141l4.629,2.673l0.171-60.42l-52.585-30.36l-0.172,60.42
				l4.63,2.673l0.014-5.141L366.283,387.893z M405.223,380.007l-43.247-24.969l0.055-19.598l43.247,24.969l0,0l0,0L405.223,380.007z
				 M405.152,404.963l-43.247-24.969l0.055-19.537l0-0.056l0,0l43.247,24.969l0,0l0,0L405.152,404.963z"/>
			<polygon style="fill:#E0E0E0;" points="361.905,379.994 361.961,360.457 361.961,360.401 405.208,385.37 405.208,385.37 
				405.152,404.963 			"/>
			<polygon style="fill:#E0E0E0;" points="361.976,355.038 362.032,335.44 405.279,360.409 405.279,360.409 405.223,380.007 			"/>
			<polygon style="fill:#E0E0E0;" points="409.965,357.743 455.874,331.065 455.702,391.484 409.794,418.163 			"/>
			<polygon style="fill:#E0E0E0;" points="409.965,357.743 357.38,327.383 403.288,300.704 455.874,331.065 			"/>
			<polygon style="opacity:0.2;fill:#FFFFFF;" points="366.283,387.893 361.838,390.476 361.852,385.335 			"/>
			<polygon style="fill:#787878;" points="361.961,360.457 361.961,360.401 361.961,360.401 361.961,360.401 			"/>
			<rect x="383.584" y="347.917" style="fill:#CFCFCF;" width="0" height="49.938"/>
			<polygon style="fill:#CFCFCF;" points="362.032,335.44 405.279,360.409 405.279,360.409 			"/>
			<polygon style="opacity:0.8;fill:#FFFFFF;" points="361.905,379.994 361.961,360.457 361.961,360.401 405.208,385.37 
				405.208,385.37 405.152,404.963 			"/>
			<polygon style="opacity:0.8;fill:#FFFFFF;" points="361.976,355.038 362.032,335.44 405.279,360.409 405.279,360.409 
				405.223,380.007 			"/>
			<polygon style="fill:#E0E0E0;" points="376.129,350.87 376.148,348.164 391.126,356.811 391.126,356.811 391.107,359.517 			"/>
			<polygon style="fill:#E0E0E0;" points="376.129,375.479 376.148,372.773 391.126,381.421 391.126,381.421 391.107,384.127 			"/>
			<polygon style="opacity:0.2;fill:#FFFFFF;" points="409.965,357.743 455.874,331.065 455.702,391.484 409.794,418.163 			"/>
			<polygon style="opacity:0.4;fill:#FFFFFF;" points="409.965,357.743 357.38,327.383 403.288,300.704 455.874,331.065 			"/>
		</g>
		<g>
			<path style="opacity:0.05;" d="M420.164,316.29c-5.839-3.371-15.274-3.371-21.075,0c-5.801,3.371-5.77,8.837,0.068,12.208
				c5.839,3.371,15.275,3.371,21.076,0C426.034,325.127,426.003,319.661,420.164,316.29z"/>
			<g>
				<g>
					<path style="fill:#FFFFFF;" d="M425.226,295.078l-16.018,0.467l-16.018-0.467c-0.69,10.817,1.422,21.842,4.334,27.226
						l0.011-0.002c0.521,1.182,1.569,2.302,3.171,3.227c4.727,2.729,12.365,2.729,17.06,0c1.628-0.946,2.675-2.098,3.169-3.31
						C423.824,316.806,425.913,305.842,425.226,295.078z"/>
					<g>
						<path style="fill:#EBEBEB;" d="M420.497,288.517c6.276,3.623,6.309,9.498,0.074,13.121c-6.236,3.624-16.377,3.624-22.654,0
							c-6.276-3.623-6.309-9.498-0.073-13.122C404.08,284.894,414.222,284.894,420.497,288.517z"/>
					</g>
					<g>
						<path style="fill:#E0E0E0;" d="M418.016,289.959c4.896,2.827,4.922,7.41,0.058,10.237c-4.865,2.827-12.777,2.827-17.674,0
							c-4.896-2.827-4.922-7.41-0.057-10.237C405.207,287.133,413.12,287.133,418.016,289.959z"/>
					</g>
					<g style="opacity:0.15;">
						<path d="M418.016,289.959c4.896,2.827,4.922,7.41,0.058,10.237c-4.865,2.827-12.777,2.827-17.674,0
							c-4.896-2.827-4.922-7.41-0.057-10.237C405.207,287.133,413.12,287.133,418.016,289.959z"/>
					</g>
				</g>
				<g>
					<path style="fill:#BA68C8;" d="M407.872,295.53c2.689,2.204,6.291,3.021,9.395,2.137c3.096-0.882,5.618-3.435,6.585-6.658
						c-1.958-0.851-3.5-2.105-5.143-3.568c2.289-0.604,4.946-0.509,7.28,0.257c1.262-1.924,1.585-4.696,0.549-6.943
						c-2.762-1.212-5.935-1.438-8.684-0.601c2.434-2.108,5.527-3.087,8.781-2.768c0.32-7.872-2.109-13.49-2.109-13.49
						c-5.973,0.311-11.762,2.885-13.715,4.736c-0.332,2.389,0.661,6.344,0.661,6.344c-2.728-1.513-2.775-4.103-2.775-4.103
						c-3.737,0.935-5.335,2.801-5.919,4.223c0.275,2.34,2.434,6.252,3.538,7.168c-3.51-1.061-4.933-4.97-4.933-4.97
						C397.933,285.475,398.591,294.734,407.872,295.53z"/>
					<path style="opacity:0.2;" d="M407.872,295.53c2.689,2.204,6.291,3.021,9.395,2.137c3.096-0.882,5.618-3.435,6.585-6.658
						c-1.958-0.851-3.5-2.105-5.143-3.568c2.289-0.604,4.946-0.509,7.28,0.257c1.262-1.924,1.585-4.696,0.549-6.943
						c-2.762-1.212-5.935-1.438-8.684-0.601c2.434-2.108,5.527-3.087,8.781-2.768c0.32-7.872-2.109-13.49-2.109-13.49
						c-5.973,0.311-11.762,2.885-13.715,4.736c-0.332,2.389,0.661,6.344,0.661,6.344c-2.728-1.513-2.775-4.103-2.775-4.103
						c-3.737,0.935-5.335,2.801-5.919,4.223c0.275,2.34,2.434,6.252,3.538,7.168c-3.51-1.061-4.933-4.97-4.933-4.97
						C397.933,285.475,398.591,294.734,407.872,295.53z"/>
					<path style="opacity:0.3;fill:#FFFFFF;" d="M407.872,295.53c2.689,2.204,6.291,3.021,9.395,2.137
						c3.096-0.882,5.618-3.435,6.585-6.658c-1.958-0.851-3.5-2.105-5.143-3.568c2.289-0.604,4.946-0.509,7.28,0.257
						c1.262-1.924,1.585-4.696,0.549-6.943c-2.762-1.212-5.935-1.438-8.684-0.601c2.434-2.108,5.527-3.087,8.781-2.768
						c0.32-7.872-2.109-13.49-2.109-13.49c-5.973,0.311-11.762,2.885-13.715,4.736c-0.332,2.389,0.661,6.344,0.661,6.344
						c-2.728-1.513-2.775-4.103-2.775-4.103c-3.737,0.935-5.335,2.801-5.919,4.223c0.275,2.34,2.434,6.252,3.538,7.168
						c-3.51-1.061-4.933-4.97-4.933-4.97C397.933,285.475,398.591,294.734,407.872,295.53z"/>
					<g>
						<path style="fill:#F5F5F5;" d="M407.663,296.417c-0.009,0-0.017,0-0.027-0.001c-0.19-0.015-0.332-0.18-0.318-0.37
							c0.57-7.542,4.886-19.992,15.173-30.261c0.135-0.134,0.353-0.135,0.488,0.001c0.135,0.135,0.135,0.353,0,0.488
							c-10.154,10.135-14.411,22.401-14.972,29.825C407.992,296.279,407.841,296.417,407.663,296.417z"/>
					</g>
				</g>
				<g>
					<path style="fill:#BA68C8;" d="M410.485,299.566c-2.385,1.946-5.718,2.669-8.694,1.886c-2.977-0.783-5.523-3.051-6.642-5.919
						c1.802-0.752,3.181-1.863,4.643-3.158c-2.203-0.545-4.714-0.47-6.881,0.203c-1.322-1.72-1.806-4.194-0.964-6.193
						c2.548-1.065,5.542-1.247,8.197-0.485c-2.435-1.892-5.431-2.786-8.503-2.523c-0.807-7.04,1.148-12.043,1.148-12.043
						c5.693,0.345,11.328,2.703,13.283,4.37c0.46,2.128-0.23,5.635-0.23,5.635c2.473-1.322,2.358-3.623,2.358-3.623
						c3.566,0.862,5.176,2.53,5.808,3.795c-0.115,2.07-1.898,5.52-2.875,6.325c3.22-0.92,4.313-4.37,4.313-4.37
						C419.154,290.714,419.097,298.873,410.485,299.566z"/>
					<path style="opacity:0.3;fill:#FFFFFF;" d="M410.485,299.566c-2.385,1.946-5.718,2.669-8.694,1.886
						c-2.977-0.783-5.523-3.051-6.642-5.919c1.802-0.752,3.181-1.863,4.643-3.158c-2.203-0.545-4.714-0.47-6.881,0.203
						c-1.322-1.72-1.806-4.194-0.964-6.193c2.548-1.065,5.542-1.247,8.197-0.485c-2.435-1.892-5.431-2.786-8.503-2.523
						c-0.807-7.04,1.148-12.043,1.148-12.043c5.693,0.345,11.328,2.703,13.283,4.37c0.46,2.128-0.23,5.635-0.23,5.635
						c2.473-1.322,2.358-3.623,2.358-3.623c3.566,0.862,5.176,2.53,5.808,3.795c-0.115,2.07-1.898,5.52-2.875,6.325
						c3.22-0.92,4.313-4.37,4.313-4.37C419.154,290.714,419.097,298.873,410.485,299.566z"/>
					<g>
						<path style="fill:#FFFFFF;" d="M410.713,300.389c-0.168,0-0.315-0.123-0.34-0.294c-0.98-6.567-5.751-17.467-15.975-26.575
							c-0.142-0.127-0.154-0.345-0.027-0.487c0.126-0.143,0.344-0.155,0.487-0.028c10.361,9.231,15.201,20.308,16.198,26.989
							c0.028,0.189-0.102,0.364-0.29,0.392C410.748,300.388,410.73,300.389,410.713,300.389z"/>
					</g>
				</g>
			</g>
		</g>
	</g>
</g>
<g id="Offer">
	<g>
		<g>
			<path style="fill:#BA68C8;" d="M279.14,79.887c-0.001-0.396-0.217-0.717-0.517-0.889l0,0l-4.61-2.56
				c-0.007-0.004-0.015-0.008-0.022-0.013l-0.017-0.009v0.002c-0.295-0.158-0.665-0.178-0.996,0.013l-56.547,32.695
				c-0.573,0.331-1.01,0.832-1.27,1.417c-0.174,0.391-0.272,0.819-0.271,1.261l0.033,16.931l-10.921,11.293
				c-0.98,1.014-1.085,2.542-0.324,2.782l4.356,2.401c0.139,0.149,0.336,0.228,0.597,0.196l6.338-0.772l0.024,13.602
				c0.001,0.389,0.21,0.704,0.502,0.878l-0.001,0.001l0.006,0.004c0.006,0.003,0.012,0.006,0.018,0.01l4.584,2.544
				c0.022,0.013,0.043,0.025,0.066,0.037c0.016,0.008,0.034,0.013,0.05,0.021c0.285,0.13,0.627,0.14,0.936-0.039l56.547-32.695
				c0.956-0.552,1.544-1.574,1.541-2.678L279.14,79.887z M220.326,112.285c-0.035,0.039-0.07,0.078-0.103,0.118
				C220.256,112.363,220.29,112.324,220.326,112.285z M220.028,112.667c-0.025,0.038-0.052,0.074-0.075,0.113
				C219.977,112.741,220.004,112.705,220.028,112.667z M219.589,113.701c-0.01,0.043-0.018,0.087-0.026,0.131
				C219.571,113.787,219.58,113.744,219.589,113.701z M220.559,112.058c0.036-0.032,0.07-0.064,0.107-0.094
				C220.629,111.993,220.595,112.026,220.559,112.058z"/>
			<path style="opacity:0.1;" d="M219.614,160.806c0.001,0.382,0.204,0.692,0.488,0.868l-4.584-2.544
				c-0.006-0.003-0.012-0.006-0.018-0.01l-0.006-0.004l0.001-0.001c-0.292-0.174-0.501-0.489-0.502-0.878l-0.024-13.602l4.612-0.562
				L219.614,160.806z"/>
			<path style="opacity:0.2;fill:#FFFFFF;" d="M216.431,109.127l56.547-32.695c0.331-0.191,0.701-0.171,0.996-0.013v-0.002
				l0.017,0.009c0.008,0.004,0.015,0.008,0.022,0.013l4.61,2.56l0,0c-0.299-0.171-0.683-0.195-1.023,0.002l-56.547,32.695
				c-0.599,0.346-1.053,0.875-1.308,1.494l-4.583-2.646C215.421,109.959,215.858,109.458,216.431,109.127z"/>
			<path style="opacity:0.1;fill:#FFFFFF;" d="M214.923,128.736l-0.033-16.931c-0.001-0.443,0.096-0.87,0.271-1.261l4.583,2.646
				c-0.152,0.37-0.234,0.771-0.233,1.184l0.033,16.931L214.923,128.736L214.923,128.736z"/>
			<path style="opacity:0.05;fill:#FFFFFF;" d="M204.002,140.029l10.921-11.293l4.621,2.568l0,0l-10.921,11.293
				c-0.845,0.875-1.039,2.13-0.589,2.614l-4.356-2.401C202.917,142.572,203.022,141.044,204.002,140.029z"/>
		</g>
		<g>
			<g>
				<polygon style="fill:#FFFFFF;" points="229.963,128.348 229.982,135.114 228.611,135.906 226.005,133.797 226.015,137.405 
					224.379,138.349 224.36,131.584 225.73,130.792 228.343,132.897 228.333,129.289 				"/>
			</g>
			<g>
				<path style="fill:#FFFFFF;" d="M234.12,125.811c1.889-1.09,3.277-0.401,3.282,1.631c0.006,2.033-1.374,4.32-3.262,5.41
					c-1.883,1.087-3.277,0.401-3.282-1.631C230.851,129.188,232.237,126.897,234.12,125.811z M234.135,131.269
					c0.891-0.514,1.59-1.689,1.586-2.857c-0.003-1.169-0.707-1.526-1.597-1.012c-0.891,0.514-1.59,1.681-1.587,2.85
					C232.541,131.419,233.244,131.784,234.135,131.269"/>
			</g>
			<g>
				<path style="fill:#FFFFFF;" d="M243.784,130.905c1.876-1.083,3.252-0.263,3.26,2.532c0.008,2.795-1.358,5.198-3.235,6.281
					c-1.882,1.087-3.258,0.267-3.266-2.528C240.535,134.395,241.901,131.992,243.784,130.905z M243.803,137.758
					c0.663-0.383,1.148-1.332,1.143-3.11c-0.005-1.778-0.493-2.165-1.157-1.783c-0.67,0.387-1.154,1.335-1.149,3.114
					C242.645,137.757,243.134,138.144,243.803,137.758"/>
			</g>
			<g>
				<polygon style="fill:#FFFFFF;" points="247.317,118.329 245.422,126.2 243.64,127.228 242.498,123.765 241.335,128.56 
					239.547,129.592 237.62,123.928 239.338,122.936 240.532,126.573 241.77,121.532 243.299,120.649 244.499,124.326 
					245.725,119.248 				"/>
			</g>
			<g>
				<path style="fill:#FFFFFF;" d="M253.47,114.639c1.882-1.087,3.277-0.401,3.282,1.631c0.006,2.033-1.38,4.323-3.262,5.41
					c-1.889,1.091-3.283,0.405-3.289-1.628C250.195,118.02,251.581,115.729,253.47,114.639z M253.485,120.098
					c0.891-0.514,1.59-1.689,1.587-2.857c-0.003-1.169-0.707-1.526-1.598-1.012c-0.897,0.518-1.59,1.681-1.587,2.85
					C251.891,120.247,252.588,120.615,253.485,120.098"/>
			</g>
			<g>
				<path style="fill:#FFFFFF;" d="M264.107,119.171c1.87-1.08,3.245-0.26,3.253,2.535c0.008,2.795-1.358,5.198-3.228,6.277
					c-1.889,1.09-3.258,0.267-3.266-2.528C260.858,122.661,262.218,120.262,264.107,119.171z M264.126,126.024
					c0.663-0.383,1.141-1.328,1.137-3.107c-0.005-1.779-0.487-2.169-1.151-1.786c-0.676,0.39-1.154,1.335-1.149,3.114
					C262.968,126.023,263.451,126.414,264.126,126.024"/>
			</g>
			<g>
				<polygon style="fill:#FFFFFF;" points="263.231,109.142 263.25,115.907 261.879,116.699 259.266,114.593 259.276,118.201 
					257.64,119.146 257.621,112.38 258.998,111.585 261.605,113.694 261.594,110.086 				"/>
			</g>
			<g>
				<polygon style="fill:#FFFFFF;" points="274.368,102.711 272.119,108.358 272.126,110.783 270.458,111.745 270.451,109.292 
					268.196,106.275 269.952,105.261 271.356,107.14 272.751,103.645 				"/>
			</g>
			<g>
				<path style="fill:#FFFFFF;" d="M271.315,115.01c1.876-1.083,3.252-0.263,3.26,2.532c0.008,2.795-1.359,5.198-3.235,6.281
					c-1.883,1.087-3.258,0.267-3.266-2.528C268.066,118.499,269.432,116.097,271.315,115.01z M271.335,121.862
					c0.663-0.383,1.148-1.332,1.143-3.11c-0.005-1.778-0.493-2.165-1.157-1.783c-0.67,0.387-1.154,1.335-1.149,3.114
					C270.177,121.862,270.665,122.249,271.335,121.862"/>
			</g>
			<g>
				<polygon style="fill:#FFFFFF;" points="266.08,107.496 266.095,112.745 268.906,111.122 268.91,112.639 264.431,115.225 
					264.412,108.459 				"/>
			</g>
			<g>
				<path style="fill:#FFFFFF;" d="M228.145,138.654l0.004,1.307c0.784-0.38,1.549-0.581,2.144-0.525l-0.639,2.15
					c-0.709-0.027-1.398,0.153-2.042,0.525c-0.878,0.507-1.187,1.027-1.186,1.448c0.004,1.292,4.177-2.084,4.186,1.037
					c0.004,1.285-0.796,2.859-2.437,4.083l0.004,1.343l-1.263,0.729l-0.004-1.292c-1.049,0.518-2.048,0.746-2.662,0.614l0.677-2.158
					c0.652,0.118,1.582-0.077,2.435-0.569c0.866-0.5,1.2-0.969,1.198-1.383c-0.004-1.343-4.19,2.055-4.198-1.088
					c-0.004-1.336,0.827-2.942,2.525-4.163l-0.004-1.328L228.145,138.654z"/>
			</g>
			<g>
				<path style="fill:#FFFFFF;" d="M236.866,134.899c1.699-0.981,2.871-0.647,2.875,0.921c0.002,0.827-0.198,1.692-1.25,3.412
					l-1.386,2.283l2.843-1.641l0.005,1.895l-5.736,3.312l-0.004-1.495l2.752-4.563c0.586-0.963,0.667-1.403,0.666-1.751
					c-0.002-0.544-0.318-0.689-0.95-0.324c-0.537,0.31-1.016,0.863-1.312,1.579l-1.55-0.094
					C234.373,137.044,235.413,135.738,236.866,134.899z"/>
			</g>
			<g>
				<path style="fill:#FFFFFF;" d="M250.998,126.74c1.876-1.083,3.245-0.259,3.253,2.535c0.008,2.795-1.352,5.194-3.228,6.277
					c-1.883,1.087-3.258,0.267-3.266-2.528C247.749,130.229,249.116,127.826,250.998,126.74z M251.018,133.592
					c0.663-0.383,1.148-1.332,1.143-3.11c-0.005-1.778-0.493-2.166-1.157-1.783c-0.676,0.39-1.154,1.335-1.149,3.114
					C249.86,133.592,250.342,133.982,251.018,133.592"/>
			</g>
			<g>
				<path style="fill:#FFFFFF;" d="M255.962,129.909c0.689-0.398,1.195-0.152,1.198,0.668c0.001,0.341-0.042,0.628-0.344,1.594
					l-0.658,2.147l-1.257,0.726l0.493-2.263c-0.38,0.016-0.627-0.256-0.629-0.822C254.763,131.139,255.267,130.31,255.962,129.909z"
					/>
			</g>
			<g>
				<path style="fill:#FFFFFF;" d="M230.134,114.965l0.005,1.924l-3.083,1.78l-0.091,1.332l0.512-0.295
					c2.262-1.306,3.149-0.611,3.154,0.942c0.004,1.568-1.021,3.593-3.327,4.924c-1.055,0.609-2.18,0.961-2.959,0.843l0.772-2.314
					c0.62,0.114,1.386-0.073,2.118-0.496c0.733-0.423,1.225-1.049,1.223-1.637c-0.001-0.537-0.318-0.711-1.487-0.036l-2.078,1.2
					l0.371-5.355L230.134,114.965z"/>
			</g>
			<g>
				<path style="fill:#FFFFFF;" d="M234.606,112.209c1.946-1.123,3.372-0.274,3.38,2.622c0.008,2.896-1.408,5.387-3.354,6.51
					c-1.952,1.127-3.378,0.278-3.386-2.618C231.237,115.826,232.654,113.336,234.606,112.209z M234.626,119.308
					c0.689-0.398,1.192-1.379,1.187-3.223c-0.005-1.844-0.512-2.242-1.201-1.844c-0.695,0.401-1.198,1.383-1.193,3.227
					C233.424,119.312,233.931,119.71,234.626,119.308"/>
			</g>
			<g>
				<path style="fill:#FFFFFF;" d="M245.945,109.872c1.137-0.657,1.967-0.22,1.972,1.297c0.004,1.532-0.821,2.917-1.958,3.574
					c-1.137,0.657-1.955,0.22-1.959-1.312C243.996,111.914,244.808,110.529,245.945,109.872z M245.956,113.553
					c0.36-0.208,0.643-0.728,0.641-1.621c-0.003-0.886-0.288-1.077-0.648-0.869c-0.36,0.208-0.643,0.728-0.641,1.613
					C245.31,113.569,245.596,113.761,245.956,113.553"/>
			</g>
			<g>
				<polygon style="fill:#FFFFFF;" points="245.062,106.347 246.635,105.439 241.435,117.239 239.862,118.147 				"/>
			</g>
			<g>
				<path style="fill:#FFFFFF;" d="M242.51,110.147c0.004,1.532-0.821,2.91-1.958,3.566c-1.125,0.649-1.955,0.227-1.959-1.305
					c-0.004-1.517,0.821-2.91,1.945-3.559C241.676,108.193,242.506,108.63,242.51,110.147z M239.901,111.653
					c0.002,0.893,0.3,1.07,0.648,0.869c0.373-0.215,0.643-0.72,0.641-1.613c-0.003-0.893-0.275-1.084-0.648-0.869
					C240.194,110.241,239.898,110.76,239.901,111.653"/>
			</g>
			<g>
				<path style="fill:#FFFFFF;" d="M255.94,99.892c2.445-1.412,4.251-0.52,4.258,2.115c0.007,2.635-1.787,5.605-4.232,7.017
					c-2.451,1.415-4.257,0.524-4.265-2.111C251.694,104.277,253.489,101.307,255.94,99.892z M255.96,106.969
					c1.156-0.667,2.057-2.183,2.052-3.701c-0.004-1.517-0.91-1.99-2.066-1.323c-1.162,0.671-2.063,2.187-2.059,3.704
					C253.892,107.168,254.798,107.641,255.96,106.969"/>
			</g>
			<g>
				<polygon style="fill:#FFFFFF;" points="267.318,93.497 267.324,95.421 263.489,97.635 263.495,99.566 266.868,97.618 
					266.874,99.535 263.5,101.482 263.508,104.495 261.348,105.742 261.323,96.959 				"/>
			</g>
			<g>
				<polygon style="fill:#FFFFFF;" points="274.331,89.449 274.336,91.372 270.501,93.586 270.507,95.517 273.88,93.569 
					273.886,95.486 270.512,97.434 270.521,100.446 268.36,101.694 268.335,92.91 				"/>
			</g>
		</g>
	</g>
</g>
<g id="Speech_bubbles">
	<g>
		<g>
			<path style="fill:#BA68C8;" d="M328.388,102.469l-25.716,14.753c-0.799,0.458-1.434,1.121-1.87,1.896
				c-0.416,0.739-0.652,1.58-0.652,2.457v18.712c0,3.368,3.814,6.234,7.582,4.082l4.468-2.553l0.404,0.655
				c0.017,0.028,0.043,0.04,0.066,0.059l-0.003,0.009c0.015,0.01,0.034,0.021,0.049,0.032c0.004,0.002,0.008,0.006,0.013,0.008
				c0.736,0.487,2.029,1.181,2.32,1.331l-0.007-0.019c0.134,0.038,0.288-0.017,0.342-0.168l1.645-4.665h0l16.414-9.38
				c1.564-0.894,2.529-2.557,2.529-4.358v-18.77C335.972,102.929,330.641,101.177,328.388,102.469z"/>
			<path style="fill:none;" d="M307.142,120.268c-0.001,0.001-0.002,0.002-0.003,0.003
				C307.14,120.27,307.141,120.269,307.142,120.268z"/>
			<path style="opacity:0.2;fill:#FFFFFF;" d="M312.605,142.471c0.017,0.028,0.043,0.04,0.066,0.059l-0.003,0.009
				c0.015,0.01,0.034,0.021,0.049,0.032c0.004,0.002,0.008,0.006,0.013,0.008c0.736,0.487,2.029,1.181,2.32,1.331l-0.007-0.019
				c-0.063-0.018-0.122-0.05-0.162-0.114l-1.593-2.581l0.315-0.18l0,0l-1.402,0.801L312.605,142.471z"/>
			<path style="opacity:0.4;fill:#FFFFFF;" d="M305.795,121.955c0.326-0.645,0.775-1.225,1.344-1.684
				c0.001-0.001,0.002-0.002,0.003-0.003c0.19-0.153,0.393-0.292,0.609-0.416l25.715-14.753c1.115-0.64,2.506,0.165,2.506,1.451
				c0-3.621-5.331-5.373-7.584-4.08l-25.716,14.753c-0.799,0.458-1.434,1.121-1.87,1.896L305.795,121.955z"/>
			<path style="opacity:0.2;fill:#FFFFFF;" d="M305.229,142.917v-18.712c0-0.2,0.014-0.398,0.039-0.593
				c0.077-0.583,0.265-1.14,0.526-1.657l-4.992-2.836c-0.416,0.739-0.652,1.58-0.652,2.457v18.712c0,3.368,3.814,6.235,7.582,4.082
				C306.617,145.007,305.229,144.202,305.229,142.917z"/>
		</g>
		<g>
			<g>
				<path style="fill:#BA68C8;" d="M317.824,124.922c0.389-0.224,0.703-0.045,0.704,0.401l0,0.204l0.017,5.804l0.003,0.98
					c0.001,0.447-0.311,0.992-0.7,1.216l-3.495,2.018c-0.389,0.225-0.707,0.043-0.708-0.404l-0.02-6.988
					c-0.001-0.447,0.315-0.99,0.704-1.214L317.824,124.922z M316.513,133.342c0.408-0.235,0.735-0.807,0.734-1.275
					c-0.001-0.469-0.331-0.656-0.739-0.421c-0.408,0.235-0.739,0.804-0.737,1.273C315.772,133.388,316.106,133.578,316.513,133.342"
					/>
			</g>
			<g style="opacity:0.5;">
				<path style="fill:#FFFFFF;" d="M317.824,124.922c0.389-0.224,0.703-0.045,0.704,0.401l0,0.204l0.017,5.804l0.003,0.98
					c0.001,0.447-0.311,0.992-0.7,1.216l-3.495,2.018c-0.389,0.225-0.707,0.043-0.708-0.404l-0.02-6.988
					c-0.001-0.447,0.315-0.99,0.704-1.214L317.824,124.922z M316.513,133.342c0.408-0.235,0.735-0.807,0.734-1.275
					c-0.001-0.469-0.331-0.656-0.739-0.421c-0.408,0.235-0.739,0.804-0.737,1.273C315.772,133.388,316.106,133.578,316.513,133.342"
					/>
			</g>
			<g>
				<path style="fill:#FFFFFF;" d="M321.385,115.155c1.529-0.883,2.745-0.099,2.655,1.708l-0.143,2.863l4.065-2.347
					c1.389-0.802,1.689,1.049,0.752,2.36c0.95,0.273,0.671,1.889-0.188,2.924c0.791,0.356,0.093,2.179-0.873,2.937
					c0.632,0.261,0.09,2.216-1.024,2.859c-1.113,0.643-3.85,2.223-3.994,2.306l-2.525,1.458c-0.861,0.497-1.561,0.097-1.564-0.891
					l-0.017-5.804l1.596-3.876c0.83-2.017,1.266-4.046,1.261-5.855L321.385,115.155z"/>
			</g>
		</g>
	</g>
	<g>
		<path style="fill:#BA68C8;" d="M382.521,157.174c-0.001-0.252-0.138-0.456-0.329-0.565l0,0l-2.93-1.628
			c-0.005-0.003-0.009-0.005-0.014-0.008l-0.011-0.006v0.002c-0.188-0.1-0.423-0.113-0.633,0.008l-25.416,14.619
			c-0.364,0.21-0.642,0.529-0.807,0.9c-0.111,0.249-0.173,0.52-0.172,0.802l0.021,7.458l-6.942,7.179
			c-0.623,0.645-0.69,1.616-0.206,1.769l2.769,1.526c0.088,0.095,0.214,0.145,0.379,0.125l4.029-0.491l0.015,5.476
			c0.001,0.247,0.134,0.447,0.319,0.558l0,0l0.004,0.002c0.004,0.002,0.008,0.004,0.011,0.006l2.914,1.617
			c0.014,0.008,0.028,0.016,0.042,0.023c0.01,0.005,0.022,0.008,0.032,0.013c0.181,0.083,0.398,0.089,0.595-0.024l25.416-14.619
			c0.608-0.351,0.982-1,0.98-1.702L382.521,157.174z M355.664,171.604c-0.022,0.025-0.044,0.049-0.066,0.075
			C355.62,171.653,355.642,171.628,355.664,171.604z M355.475,171.846c-0.016,0.024-0.033,0.047-0.048,0.072
			C355.442,171.894,355.459,171.871,355.475,171.846z M355.196,172.504c-0.006,0.028-0.012,0.055-0.017,0.083
			C355.184,172.559,355.19,172.531,355.196,172.504z M355.812,171.46c0.023-0.02,0.044-0.041,0.068-0.06
			C355.857,171.419,355.835,171.439,355.812,171.46z"/>
		<path style="opacity:0.1;" d="M355.211,195.972c0.001,0.243,0.13,0.44,0.31,0.551l-2.914-1.617
			c-0.004-0.002-0.007-0.004-0.011-0.006l-0.004-0.002l0,0c-0.186-0.111-0.318-0.311-0.319-0.558l-0.015-5.476l2.932-0.357
			L355.211,195.972z"/>
		<path style="opacity:0.2;fill:#FFFFFF;" d="M353.188,169.596l25.416-14.619c0.21-0.121,0.445-0.109,0.633-0.008v-0.002
			l0.011,0.006c0.005,0.003,0.009,0.005,0.014,0.008l2.93,1.628l0,0c-0.19-0.109-0.434-0.124-0.651,0.001l-25.416,14.619
			c-0.381,0.22-0.669,0.556-0.832,0.95l-2.913-1.682C352.546,170.125,352.824,169.807,353.188,169.596z"/>
		<path style="opacity:0.1;fill:#FFFFFF;" d="M352.23,178.757l-0.021-7.458c-0.001-0.281,0.061-0.553,0.172-0.802l2.913,1.682
			c-0.097,0.235-0.149,0.49-0.148,0.753l0.021,7.458L352.23,178.757L352.23,178.757z"/>
		<path style="opacity:0.05;fill:#FFFFFF;" d="M345.288,185.936l6.942-7.179l2.937,1.633l0,0l-6.943,7.179
			c-0.537,0.556-0.66,1.354-0.374,1.662l-2.769-1.526C344.598,187.552,344.664,186.581,345.288,185.936z"/>
		<g>
			<path style="fill:#FFFFFF;" d="M373.052,166.544c1.129-0.652,2.259-0.809,3.122-0.317c1.733,0.98,1.742,4.19,0.02,7.165
				l-1.002,1.744l-6.215,10.764l-6.262-3.561l-1.009-0.583c-1.733-0.98-1.742-4.19-0.02-7.165c0.858-1.485,1.985-2.631,3.113-3.283
				c1.129-0.652,2.259-0.809,3.122-0.317l1.015,0.571l1.002-1.736C370.796,168.341,371.923,167.195,373.052,166.544z"/>
		</g>
	</g>
</g>
</svg>
