<!DOCTYPE svg PUBLIC "-//W3C//DTD SVG 1.1//EN" "http://www.w3.org/Graphics/SVG/1.1/DTD/svg11.dtd">
<!-- Uploaded to: SVG Repo, www.svgrepo.com, Transformed by: SVG Repo Mixer Tools -->
<svg version="1.1" id="Layer_1" xmlns="http://www.w3.org/2000/svg" xmlns:xlink="http://www.w3.org/1999/xlink" viewBox="0 0 509.287 509.287" xml:space="preserve" width="800px" height="800px" fill="#000000" stroke="#000000">
<g id="SVGRepo_bgCarrier" stroke-width="0"/>
<g id="SVGRepo_tracerCarrier" stroke-linecap="round" stroke-linejoin="round"/>
<g id="SVGRepo_iconCarrier"> <circle style="fill:#20AAB0;" cx="254.644" cy="254.644" r="254.644"/> <rect x="63.746" y="154.278" style="fill:#F1F3F7;" width="381.457" height="257.356"/> <rect x="63.746" y="97.992" style="fill:#646B79;" width="381.457" height="56.286"/> <circle style="fill:#F0582F;" cx="92.906" cy="126.135" r="8.477"/> <circle style="fill:#FBD303;" cx="119.693" cy="126.135" r="8.477"/> <circle style="fill:#20AAB0;" cx="146.14" cy="126.135" r="8.477"/> <path style="fill:#393D47;" d="M383.491,117.658H201.748c-4.747,0-8.477,3.73-8.477,8.477s3.73,8.477,8.477,8.477h181.743 c4.747,0,8.477-3.73,8.477-8.477C391.968,121.388,388.238,117.658,383.491,117.658z"/> <circle style="fill:#4B5AA7;" cx="183.777" cy="282.787" r="72.223"/> <circle style="fill:#FCFCFD;" cx="183.777" cy="282.787" r="53.574"/> <polygon style="fill:#F0582F;" points="187.846,286.517 158.686,286.517 158.686,279.057 180.048,279.057 180.048,236.673 187.846,236.673 "/> <g> <rect x="293.298" y="205.478" style="fill:#DEDEDF;" width="104.434" height="18.649"/> <rect x="293.298" y="250.575" style="fill:#DEDEDF;" width="104.434" height="18.649"/> <rect x="293.298" y="296.011" style="fill:#DEDEDF;" width="104.434" height="18.649"/> <rect x="293.298" y="341.446" style="fill:#DEDEDF;" width="75.274" height="18.649"/> </g> </g>
</svg>