<?xml version="1.0" encoding="UTF-8"?>
<svg width="700px" height="324px" viewBox="0 0 700 324" version="1.1" xmlns="http://www.w3.org/2000/svg" xmlns:xlink="http://www.w3.org/1999/xlink">
    <!-- Generator: Sketch 50.2 (55047) - http://www.bohemiancoding.com/sketch -->
    <title>laptop</title>
    <desc>Created with Sketch.</desc>
    <defs>
        <polygon id="path-1" points="0.324933945 0.826739726 17.992145 0.826739726 17.992145 1.56370411 0.324933945 1.56370411"></polygon>
        <polygon id="path-3" points="0.648924312 0.756778082 30.2849931 0.756778082 30.2849931 4.51594521 0.648924312 4.51594521"></polygon>
        <polygon id="path-5" points="0.205013761 191.255671 373.294032 191.255671 373.294032 0.826739726 0.205013761 0.826739726"></polygon>
    </defs>
    <g id="Page-1" stroke="none" stroke-width="1" fill="none" fill-rule="evenodd">
        <g id="Desktop" transform="translate(-307.000000, -397.000000)">
            <g id="top" transform="translate(-1.000000, 0.000000)">
                <g id="laptop" transform="translate(273.000000, 352.000000)">
                    <g id="Group" transform="translate(0.000000, 124.000000)" fill-rule="nonzero">
                        <path d="M216.043452,93.0033812 C199.845234,63.1934201 167.754425,43.1173239 131.079214,44.0298737 C80.9564264,45.2466068 40.308068,86.6155324 40.0024413,136.50159 C39.6968145,179.087248 68.1201027,214.980875 106.9347,226.53984 C119.771024,230.190039 131.690468,235.969521 142.387404,244.18247 C155.529354,254.220518 172.033199,260 189.759551,260 C232.852923,260 268,225.018923 268,182.129081 C268,158.402786 257.303064,137.41414 240.799219,123.117526 C230.713536,114.296211 222.155987,104.258162 216.043452,93.0033812" id="Shape" fill="#00A2F2" transform="translate(154.000000, 152.000000) rotate(-32.000000) translate(-154.000000, -152.000000) "></path>
                        <path d="M188.45278,110.396156 C192.519747,115.374643 197.095084,120.35313 201.670421,125.082693 C212.346208,136.035364 218.700843,151.219749 217.938286,167.89768 C216.667359,198.017526 191.757191,222.412111 161.000758,223.905657 C152.358454,224.403506 143.970336,222.90996 136.344774,219.922868 C130.244325,217.433625 123.88969,215.44223 117.535055,213.699759 C89.828847,205.485256 69.7482007,180.343897 70.0023861,150.7219 C70.2565715,115.125719 100.250448,85.7526462 136.853145,86.0015706 C157.696348,86.0015706 176.251881,95.4606957 188.45278,110.396156 Z" id="Shape" fill="#69E0BB" transform="translate(144.000000, 155.000000) rotate(-25.000000) translate(-144.000000, -155.000000) "></path>
                        <path d="M158.577223,103.025347 C189.032313,103.561808 214,128.239048 214,158.280904 C213.72563,188.590992 188.757943,213 157.754113,213 C131.688945,213 109.739331,195.833225 103.428816,172.228909 C102.056966,167.132523 99.0388935,162.304367 95.4720811,158.280904 C90.5334178,152.648056 87.5153458,145.405823 88.0640862,137.358897 C88.8871967,123.142661 100.410744,111.876965 114.952364,110.804042 L118.519176,110.804042 C124.28095,111.072272 129.768354,109.999349 134.707017,107.853502 C141.840642,104.634732 150.071747,102.757116 158.577223,103.025347 Z" id="Shape" fill="#F2C432" transform="translate(151.000000, 158.000000) rotate(-25.000000) translate(-151.000000, -158.000000) "></path>
                        <path d="M213,157.5 C213,183.333333 192.010417,204 166.5,204 C140.666667,204 120,183.010417 120,157.5 C120,131.666667 140.989583,111 166.5,111 C192.010417,111 213,131.989583 213,157.5" id="Shape" fill="#FF9C00" transform="translate(166.500000, 157.500000) rotate(-25.000000) translate(-166.500000, -157.500000) "></path>
                        <path d="M201,157.5 C201,173.224138 188,186 172,186 C156,186 143,173.224138 143,157.5 C143,141.775862 156,129 172,129 C188,129 201,141.775862 201,157.5" id="Shape" fill="#E8214E" transform="translate(172.000000, 157.500000) rotate(-25.000000) translate(-172.000000, -157.500000) "></path>
                    </g>
                    <g id="Group-2" transform="translate(629.038035, 229.074234) scale(1, -1) rotate(-42.000000) translate(-629.038035, -229.074234) translate(480.538035, 54.574234)" fill-rule="nonzero">
                        <path d="M74.0132135,189.656571 L96.5009866,194.475624 C113.634528,197.917804 129.340274,206.179038 141.119584,218.915106 C153.255843,231.995392 170.746333,240.600844 190.378516,241.633498 C229.99983,243.698807 263.909964,214.784489 266.408606,176.232066 C267.479452,158.332727 261.411323,141.466042 250.345911,128.385756 C241.77914,118.059214 236.781857,105.667364 235.354062,92.2428594 C234.640164,85.0142801 232.141523,77.7857008 227.14424,71.5897757 C214.651033,55.7557448 191.806311,50.5924739 173.601923,60.2305796 C164.321255,65.0496325 157.539228,72.9666479 153.96974,81.9163175 C148.25856,97.0619122 131.481967,105.667364 115.062323,102.225183 L94.0023452,97.7503484 C67.5881355,92.2428594 41.8878234,108.421108 36.1766429,133.893245 C31.17936,159.365381 47.9559526,184.4933 74.0132135,189.656571" id="Shape" fill="#00A2F2" transform="translate(150.913286, 148.553952) rotate(-230.000000) translate(-150.913286, -148.553952) "></path>
                        <g id="Group-16" transform="translate(92.687766, 284.302924)">
                            <path d="M63.2255039,17.2610234 C62.6074982,8.35210812 55.8094347,1.03407053 47.157354,0.0795438869 C43.4493194,-0.238631661 40.0502876,0.397719434 36.9602588,1.98859717 C35.1062415,2.94312381 32.9432213,3.57947491 30.4711982,3.26129936 C24.2911406,2.94312381 18.1110829,4.53400155 12.8580338,8.35210812 C-0.429090169,17.579199 -4.13712478,36.3515563 5.13296174,50.0331048 C14.0940454,63.7146534 32.3252155,67.5327599 45.6123395,57.9874935 C53.6464145,52.5785092 57.9724549,43.6695939 58.5904607,34.442503 C58.5904607,32.2152742 59.2084664,29.9880453 60.444478,28.0789921 C62.2984953,25.2154121 63.5345068,21.3973056 63.2255039,17.2610234 L56.841345,9.34932744" id="Shape" fill="#00A2F2"></path>
                            <path d="M55.2199207,17.2562252 C55.2199207,23.4746847 50.2451531,28.7603754 43.7157705,28.7603754 C37.497311,28.7603754 32.2116204,23.7856077 32.2116204,17.2562252 C32.2116204,11.0377657 37.186388,5.75207507 43.7157705,5.75207507 C49.9342301,5.75207507 55.2199207,11.0377657 55.2199207,17.2562252" id="Shape" fill="#69E0BB"></path>
                        </g>
                        <path d="M82.9906717,169.970017 C96.3973771,173.001498 108.547204,179.930596 117.345354,190.757311 C122.372869,196.820272 128.064586,202.215738 135.360615,206.347782 C152.82159,216.236656 199.462937,212.283378 217.478197,174.606408 C232.560741,142.992398 225.93467,105.589133 197.86438,85.6679762 C191.998947,81.33729 175.161772,67.7658216 170.134257,60.4036549 C169.715298,59.9705863 169.296338,59.5375177 168.877379,59.1044491 C159.241309,46.1123903 141.645008,42.6478413 127.819343,50.8761452 C124.048707,53.0414883 120.697031,56.0729687 118.183274,59.5375177 C111.060961,69.0650275 98.9111344,73.3957137 87.5992267,70.797302 C62.0426944,65.1674098 36.4861621,82.0570862 31.039688,108.474272 C26.0121734,134.45839 42.3515957,160.442507 67.908128,166.505468 L82.9906717,169.970017 Z" id="Shape" fill="#69E0BB" transform="translate(127.740074, 128.704683) rotate(143.000000) translate(-127.740074, -128.704683) "></path>
                        <path d="M138.102603,78.9231004 C167.577327,79.4224338 191.74129,102.391769 191.74129,130.354439 C191.475752,158.566775 167.311789,181.286444 137.305989,181.286444 C112.079873,181.286444 90.8368285,165.307776 84.7294532,143.337107 C83.4017629,138.59344 80.4808443,134.099439 77.0288495,130.354439 C72.2491645,125.111438 69.3282458,118.370438 69.859322,110.880437 C70.6559361,97.6481023 81.8085345,87.1621012 95.8820516,86.1634345 C96.9442038,86.1634345 98.2718941,86.1634345 99.3340463,86.1634345 C104.910346,86.4131011 110.221107,85.4144344 115.000792,83.4171008 C121.904781,80.4211005 129.870923,78.6734337 138.102603,78.9231004 Z" id="Shape" fill="#F2C432" transform="translate(130.769294, 130.092976) rotate(-229.000000) translate(-130.769294, -130.092976) "></path>
                        <path d="M135.015087,93.8721336 C156.704035,94.2368152 174.485065,111.012173 174.485065,131.434347 C174.289669,152.038862 156.50864,168.631879 134.4289,168.631879 C115.866286,168.631879 100.234612,156.962065 95.7405057,140.916071 C94.763526,137.451595 92.6141708,134.16946 90.0740237,131.434347 C86.556897,127.605189 84.4075418,122.681987 84.7983337,117.211761 C85.3845214,107.547697 93.5911505,99.8893814 103.947135,99.160018 C104.728718,99.160018 105.705698,99.160018 106.487282,99.160018 C110.590596,99.3423588 114.498515,98.6129955 118.015642,97.1542687 C123.095936,94.9661786 128.957814,93.6897927 135.015087,93.8721336 Z" id="Shape" fill="#F5A623" transform="translate(129.618879, 131.243391) rotate(-223.000000) translate(-129.618879, -131.243391) "></path>
                        <path d="M147.168543,140.375316 C147.168543,150.213348 138.91729,158.206748 128.761903,158.206748 C118.606515,158.206748 110.355262,150.213348 110.355262,140.375316 C110.355262,130.537284 118.606515,122.543883 128.761903,122.543883 C138.91729,122.543883 147.168543,130.537284 147.168543,140.375316 Z" id="Shape" fill="#E8214E"></path>
                        <path d="M122.714126,199.659241 C90.0591755,199.659241 63.4998156,173.099881 63.4998156,140.44493 C63.4998156,107.78998 90.0591755,81.2306199 122.714126,81.2306199 C155.369077,81.2306199 181.928436,107.78998 181.928436,140.44493 C181.928436,145.669722 181.275337,150.676815 179.969139,155.683907 C179.75144,156.772406 178.662941,157.207805 177.792143,156.990105 C176.703644,156.772406 176.268245,155.683907 176.485945,154.813109 C177.792143,150.241415 178.227542,145.452023 178.227542,140.66263 C178.227542,110.184676 153.40978,85.1492139 122.714126,85.1492139 C92.2361722,85.1492139 67.20071,109.966976 67.20071,140.66263 C67.20071,171.140584 92.0184725,196.176046 122.714126,196.176046 C133.16371,196.176046 143.613294,193.128251 152.321281,187.468059 C153.19208,186.81496 154.280578,187.250359 154.933677,188.121158 C155.586776,188.991957 155.151377,190.080455 154.280578,190.733554 C144.919492,196.393746 133.816809,199.659241 122.714126,199.659241 Z" id="Shape" fill="#FFFFFF" transform="translate(122.714126, 140.444930) rotate(46.000000) translate(-122.714126, -140.444930) "></path>
                    </g>
                    <g id="Group-19" transform="translate(58.000000, 45.000000)">
                        <polygon id="Shape" fill="#FFFFFF" fill-rule="nonzero" points="83 288 536 288 536 18 83 18"></polygon>
                        <polygon id="Shape" fill="#464A55" fill-rule="nonzero" points="83 95 536 95 536 74 83 74"></polygon>
                        <polygon id="Shape" fill="#F3F3F3" fill-rule="nonzero" points="83 288 156 288 156 102 83 102"></polygon>
                        <polygon id="Shape" fill="#E5E5E5" fill-rule="nonzero" points="90 123 156 123 156 102 90 102"></polygon>
                        <polygon id="Shape" fill="#F4364C" fill-rule="nonzero" points="83 123 89 123 89 102 83 102"></polygon>
                        <path d="M350.109171,42 L83.8739768,42 C83.4369884,42 83,41.547619 83,41.0952381 L83,23.9047619 C83,23.452381 83.4369884,23 83.8739768,23 L111.841236,23 C112.278224,23 112.715212,23.452381 112.715212,23.9047619 C112.715212,24.3571429 112.278224,24.8095238 111.841236,24.8095238 L84.7479537,24.8095238 L84.7479537,40.077381 L350.109171,40.077381 C350.546159,40.077381 350.983147,40.5297619 350.983147,40.9821429 C351.092395,41.6607143 350.655406,42 350.109171,42 Z" id="Shape" fill="#000000" fill-rule="nonzero"></path>
                        <path d="M537.125569,42 L370.874431,42 C370.437215,42 370,41.5449102 370,41.0898204 C370,40.6347305 370.437215,40.1796407 370.874431,40.1796407 L536.251139,40.1796407 L536.251139,23.9101796 C536.251139,23.4550898 536.688354,23 537.125569,23 C537.562785,23 538,23.4550898 538,23.9101796 L538,41.2035928 C538,41.6586826 537.672088,42 537.125569,42 Z" id="Shape" fill="#000000" fill-rule="nonzero"></path>
                        <path d="M528.552632,30.5136187 L530.552632,28.4435798 C530.868421,28.1167315 530.868421,27.5719844 530.552632,27.2451362 C530.236842,26.9182879 529.710526,26.9182879 529.394737,27.2451362 L527.394737,29.3151751 L525.394737,27.2451362 C525.078947,26.9182879 524.552632,26.9182879 524.236842,27.2451362 C523.921053,27.5719844 523.921053,28.1167315 524.236842,28.4435798 L526.236842,30.5136187 L524.236842,32.5836576 C523.921053,32.9105058 523.921053,33.4552529 524.236842,33.7821012 C524.447368,34 524.657895,34 524.868421,34 C525.078947,34 525.289474,33.8910506 525.5,33.7821012 L527.5,31.7120623 L529.5,33.7821012 C529.710526,34 529.921053,34 530.131579,34 C530.342105,34 530.552632,33.8910506 530.763158,33.7821012 C531.078947,33.4552529 531.078947,32.9105058 530.763158,32.5836576 L528.552632,30.5136187 Z" id="Shape" fill="#000000" fill-rule="nonzero"></path>
                        <path d="M92.5,35 C90.5441176,35 89,33.4558824 89,31.5 C89,29.5441176 90.5441176,28 92.5,28 C94.4558824,28 96,29.5441176 96,31.5 C96,33.4558824 94.4558824,35 92.5,35 Z M92.5,29.6470588 C91.4705882,29.6470588 90.6470588,30.4705882 90.6470588,31.5 C90.6470588,32.5294118 91.4705882,33.3529412 92.5,33.3529412 C93.5294118,33.3529412 94.3529412,32.5294118 94.3529412,31.5 C94.3529412,30.4705882 93.5294118,29.6470588 92.5,29.6470588 Z" id="Shape" fill="#000000" fill-rule="nonzero"></path>
                        <g id="Group" transform="translate(163.000000, 102.000000)">
                            <polygon id="Fill-1" fill="#DFE3EA" points="0 155 373 155 373 132 0 132"></polygon>
                            <polygon id="Fill-2" fill="#D0D5DD" points="0 155 186 155 186 132 0 132"></polygon>
                            <polygon id="Fill-3" fill="#DFE3EA" points="0 84 186 84 186 36 0 36"></polygon>
                            <polygon id="Fill-4" fill="#FFFFFF" points="0 36 93 36 93 1 0 1"></polygon>
                            <polygon id="Fill-5" fill="#EFF1F4" points="93 36 187 36 187 1 93 1"></polygon>
                            <polygon id="Fill-6" fill="#FFFFFF" points="186 36 280 36 280 1 186 1"></polygon>
                            <polygon id="Fill-7" fill="#FFFFFF" points="0 132 186 132 186 84 0 84"></polygon>
                            <polygon id="Fill-8" fill="#DFE3EA" points="280 36 373 36 373 1 280 1"></polygon>
                            <polygon id="Fill-9" fill="#FFFFFF" points="0 192 93 192 93 156 0 156"></polygon>
                            <polygon id="Fill-10" fill="#EFF1F4" points="93 192 187 192 187 156 93 156"></polygon>
                            <polygon id="Fill-11" fill="#FFFFFF" points="186 192 280 192 280 156 186 156"></polygon>
                            <polygon id="Fill-12" fill="#EFF1F4" points="280 192 373 192 373 156 280 156"></polygon>
                            <polygon id="Fill-13" fill="#EFF1F4" points="186 132 372 132 372 36 186 36"></polygon>
                            <g id="Group-47">
                                <path d="M146.947517,67.871474 L31.4630073,67.871474 C27.0882367,67.871474 23.5420991,64.2471452 23.5420991,59.776789 C23.5420991,55.3055562 27.0882367,51.6803507 31.4630073,51.6803507 L146.947517,51.6803507 C151.322287,51.6803507 154.867567,55.3055562 154.867567,59.776789 C154.867567,64.2471452 151.322287,67.871474 146.947517,67.871474" id="Fill-14" fill="#FFFFFF"></path>
                                <path d="M152.003036,59.6916603 C152.003036,62.8767562 149.47682,65.4577973 146.361297,65.4577973 C143.244917,65.4577973 140.719559,62.8767562 140.719559,59.6916603 C140.719559,56.5074411 143.244917,53.9255233 146.361297,53.9255233 C149.47682,53.9255233 152.003036,56.5074411 152.003036,59.6916603 Z" id="Stroke-16" stroke="#D0D5DD" stroke-width="4.547" stroke-linecap="round" stroke-linejoin="round"></path>
                                <path d="M150.000935,64.1557041 L154.004279,68.2481973" id="Stroke-18" stroke="#D0D5DD" stroke-width="4.547" stroke-linecap="round" stroke-linejoin="round"></path>
                                <path d="M234.479815,64.1993644 L287.484021,64.1993644" id="Stroke-20" stroke="#D0D5DD" stroke-width="4" stroke-linecap="round" stroke-linejoin="round"></path>
                                <path d="M234.479815,71.5315726 L308.046301,71.5315726" id="Stroke-22" stroke="#D0D5DD" stroke-width="4" stroke-linecap="round" stroke-linejoin="round"></path>
                                <polygon id="Stroke-24" stroke="#FFFFFF" stroke-width="4" stroke-linecap="round" stroke-linejoin="round" points="333.93748 57.0573151 227.1682 57.0573151 227.1682 77.7398356 227.1682 78.6735342 227.1682 83.0325479 233.565659 78.6735342 333.93748 78.6735342"></polygon>
                                <path d="M326.626123,95.334663 L285.807798,95.334663" id="Stroke-26" stroke="#D0D5DD" stroke-width="4" stroke-linecap="round" stroke-linejoin="round"></path>
                                <path d="M326.626123,102.666871 L266.133339,102.666871" id="Stroke-28" stroke="#D0D5DD" stroke-width="4" stroke-linecap="round" stroke-linejoin="round"></path>
                                <polygon id="Stroke-30" stroke="#FFFFFF" stroke-width="4" stroke-linecap="round" stroke-linejoin="round" points="227.168458 88.192526 333.937738 88.192526 333.937738 108.875047 333.937738 109.808745 333.937738 114.167759 327.540279 109.808745 227.168458 109.808745"></polygon>
                                <g id="Group-34" transform="translate(36.885321, 0.000000)">
                                    <mask id="mask-2" fill="white">
                                        <use xlink:href="#path-1"></use>
                                    </mask>
                                    <g id="Clip-33"></g>
                                    <path d="M17.992145,-16.7911452 C17.992145,-11.8052822 9.15853945,1.56370411 9.15853945,1.56370411 C9.15853945,1.56370411 0.324933945,-11.8052822 0.324933945,-16.7911452 C0.324933945,-21.7770082 4.28024128,-25.8195288 9.15853945,-25.8195288 C14.0376954,-25.8195288 17.992145,-21.7770082 17.992145,-16.7911452 Z" id="Stroke-32" stroke="#DFE3EA" stroke-width="4" stroke-linecap="round" stroke-linejoin="round" mask="url(#mask-2)"></path>
                                </g>
                                <g id="Group-37" transform="translate(124.380734, 186.739726)">
                                    <mask id="mask-4" fill="white">
                                        <use xlink:href="#path-3"></use>
                                    </mask>
                                    <g id="Clip-36"></g>
                                    <polygon id="Stroke-35" stroke="#FFFFFF" stroke-width="4" stroke-linecap="round" stroke-linejoin="round" mask="url(#mask-4)" points="15.4665298 0.756778082 0.648924312 16.2956274 4.74147936 16.2956274 4.74147936 32.3736548 11.5970023 32.3736548 11.5970023 19.8156274 19.0581307 19.8156274 19.0581307 32.3736548 26.1924381 32.3736548 26.1924381 16.2956274 30.2849931 16.2956274"></polygon>
                                </g>
                                <mask id="mask-6" fill="white">
                                    <use xlink:href="#path-5"></use>
                                </mask>
                                <g id="Clip-39"></g>
                                <polygon id="Fill-38" fill="#D0D5DD" mask="url(#mask-6)" points="280.553183 155.382356 303.744615 155.382356 303.744615 131.679562 280.553183 131.679562"></polygon>
                                <path d="M286.048239,138.912614 L298.24956,138.912614" id="Stroke-40" stroke="#EFF1F4" stroke-width="4.547" stroke-linecap="round" stroke-linejoin="round" mask="url(#mask-6)"></path>
                                <path d="M286.048239,143.531573 L298.24956,143.531573" id="Stroke-41" stroke="#EFF1F4" stroke-width="4.547" stroke-linecap="round" stroke-linejoin="round" mask="url(#mask-6)"></path>
                                <path d="M286.048239,148.149742 L298.24956,148.149742" id="Stroke-42" stroke="#EFF1F4" stroke-width="4.547" stroke-linecap="round" stroke-linejoin="round" mask="url(#mask-6)"></path>
                                <path d="M301.675434,190.850981 L353.233393,190.850981" id="Stroke-43" stroke="#D0D5DD" stroke-width="4.547" stroke-linecap="round" stroke-linejoin="round" mask="url(#mask-6)"></path>
                                <path d="M87.1333362,143.531573 C87.1333362,144.943956 86.012194,146.088942 84.6302812,146.088942 C83.2483683,146.088942 82.1280839,144.943956 82.1280839,143.531573 C82.1280839,142.119189 83.2483683,140.973326 84.6302812,140.973326 C86.012194,140.973326 87.1333362,142.119189 87.1333362,143.531573" id="Fill-44" fill="#DFE3EA" mask="url(#mask-6)"></path>
                                <path d="M95.4486601,143.531573 C95.4486601,144.943956 94.3283757,146.088942 92.945605,146.088942 C91.5636922,146.088942 90.4434078,144.943956 90.4434078,143.531573 C90.4434078,142.119189 91.5636922,140.973326 92.945605,140.973326 C94.3283757,140.973326 95.4486601,142.119189 95.4486601,143.531573" id="Fill-45" fill="#DFE3EA" mask="url(#mask-6)"></path>
                                <path d="M103.763984,143.531573 C103.763984,144.943956 102.6437,146.088942 101.261787,146.088942 C99.8790161,146.088942 98.7587317,144.943956 98.7587317,143.531573 C98.7587317,142.119189 99.8790161,140.973326 101.261787,140.973326 C102.6437,140.973326 103.763984,142.119189 103.763984,143.531573" id="Fill-46" fill="#DFE3EA" mask="url(#mask-6)"></path>
                            </g>
                        </g>
                        <path d="M333,145.5 C333,152.913934 326.913934,159 319.5,159 C312.086066,159 306,152.913934 306,145.5 C306,138.086066 312.086066,132 319.5,132 C326.913934,132 333,137.97541 333,145.5" id="Shape" fill="#FFFFFF" fill-rule="nonzero"></path>
                        <polygon id="Shape" fill="#5D6475" fill-rule="nonzero" style="mix-blend-mode: multiply;" points="163 102 537 102 537 288 163 288"></polygon>
                        <path d="M412.983546,169.001668 C412.768665,165.904033 410.404974,163.359547 407.396641,163.027657 C406.107355,162.917028 404.925509,163.138287 403.851104,163.691436 C403.206462,164.023326 402.454378,164.244586 401.594854,164.133956 C399.446044,164.023326 397.297235,164.576475 395.470746,165.904033 C390.850805,169.112298 389.561519,175.639458 392.784734,180.396541 C395.900508,185.153624 402.239497,186.481182 406.859438,183.162287 C409.652891,181.28158 411.157058,178.183944 411.371939,174.975679 C411.371939,174.20127 411.58682,173.426862 412.016582,172.763083 C412.661225,171.767414 413.090987,170.439856 412.983546,169.001668" id="Shape" fill="#00A2F2" fill-rule="nonzero"></path>
                        <path d="M410,169 C410,171.162162 408.27027,173 406,173 C403.837838,173 402,171.27027 402,169 C402,166.837838 403.72973,165 406,165 C408.162162,165 410,166.837838 410,169" id="Shape" fill="#69E0BB" fill-rule="nonzero"></path>
                        <path d="M152.81,86 L93.19,86 C91.43,86 90,84.6551724 90,83 C90,81.3448276 91.43,80 93.19,80 L152.81,80 C154.57,80 156,81.3448276 156,83 C156,84.6551724 154.57,86 152.81,86" id="Shape" fill="#5A5F6B" fill-rule="nonzero"></path>
                        <path d="M528.924915,89 L501.075085,89 C499.87372,89 499,88.0833333 499,87.0648148 L499,79.9351852 C499,78.8148148 499.982935,78 501.075085,78 L528.924915,78 C530.12628,78 531,78.9166667 531,79.9351852 L531,87.0648148 C531,88.0833333 530.12628,89 528.924915,89" id="Shape" fill="#5A5F6B" fill-rule="nonzero"></path>
                        <path d="M519.693291,80.2488479 C519.386581,79.9170507 518.773163,79.9170507 518.466454,80.2488479 L515.194888,83.7880184 L513.456869,81.9078341 C513.15016,81.5760369 512.536741,81.5760369 512.230032,81.9078341 C511.923323,82.2396313 511.923323,82.9032258 512.230032,83.235023 L514.58147,85.7788018 C514.785942,86 514.990415,86 515.194888,86 C515.399361,86 515.603834,85.8894009 515.808307,85.7788018 L519.693291,81.5760369 C520.102236,81.2442396 520.102236,80.6912442 519.693291,80.2488479 Z" id="Shape" fill="#6AA94E" fill-rule="nonzero"></path>
                        <path d="M289.541753,216.695665 C283.787123,205.930957 272.38644,198.681256 259.357089,199.010788 C241.550309,199.450164 227.109445,214.388942 227.000867,232.403352 C226.892289,247.781506 236.990036,260.743094 250.779433,264.917164 C255.339706,266.235292 259.574245,268.322327 263.374472,271.288114 C268.043323,274.912965 273.906531,277 280.204051,277 C295.513539,277 308,264.367944 308,248.879946 C308,240.312117 304.199773,232.732884 298.336565,227.570218 C294.753493,224.384743 291.713311,220.759892 289.541753,216.695665" id="Shape" fill="#00A2F2" fill-rule="nonzero"></path>
                        <path d="M281.222824,212.607025 C275.94676,206.113346 267.922745,202.000683 258.909468,202.000683 C243.081275,201.892455 230.11095,214.663356 230.001032,230.139957 C229.891114,243.019086 238.574637,253.950111 250.555699,257.521635 C253.30365,258.27923 256.0516,259.145054 258.689632,260.227334 C261.987172,261.52607 265.614467,262.175437 269.351679,261.958982 C282.651758,261.309614 293.423723,250.703272 293.973313,237.607687 C294.303067,230.356413 291.555117,223.754506 286.93856,218.992475 C284.960036,216.936144 282.981512,214.771584 281.222824,212.607025" id="Shape" fill="#69E0BB" fill-rule="nonzero"></path>
                        <path d="M259.006835,209.010369 C255.631646,208.900638 252.365334,209.668754 249.534531,210.985524 C247.574744,211.86337 245.397202,212.302293 243.110784,212.192562 C242.675276,212.192562 242.130891,212.192562 241.695383,212.192562 C235.924899,212.631486 231.352062,217.24018 231.025431,223.055912 C230.807677,226.347837 232.005325,229.310568 233.965112,231.614915 C235.380513,233.260877 236.578161,235.236032 237.122546,237.320917 C239.626718,246.977228 248.336883,254 258.680203,254 C270.983311,254 280.891123,244.014497 281,231.614915 C281,219.325065 271.092188,209.229831 259.006835,209.010369" id="Shape" fill="#F2C432" fill-rule="nonzero"></path>
                        <path d="M269,228.5 C269,237.111111 262.003472,244 253.5,244 C244.888889,244 238,237.003472 238,228.5 C238,219.888889 244.996528,213 253.5,213 C262.003472,213 269,219.996528 269,228.5" id="Shape" fill="#FF9C00" fill-rule="nonzero"></path>
                        <path d="M264,229.5 C264,234.741379 259.741379,239 254.5,239 C249.258621,239 245,234.741379 245,229.5 C245,224.258621 249.258621,220 254.5,220 C259.741379,220 264,224.258621 264,229.5" id="Shape" fill="#E8214E" fill-rule="nonzero"></path>
                        <path d="M262.5,255 C246.231618,255 233,241.768382 233,225.5 C233,209.231618 246.231618,196 262.5,196 C278.768382,196 292,209.231618 292,225.5 C292,228.102941 291.674632,230.597426 291.023897,233.091912 C290.915441,233.634191 290.373162,233.851103 289.939338,233.742647 C289.397059,233.634191 289.180147,233.091912 289.288603,232.658088 C289.939338,230.380515 290.15625,227.994485 290.15625,225.608456 C290.15625,210.424632 277.792279,197.952206 262.5,197.952206 C247.316176,197.952206 234.84375,210.316176 234.84375,225.608456 C234.84375,240.792279 247.207721,253.264706 262.5,253.264706 C267.705882,253.264706 272.911765,251.746324 277.25,248.926471 C277.683824,248.601103 278.226103,248.818015 278.551471,249.251838 C278.876838,249.685662 278.659926,250.227941 278.226103,250.553309 C273.5625,253.373162 268.03125,255 262.5,255 Z" id="Shape" fill="#FFFFFF" fill-rule="nonzero"></path>
                        <path d="M317,60.501448 C317,64.6544922 313.653846,68 309.5,68 C305.346154,68 302,64.6544922 302,60.501448 C302,56.3484038 305.346154,53.0028959 309.5,53.0028959 C313.653846,52.8875336 317,56.2330414 317,60.501448" id="Shape" fill="#F4364C" fill-rule="nonzero"></path>
                        <polygon id="Shape" fill="#FFFFFF" fill-rule="nonzero" points="305 70 311 70 311 60 305 60"></polygon>
                        <path d="M311,60.0025206 C311,61.7010922 309.6,63 308,63 C306.3,63 305,61.6011763 305,60.0025206 C305,58.3039489 306.4,57.0050411 308,57.0050411 C309.7,56.9051251 311,58.3039489 311,60.0025206" id="Shape" fill="#F4364C" fill-rule="nonzero"></path>
                        <path d="M525.063254,0 L93.9367455,0 C87.9215355,0 83,4.96932515 83,11.0429448 L83,18 L536,18 L536,11.0429448 C536,4.96932515 531.078465,0 525.063254,0" id="Shape" fill="#D0D5DD" fill-rule="nonzero"></path>
                        <path d="M312.164179,9 L306.835821,9 C306.41791,9 306,8.5 306,8 C306,7.5 306.41791,7 306.835821,7 L312.164179,7 C312.58209,7 313,7.5 313,8 C313,8.625 312.58209,9 312.164179,9 Z" id="Shape" fill="#FFFFFF" fill-rule="nonzero"></path>
                        <path d="M102,54 L89,54 C88.4444444,54 88,53.5555556 88,53 C88,52.4444444 88.4444444,52 89,52 L102,52 C102.555556,52 103,52.4444444 103,53 C102.888889,53.5555556 102.444444,54 102,54 Z" id="Shape" fill="#E5E5E5" fill-rule="nonzero"></path>
                        <path d="M102,58 L89,58 C88.4444444,58 88,57.5555556 88,57 C88,56.4444444 88.4444444,56 89,56 L102,56 C102.555556,56 103,56.4444444 103,57 C102.888889,57.5555556 102.444444,58 102,58 Z" id="Shape" fill="#E5E5E5" fill-rule="nonzero"></path>
                        <path d="M102,62 L89,62 C88.4444444,62 88,61.5555556 88,61 C88,60.4444444 88.4444444,60 89,60 L102,60 C102.555556,60 103,60.4444444 103,61 C103,61.5555556 102.444444,62 102,62 Z" id="Shape" fill="#E5E5E5" fill-rule="nonzero"></path>
                        <path d="M483.620326,267.496829 C475.184809,265.679218 468.502126,259.157202 466.530187,250.817575 C465.325113,245.685497 462.695861,240.767256 458.642431,236.704361 C447.139453,225.371021 428.186928,225.050266 416.355294,236.062851 C404.085451,247.503108 403.866346,266.534565 415.807533,278.188659 C421.504246,283.74841 428.844241,286.635204 436.293788,286.742123 C442.100053,286.849041 446.591692,291.339609 446.810797,297.006279 C447.029901,304.276723 449.98781,311.440249 455.57497,317 C470.110746,316.465409 477.999786,317 498.738525,316.465409 C510.022399,304.918233 509.693742,286.421368 498.081212,275.194947 C493.91823,271.23897 488.87883,268.672931 483.620326,267.496829 Z" id="Shape" fill="#00A2F2" fill-rule="nonzero"></path>
                        <path d="M485.007932,277.50922 C481.698499,273.979094 477.50655,271.883081 473.093973,271.331499 C468.681395,270.779916 465.261647,267.360107 464.710075,262.947449 C464.158503,258.534791 462.062528,254.342766 458.532466,251.033272 C451.141398,244.303969 439.668696,244.303969 432.277629,251.143589 C424.11436,258.645107 423.893731,271.331499 431.726056,279.163967 C434.925175,282.363144 438.896495,284.128207 442.97813,284.679789 C447.280393,285.231371 450.810455,288.651181 451.362027,293.063839 C451.913599,297.145548 453.678631,301.227256 456.877749,304.316117 C464.59976,312.038269 477.396236,311.927952 484.897618,303.764535 C491.626799,296.373333 491.737113,284.900422 485.007932,277.50922" id="Shape" fill="#69E0BB" fill-rule="nonzero"></path>
                        <path d="M464.070345,273.338608 C463.431633,272.463165 462.580017,271.806582 461.728401,271.259429 C459.492909,269.946264 458.109033,267.429363 458.002581,264.803031 C457.896129,260.972965 456.192897,257.033467 452.999336,254.297705 C447.783188,249.811056 440.012191,249.920486 434.796043,254.516566 C428.621827,260.097521 428.408923,269.617972 434.157331,275.527218 C436.712179,278.153549 440.118643,279.576146 443.525108,279.685576 C446.186408,279.795006 448.528352,281.436464 449.805776,283.734504 C450.125132,284.281656 450.55094,284.828808 451.0832,285.375961 C454.702568,289.096597 460.876785,288.877736 464.176797,284.609947 C466.625193,281.327033 466.625193,276.621523 464.070345,273.338608" id="Shape" fill="#F2C432" fill-rule="nonzero"></path>
                        <path d="M455.231429,274.231429 C451.54,277.922857 445.46,277.922857 441.768571,274.231429 C438.077143,270.54 438.077143,264.46 441.768571,260.768571 C445.46,257.077143 451.54,257.077143 455.231429,260.768571 C458.922857,264.46 458.922857,270.431429 455.231429,274.231429" id="Shape" fill="#FF9C00" fill-rule="nonzero"></path>
                        <path d="M453.382353,274.382353 C451.22549,276.539216 447.77451,276.539216 445.617647,274.382353 C443.460784,272.22549 443.460784,268.77451 445.617647,266.617647 C447.77451,264.460784 451.22549,264.460784 453.382353,266.617647 C455.539216,268.77451 455.539216,272.22549 453.382353,274.382353" id="Shape" fill="#E8214E" fill-rule="nonzero"></path>
                        <path d="M478.091489,297.091489 C475.546809,299.63617 471.453191,299.63617 468.908511,297.091489 C466.36383,294.546809 466.36383,290.453191 468.908511,287.908511 C471.453191,285.36383 475.546809,285.36383 478.091489,287.908511 C480.63617,290.453191 480.63617,294.546809 478.091489,297.091489" id="Shape" fill="#F2C432" fill-rule="nonzero"></path>
                        <path d="M273.887906,158.512237 L280.792755,160.037849 C286.053593,161.127572 290.876027,163.742907 294.492853,167.774882 C298.21928,171.915829 303.589718,174.640137 309.617761,174.967054 C321.783448,175.620887 332.195522,166.467214 332.962728,154.262317 C333.29153,148.595757 331.428317,143.256115 328.030692,139.115167 C325.400274,135.845999 323.865863,131.922996 323.42746,127.673076 C323.208258,125.384658 322.441052,123.09624 320.906642,121.134738 C317.070614,116.122013 310.056164,114.487428 304.466524,117.538652 C301.616904,119.064265 299.534489,121.570627 298.438481,124.403907 C296.684869,129.198688 291.533632,131.922996 286.491996,130.833273 L280.02555,129.416633 C271.915092,127.673076 264.023836,132.794774 262.270223,140.858724 C260.735812,148.922674 265.887049,156.877652 273.887906,158.512237" id="Shape" fill="#00A2F2" fill-rule="nonzero"></path>
                        <polygon id="Shape" fill="#DFE3EA" fill-rule="nonzero" points="83 310 536 310 536 287 83 287"></polygon>
                        <path d="M608.940148,307 L10.1653983,307 C4.59082503,307 0,311.516129 0,317 L618.998153,317 C619.105546,311.516129 614.514721,307 608.940148,307" id="Shape" fill="#D0D5DD" fill-rule="nonzero"></path>
                        <path d="M73.9297659,309 C73.5016722,309 73.0735786,308.571429 73.0735786,308.142857 C73.0735786,306.321429 71.5752508,304.821429 69.7558528,304.821429 L48.0301003,304.821429 C46.2107023,304.821429 44.7123746,306.321429 44.7123746,308.142857 C44.7123746,308.571429 44.2842809,309 43.8561873,309 C43.4280936,309 43,308.571429 43,308.142857 C43,305.357143 45.2474916,303 48.1371237,303 L69.8628763,303 C72.6454849,303 75,305.25 75,308.142857 C74.7859532,308.571429 74.4648829,309 73.9297659,309 Z" id="Shape" fill="#000000" fill-rule="nonzero"></path>
                        <path d="M107.929766,309 C107.501672,309 107.073579,308.571429 107.073579,308.142857 C107.073579,306.321429 105.575251,304.821429 103.755853,304.821429 L82.0301003,304.821429 C80.2107023,304.821429 78.7123746,306.321429 78.7123746,308.142857 C78.7123746,308.571429 78.2842809,309 77.8561873,309 C77.4280936,309 77,308.571429 77,308.142857 C77,305.357143 79.2474916,303 82.1371237,303 L103.862876,303 C106.645485,303 109,305.25 109,308.142857 C108.785953,308.571429 108.35786,309 107.929766,309 Z" id="Shape" fill="#000000" fill-rule="nonzero"></path>
                        <path d="M144.929766,309 C144.501672,309 144.073579,308.571429 144.073579,308.142857 C144.073579,306.321429 142.575251,304.821429 140.755853,304.821429 L119.0301,304.821429 C117.210702,304.821429 115.712375,306.321429 115.712375,308.142857 C115.712375,308.571429 115.284281,309 114.856187,309 C114.428094,309 114,308.571429 114,308.142857 C114,305.357143 116.247492,303 119.137124,303 L140.862876,303 C143.645485,303 146,305.25 146,308.142857 C145.785953,308.571429 145.35786,309 144.929766,309 Z" id="Shape" fill="#000000" fill-rule="nonzero"></path>
                        <path d="M433.016166,309 C432.578907,309 432.141647,308.571429 432.141647,308.142857 C432.141647,306.321429 430.611239,304.821429 428.752887,304.821429 L155.137798,304.821429 C153.279446,304.821429 151.749038,306.321429 151.749038,308.142857 C151.749038,308.571429 151.311778,309 150.874519,309 C150.437259,309 150,308.571429 150,308.142857 C150,305.357143 152.295612,303 155.247113,303 L428.752887,303 C431.595073,303 434,305.25 434,308.142857 C433.890685,308.571429 433.453426,309 433.016166,309 Z" id="Shape" fill="#000000" fill-rule="nonzero"></path>
                        <path d="M469.033557,309 C468.604027,309 468.174497,308.571429 468.174497,308.142857 C468.174497,306.321429 466.671141,304.821429 464.845638,304.821429 L443.04698,304.821429 C441.221477,304.821429 439.718121,306.321429 439.718121,308.142857 C439.718121,308.571429 439.288591,309 438.85906,309 C438.42953,309 438,308.571429 438,308.142857 C438,305.357143 440.255034,303 443.154362,303 L464.845638,303 C467.637584,303 470,305.25 470,308.142857 C469.892617,308.571429 469.57047,309 469.033557,309 Z" id="Shape" fill="#000000" fill-rule="nonzero"></path>
                        <path d="M503.929766,309 C503.501672,309 503.073579,308.571429 503.073579,308.142857 C503.073579,306.321429 501.575251,304.821429 499.755853,304.821429 L478.0301,304.821429 C476.210702,304.821429 474.712375,306.321429 474.712375,308.142857 C474.712375,308.571429 474.284281,309 473.856187,309 C473.428094,309 473,308.571429 473,308.142857 C473,305.357143 475.247492,303 478.137124,303 L499.862876,303 C502.645485,303 505,305.25 505,308.142857 C504.785953,308.571429 504.35786,309 503.929766,309 Z" id="Shape" fill="#000000" fill-rule="nonzero"></path>
                        <path d="M540.929766,309 C540.501672,309 540.073579,308.571429 540.073579,308.142857 C540.073579,306.321429 538.575251,304.821429 536.755853,304.821429 L515.0301,304.821429 C513.210702,304.821429 511.712375,306.321429 511.712375,308.142857 C511.712375,308.571429 511.284281,309 510.856187,309 C510.428094,309 510,308.571429 510,308.142857 C510,305.357143 512.247492,303 515.137124,303 L536.862876,303 C539.645485,303 542,305.25 542,308.142857 C541.785953,308.571429 541.35786,309 540.929766,309 Z" id="Shape" fill="#000000" fill-rule="nonzero"></path>
                        <path d="M576.929766,309 C576.501672,309 576.073579,308.571429 576.073579,308.142857 C576.073579,306.321429 574.575251,304.821429 572.755853,304.821429 L551.0301,304.821429 C549.210702,304.821429 547.712375,306.321429 547.712375,308.142857 C547.712375,308.571429 547.284281,309 546.856187,309 C546.428094,309 546,308.571429 546,308.142857 C546,305.357143 548.247492,303 551.137124,303 L572.862876,303 C575.645485,303 578,305.25 578,308.142857 C577.785953,308.571429 577.464883,309 576.929766,309 Z" id="Shape" fill="#000000" fill-rule="nonzero"></path>
                        <path d="M282.736234,158.427187 L286.623497,159.305136 C290.078841,160.073342 293.210247,161.82924 295.477817,164.572831 C296.773572,166.109242 298.285285,167.426165 300.120937,168.523602 C308.975258,173.791296 320.529066,170.389243 325.172186,160.841547 C329.059449,152.830262 326.57592,143.063078 319.341292,138.014871 C317.829578,136.917435 316.209886,136.14923 314.482213,135.600511 C312.322623,134.94205 310.378991,133.405639 309.083237,131.539997 C308.975258,131.430253 308.867278,131.32051 308.759299,131.210766 C306.27577,127.918457 301.74063,127.040508 298.177305,129.125637 C297.20549,129.674355 296.341654,130.442561 295.693776,131.32051 C293.858125,133.73487 290.726718,134.832306 287.811271,134.173844 C281.224521,132.747177 274.63777,137.027179 273.234036,143.72154 C271.938282,150.306158 276.149483,156.890776 282.736234,158.427187" id="Shape" fill="#69E0BB" fill-rule="nonzero"></path>
                        <path d="M289.940664,154.020688 L290.269267,154.129281 C292.898092,154.672248 295.198314,156.301148 296.512726,158.581608 C298.046208,161.405036 300.675033,163.685496 303.961064,164.988616 C310.86173,167.70345 318.85774,164.771429 322.253305,158.364422 C326.306077,150.871481 323.020046,141.641046 315.35264,138.274652 C312.066608,136.862939 308.671042,136.645752 305.494545,137.514499 C302.208514,138.491839 298.59388,138.491839 295.198314,137.731685 L293.445764,137.405905 C288.735785,136.428565 284.025807,139.469179 283.149532,144.247286 C282.273257,148.699614 285.34022,153.043348 289.940664,154.020688" id="Shape" fill="#F2C432" fill-rule="nonzero"></path>
                        <path d="M297.355917,156.116177 C294.82801,152.159454 295.9271,146.883823 299.883823,144.355917 C303.840546,141.82801 309.116177,142.9271 311.644083,146.883823 C314.17199,150.840546 313.0729,156.116177 309.116177,158.644083 C305.159454,161.17199 299.883823,160.0729 297.355917,156.116177" id="Shape" fill="#FF9C00" fill-rule="nonzero"></path>
                        <path d="M300.714227,153.937415 C299.36587,151.863019 299.988189,149.062585 302.062585,147.714227 C304.136981,146.36587 306.937415,146.988189 308.285773,149.062585 C309.63413,151.136981 309.011811,153.937415 306.937415,155.285773 C304.863019,156.63413 302.062585,156.011811 300.714227,153.937415" id="Shape" fill="#E8214E" fill-rule="nonzero"></path>
                        <path d="M304.445344,162 C297.012146,162 291,155.987854 291,148.554656 C291,148.008097 291.437247,147.57085 291.983806,147.57085 C292.530364,147.57085 292.967611,148.008097 292.967611,148.554656 C292.967611,155.004049 298.214575,160.1417 304.554656,160.1417 C311.004049,160.1417 316.1417,154.894737 316.1417,148.554656 C316.1417,142.105263 310.894737,136.967611 304.554656,136.967611 C304.008097,136.967611 303.57085,136.530364 303.57085,135.983806 C303.57085,135.437247 304.008097,135 304.554656,135 C311.987854,135 318,141.012146 318,148.445344 C317.890688,155.878543 311.878543,162 304.445344,162 Z" id="Shape" fill="#FFFFFF" fill-rule="nonzero"></path>
                        <path d="M445.444717,280 C433.061425,280 423,269.938575 423,257.555283 C423,257.002457 423.44226,256.560197 423.995086,256.560197 C424.547912,256.560197 424.990172,257.002457 424.990172,257.555283 C424.990172,268.832924 434.167076,278.120393 445.555283,278.120393 C456.943489,278.120393 466.120393,268.943489 466.120393,257.555283 C466.120393,246.167076 456.943489,236.990172 445.555283,236.990172 C445.002457,236.990172 444.560197,236.547912 444.560197,235.995086 C444.560197,235.44226 445.002457,235 445.555283,235 C457.938575,235 468,245.061425 468,257.444717 C467.889435,269.938575 457.82801,280 445.444717,280 Z" id="Shape" fill="#FFFFFF" fill-rule="nonzero"></path>
                        <path d="M119.842105,117.910845 C119.526316,117.910845 119.210526,117.800966 119,117.581206 C117.736842,116.592291 117,115.053977 117,113.405784 C117,108.790844 121.315789,105.274699 121.421053,105.164819 C121.736842,104.94506 122.157895,104.94506 122.473684,105.164819 C122.684211,105.274699 127,108.351326 127,113.515664 C127,115.163857 126.263158,116.70217 125,117.691086 C124.578947,118.020725 123.947368,118.130604 123.526316,117.800966 C123,117.581206 122.789474,117.031809 122.789474,116.482411 L122.789474,115.383616 C122.789474,115.163857 122.684211,114.944098 122.578947,114.834218 C122.473684,114.724339 122.263158,114.614459 122.052632,114.614459 C121.736842,114.614459 121.421053,115.053977 121.421053,115.383616 L121.421053,116.372532 C121.421053,116.921929 121.105263,117.471327 120.684211,117.691086 C120.263158,117.800966 120.052632,117.910845 119.842105,117.910845 Z M121.947368,112.856387 C122.578947,112.856387 123.105263,113.076146 123.526316,113.515664 C124.052632,113.955182 124.263158,114.614459 124.263158,115.383616 L124.263158,115.713254 C124.789474,115.053977 125.105263,114.28482 125.105263,113.405784 C125.105263,110.219278 122.894737,107.911808 121.842105,107.032771 C120.789474,108.021687 118.578947,110.548916 118.578947,113.405784 C118.578947,114.28482 118.894737,115.053977 119.421053,115.713254 L119.421053,115.493495 C119.421053,114.174941 120.368421,113.076146 121.631579,112.966266 C121.842105,112.856387 121.842105,112.856387 121.947368,112.856387 Z" id="Shape" fill="#FFFFFF" fill-rule="nonzero"></path>
                        <polygon id="Shape" fill="#EFF1F4" fill-rule="nonzero" points="0 324 619 324 619 317 0 317"></polygon>
                        <path d="M280.745399,91 L250.254601,91 C248.966258,91 248,89.8333333 248,88.55 L248,79.45 C248,78.05 249.07362,77 250.254601,77 L280.745399,77 C282.033742,77 283,78.1666667 283,79.45 L283,88.55 C283,89.8333333 281.92638,91 280.745399,91" id="Shape" fill="#F4364C" fill-rule="nonzero"></path>
                        <path d="M280.745399,80 L250.254601,80 C248.966258,80 248,81.0227273 248,82.1477273 L248,86.8522727 C248,88.0795455 249.07362,89 250.254601,89 L280.745399,89 C282.033742,89 283,87.9772727 283,86.8522727 L283,82.1477273 C283,81.0227273 281.92638,80 280.745399,80" id="Shape" fill="#CCCCCC" fill-rule="nonzero"></path>
                        <path d="M258.179487,88 C257.525641,88 256.980769,87.7727273 256.544872,87.3181818 C256.108974,86.8636364 256,86.2954545 256,85.5 C256,84.7045455 256.217949,84.1363636 256.544872,83.6818182 C256.871795,83.2272727 257.416667,83 258.179487,83 C258.615385,83 259.051282,83.1136364 259.596154,83.2272727 L259.596154,83.7954545 C258.942308,83.5681818 258.50641,83.4545455 258.179487,83.4545455 C257.74359,83.4545455 257.307692,83.5681818 257.089744,83.9090909 C256.871795,84.25 256.653846,84.7045455 256.653846,85.3863636 C256.653846,85.9545455 256.762821,86.4090909 257.089744,86.75 C257.416667,87.0909091 257.74359,87.2045455 258.179487,87.2045455 C258.615385,87.2045455 259.051282,87.0909091 259.487179,86.75 L259.487179,87.3181818 C259.160256,87.8863636 258.724359,88 258.179487,88 Z M260.467949,87.8863636 L260.467949,83.3409091 L261.121795,83.3409091 L261.121795,87.4318182 L263.083333,87.4318182 L263.083333,87.8863636 L260.467949,87.8863636 Z M263.737179,87.8863636 L263.737179,83.3409091 L264.391026,83.3409091 L264.391026,87.8863636 L263.737179,87.8863636 Z M267.333333,88 C266.679487,88 266.134615,87.7727273 265.698718,87.3181818 C265.371795,86.8636364 265.153846,86.2954545 265.153846,85.5 C265.153846,84.7045455 265.371795,84.1363636 265.698718,83.6818182 C266.025641,83.2272727 266.570513,83 267.333333,83 C267.769231,83 268.205128,83.1136364 268.75,83.2272727 L268.75,83.7954545 C268.096154,83.5681818 267.660256,83.4545455 267.333333,83.4545455 C266.897436,83.4545455 266.461538,83.5681818 266.24359,83.9090909 C266.025641,84.25 265.807692,84.7045455 265.807692,85.3863636 C265.807692,85.9545455 265.916667,86.4090909 266.24359,86.75 C266.570513,87.0909091 266.897436,87.2045455 267.333333,87.2045455 C267.769231,87.2045455 268.205128,87.0909091 268.641026,86.75 L268.641026,87.3181818 C268.423077,87.8863636 267.878205,88 267.333333,88 Z M269.730769,87.8863636 L269.730769,83.3409091 L270.275641,83.3409091 L270.275641,85.6136364 L272.019231,83.3409091 L272.673077,83.3409091 L270.929487,85.5 L273,87.8863636 L272.237179,87.8863636 L270.275641,85.6136364 L270.275641,87.8863636 L269.730769,87.8863636 Z" id="Shape" fill="#FFFFFF" fill-rule="nonzero"></path>
                        <path d="M324.738464,91 L294.254124,91 C292.966053,91 292,89.8333333 292,88.55 L292,79.45 C292,78.05 293.073392,77 294.254124,77 L324.738464,77 C326.026535,77 326.992588,78.1666667 326.992588,79.45 L326.992588,88.55 C327.099927,89.8333333 326.026535,91 324.738464,91" id="Shape" fill="#5A5F6B" fill-rule="nonzero"></path>
                        <path d="M303,83.9047619 L303,80.0952381 L303.900662,80.0952381 L305.139073,83.047619 L306.377483,80.0952381 L307.165563,80.0952381 L307.165563,83.9047619 L306.602649,83.9047619 L306.602649,80.7619048 L305.364238,83.6190476 L304.688742,83.6190476 L303.450331,80.7619048 L303.450331,83.9047619 L303,83.9047619 Z M310.205298,84 C309.529801,84 309.07947,83.8095238 308.741722,83.4285714 C308.403974,83.047619 308.178808,82.5714286 308.178808,82 C308.178808,81.4285714 308.403974,80.8571429 308.741722,80.5714286 C309.07947,80.2857143 309.642384,80 310.317881,80 C310.993377,80 311.443709,80.1904762 311.89404,80.5714286 C312.231788,80.952381 312.456954,81.4285714 312.456954,82 C312.456954,82.6666667 312.231788,83.1428571 311.89404,83.5238095 C311.556291,83.9047619 310.880795,84 310.205298,84 Z M310.205298,83.6190476 C310.655629,83.6190476 310.993377,83.5238095 311.331126,83.2380952 C311.668874,82.952381 311.668874,82.5714286 311.668874,82 C311.668874,81.5238095 311.556291,81.1428571 311.331126,80.8571429 C311.10596,80.5714286 310.768212,80.4761905 310.317881,80.4761905 C309.86755,80.4761905 309.529801,80.5714286 309.304636,80.8571429 C309.07947,81.1428571 308.966887,81.5238095 308.966887,82 C308.966887,82.4761905 309.07947,82.8571429 309.304636,83.1428571 C309.417219,83.4285714 309.754967,83.6190476 310.205298,83.6190476 Z M314.483444,83.9047619 L312.794702,80.0952381 L313.470199,80.0952381 L314.821192,83.2380952 L316.172185,80.0952381 L316.735099,80.0952381 L315.046358,83.9047619 L314.483444,83.9047619 Z M317.298013,83.9047619 L317.298013,80.0952381 L319.887417,80.0952381 L319.887417,80.4761905 L317.97351,80.4761905 L317.97351,81.7142857 L319.549669,81.7142857 L319.549669,82.0952381 L317.97351,82.0952381 L317.97351,83.5238095 L320,83.5238095 L320,83.9047619 L317.298013,83.9047619 Z" id="Shape" fill="#E5E5E5" fill-rule="nonzero"></path>
                        <path d="M368.745399,91 L338.254601,91 C336.966258,91 336,89.8333333 336,88.55 L336,79.45 C336,78.05 337.07362,77 338.254601,77 L368.745399,77 C370.033742,77 371,78.1666667 371,79.45 L371,88.55 C371,89.8333333 370.033742,91 368.745399,91" id="Shape" fill="#5A5F6B" fill-rule="nonzero"></path>
                    </g>
                </g>
            </g>
        </g>
    </g>
</svg>