<svg width="381" height="280" viewBox="0 0 381 280" fill="none" xmlns="http://www.w3.org/2000/svg">
<circle cx="119" cy="107" r="6" fill="#1400FF"/>
<circle cx="110" cy="96" r="6" fill="#1400FF"/>
<circle cx="80" cy="107" r="6" fill="#1400FF"/>
<circle cx="68" cy="86" r="6" fill="#1400FF"/>
<circle cx="86" cy="86" r="6" fill="#1400FF"/>
<circle cx="98" cy="90" r="6" fill="#1400FF"/>
<circle cx="89" cy="72" r="6" fill="#1400FF"/>
<circle cx="104" cy="74" r="6" fill="#1400FF"/>
<circle cx="107" cy="119" r="6" fill="#1400FF"/>
<circle cx="98" cy="102" r="6" fill="#1400FF"/>
<circle cx="104" cy="61" r="6" fill="#1400FF"/>
<circle cx="116" cy="65" r="6" fill="#1400FF"/>
<circle cx="86" cy="58" r="6" fill="#1400FF"/>
<circle cx="122" cy="49" r="6" fill="#1400FF"/>
<circle cx="113" cy="84" r="6" fill="#FF0000"/>
<circle cx="125" cy="90" r="6" fill="#1400FF"/>
<circle cx="86" cy="34" r="6" fill="#1400FF"/>
<circle cx="71" cy="116" r="6" fill="#1400FF"/>
<circle cx="80" cy="126" r="6" fill="#1400FF"/>
<circle cx="44" cy="119" r="6" fill="#1400FF"/>
<circle cx="137" cy="90" r="6" fill="#1400FF"/>
<circle cx="143" cy="107" r="6" fill="#1400FF"/>
<circle cx="159" cy="131" r="6" fill="#1400FF"/>
<circle cx="116" cy="142" r="6" fill="#1400FF"/>
<circle cx="131" cy="113" r="6" fill="#1400FF"/>
<circle cx="139" cy="64" r="6" fill="#1400FF"/>
<circle cx="159" cy="55" r="6" fill="#1400FF"/>
<circle cx="147" cy="83" r="6" fill="#1400FF"/>
<circle cx="265.817" cy="188.408" r="6" transform="rotate(27.1304 265.817 188.408)" fill="#07FF11"/>
<circle cx="256.653" cy="210.679" r="6" transform="rotate(27.1304 256.653 210.679)" fill="#07FF11"/>
<circle cx="251.446" cy="194.527" r="6" transform="rotate(27.1304 251.446 194.527)" fill="#07FF11"/>
<circle cx="229.432" cy="204.595" r="6" transform="rotate(27.1304 229.432 204.595)" fill="#07FF11"/>
<circle cx="246.738" cy="173.013" r="6" transform="rotate(27.1304 246.738 173.013)" fill="#07FF11"/>
<circle cx="282.167" cy="163.076" r="6" transform="rotate(27.1304 282.167 163.076)" fill="#07FF11"/>
<circle cx="306.153" cy="179.859" r="6" transform="rotate(27.1304 306.153 179.859)" fill="#07FF11"/>
<circle cx="299.571" cy="212.443" r="6" transform="rotate(27.1304 299.571 212.443)" fill="#07FF11"/>
<circle cx="318.2" cy="182.664" r="6" transform="rotate(27.1304 318.2 182.664)" fill="#07FF11"/>
<circle cx="296.849" cy="261.613" r="6" transform="rotate(27.1304 296.849 261.613)" fill="#07FF11"/>
<circle cx="267.178" cy="231.804" r="6" transform="rotate(27.1304 267.178 231.804)" fill="#07FF11"/>
<circle cx="241.125" cy="243.174" r="6" transform="rotate(27.1304 241.125 243.174)" fill="#07FF11"/>
<circle cx="258.322" cy="222.771" r="6" transform="rotate(27.1304 258.322 222.771)" fill="#07FF11"/>
<circle cx="278.601" cy="207.318" r="6" transform="rotate(27.1304 278.601 207.318)" fill="#FF0000"/>
<circle cx="309.772" cy="221.043" r="6" transform="rotate(27.1304 309.772 221.043)" fill="#07FF11"/>
<circle cx="207.491" cy="166.52" r="6" transform="rotate(-4.9025 207.491 166.52)" fill="#FAFF07"/>
<circle cx="127" cy="233" r="6" fill="#07FF11"/>
<circle cx="198.076" cy="254.824" r="6" transform="rotate(27.1304 198.076 254.824)" fill="#07FF11"/>
<circle cx="357.881" cy="195.131" r="6" transform="rotate(27.1304 357.881 195.131)" fill="#07FF11"/>
<circle cx="353.586" cy="177.199" r="6" transform="rotate(27.1304 353.586 177.199)" fill="#07FF11"/>
<circle cx="190" cy="28" r="6" fill="#1400FF"/>
<circle cx="245.517" cy="206.097" r="6" transform="rotate(27.1304 245.517 206.097)" fill="#07FF11"/>
<circle cx="239.133" cy="218.556" r="6" transform="rotate(27.1304 239.133 218.556)" fill="#07FF11"/>
<circle cx="247.576" cy="224.006" r="6" transform="rotate(27.1304 247.576 224.006)" fill="#07FF11"/>
<circle cx="133" cy="196" r="6" fill="#1400FF"/>
<circle cx="309.772" cy="221.043" r="6" transform="rotate(27.1304 309.772 221.043)" fill="#07FF11"/>
<circle cx="94" cy="115" r="6" fill="#1400FF"/>
<circle cx="153" cy="73" r="6" fill="#1400FF"/>
<circle cx="92" cy="127" r="6" fill="#1400FF"/>
<circle cx="126" cy="137" r="6" fill="#1400FF"/>
<circle cx="131" cy="150" r="6" fill="#1400FF"/>
<circle cx="86" cy="141" r="6" fill="#1400FF"/>
<circle cx="98" cy="138" r="6" fill="#1400FF"/>
<circle cx="145" cy="150" r="6" fill="#1400FF"/>
<circle cx="139" cy="162" r="6" fill="#1400FF"/>
<circle cx="119" cy="154" r="6" fill="#1400FF"/>
<circle cx="156" cy="110" r="6" fill="#1400FF"/>
<circle cx="183" cy="74" r="6" fill="#1400FF"/>
<circle cx="178" cy="128" r="6" fill="#1400FF"/>
<circle cx="155" cy="98" r="6" fill="#1400FF"/>
<circle cx="159" cy="86" r="6" fill="#1400FF"/>
<circle cx="141" cy="122" r="6" fill="#1400FF"/>
<circle cx="127" cy="184" r="6" fill="#1400FF"/>
<circle cx="44" cy="189" r="6" fill="#1400FF"/>
<circle cx="25" cy="37" r="6" fill="#1400FF"/>
<circle cx="309.772" cy="221.043" r="6" transform="rotate(27.1304 309.772 221.043)" fill="#07FF11"/>
<circle cx="101" cy="43" r="6" fill="#1400FF"/>
<circle cx="74" cy="71" r="6" fill="#1400FF"/>
<circle cx="77" cy="96" r="6" fill="#1400FF"/>
<circle cx="302.828" cy="199.506" r="6" transform="rotate(27.1304 302.828 199.506)" fill="#07FF11"/>
<circle cx="287.323" cy="229.765" r="6" transform="rotate(27.1304 287.323 229.765)" fill="#07FF11"/>
<circle cx="290.714" cy="203.412" r="6" transform="rotate(27.1304 290.714 203.412)" fill="#07FF11"/>
<circle cx="278.277" cy="194.793" r="6" transform="rotate(27.1304 278.277 194.793)" fill="#07FF11"/>
<circle cx="263.905" cy="200.912" r="6" transform="rotate(27.1304 263.905 200.912)" fill="#07FF11"/>
<circle cx="289.956" cy="189.541" r="6" transform="rotate(27.1304 289.956 189.541)" fill="#07FF11"/>
<circle cx="278.843" cy="182.72" r="6" transform="rotate(27.1304 278.843 182.72)" fill="#07FF11"/>
<circle cx="276.645" cy="224.293" r="6" transform="rotate(27.1304 276.645 224.293)" fill="#07FF11"/>
<circle cx="287" cy="217.24" r="6" transform="rotate(27.1304 287 217.24)" fill="#07FF11"/>
<circle cx="268.244" cy="214.371" r="6" transform="rotate(27.1304 268.244 214.371)" fill="#07FF11"/>
<circle cx="320.98" cy="62.5723" r="6" transform="rotate(99.3026 320.98 62.5723)" fill="#FAFF07"/>
<circle cx="296.972" cy="60.666" r="6" transform="rotate(99.3026 296.972 60.666)" fill="#FAFF07"/>
<circle cx="310.755" cy="50.7637" r="6" transform="rotate(99.3026 310.755 50.7637)" fill="#FAFF07"/>
<circle cx="294.429" cy="32.8907" r="6" transform="rotate(99.3026 294.429 32.8907)" fill="#FAFF07"/>
<circle cx="329.796" cy="39.6953" r="6" transform="rotate(99.3026 329.796 39.6953)" fill="#FAFF07"/>
<circle cx="350.101" cy="70.3809" r="6" transform="rotate(99.3026 350.101 70.3809)" fill="#FAFF07"/>
<circle cx="341.466" cy="98.3535" r="6" transform="rotate(99.3026 341.466 98.3535)" fill="#FAFF07"/>
<circle cx="308.432" cy="102.061" r="6" transform="rotate(99.3026 308.432 102.061)" fill="#FAFF07"/>
<circle cx="342.487" cy="110.68" r="6" transform="rotate(99.3026 342.487 110.68)" fill="#FAFF07"/>
<circle cx="249.07" cy="133.033" r="6" transform="rotate(99.3026 249.07 133.033)" fill="#FAFF07"/>
<circle cx="280.086" cy="77.1543" r="6" transform="rotate(99.3026 280.086 77.1543)" fill="#FAFF07"/>
<circle cx="261.284" cy="55.834" r="6" transform="rotate(99.3026 261.284 55.834)" fill="#FAFF07"/>
<circle cx="285.972" cy="65.9551" r="6" transform="rotate(99.3026 285.972 65.9551)" fill="#FAFF07"/>
<circle cx="306.892" cy="80.5313" r="6" transform="rotate(99.3026 306.892 80.5313)" fill="#FF0000"/>
<circle cx="303.37" cy="114.406" r="6" transform="rotate(99.3026 303.37 114.406)" fill="#FAFF07"/>
<circle cx="297.925" cy="48.6621" r="6" transform="rotate(99.3026 297.925 48.6621)" fill="#FAFF07"/>
<circle cx="284.109" cy="46.3985" r="6" transform="rotate(99.3026 284.109 46.3985)" fill="#FAFF07"/>
<circle cx="281.506" cy="56.1075" r="6" transform="rotate(99.3026 281.506 56.1075)" fill="#FAFF07"/>
<circle cx="303.37" cy="114.406" r="6" transform="rotate(99.3026 303.37 114.406)" fill="#FAFF07"/>
<circle cx="303.37" cy="114.406" r="6" transform="rotate(99.3026 303.37 114.406)" fill="#FAFF07"/>
<circle cx="321.746" cy="101.203" r="6" transform="rotate(99.3026 321.746 101.203)" fill="#FAFF07"/>
<circle cx="288.193" cy="95.7071" r="6" transform="rotate(99.3026 288.193 95.7071)" fill="#FAFF07"/>
<circle cx="314.319" cy="90.8672" r="6" transform="rotate(99.3026 314.319 90.8672)" fill="#FAFF07"/>
<circle cx="318.717" cy="76.3867" r="6" transform="rotate(99.3026 318.717 76.3867)" fill="#FAFF07"/>
<circle cx="308.492" cy="64.5801" r="6" transform="rotate(99.3026 308.492 64.5801)" fill="#FAFF07"/>
<circle cx="327.293" cy="85.8985" r="6" transform="rotate(99.3026 327.293 85.8985)" fill="#FAFF07"/>
<circle cx="330.38" cy="73.2305" r="6" transform="rotate(99.3026 330.38 73.2305)" fill="#FAFF07"/>
<circle cx="290.131" cy="83.8653" r="6" transform="rotate(99.3026 290.131 83.8653)" fill="#FAFF07"/>
<circle cx="244.819" cy="118.582" r="6" transform="rotate(99.3026 244.819 118.582)" fill="#FAFF07"/>
<circle cx="264.114" cy="81.211" r="6" transform="rotate(99.3026 264.114 81.211)" fill="#FAFF07"/>
<circle cx="270.001" cy="70.0137" r="6" transform="rotate(99.3026 270.001 70.0137)" fill="#FAFF07"/>
<circle cx="272.221" cy="99.7637" r="6" transform="rotate(99.3026 272.221 99.7637)" fill="#FAFF07"/>
<circle cx="274.161" cy="87.9239" r="6" transform="rotate(99.3026 274.161 87.9239)" fill="#FAFF07"/>
<circle cx="300.018" cy="91.5645" r="6" transform="rotate(99.3026 300.018 91.5645)" fill="#FAFF07"/>
<circle cx="297.006" cy="72.8321" r="6" transform="rotate(99.3026 297.006 72.8321)" fill="#FAFF07"/>
<circle cx="131" cy="101" r="6" fill="#1400FF"/>
<circle cx="125" cy="77" r="6" fill="#1400FF"/>
</svg>
