<!DOCTYPE svg PUBLIC "-//W3C//DTD SVG 1.1//EN" "http://www.w3.org/Graphics/SVG/1.1/DTD/svg11.dtd">
<!-- Uploaded to: SVG Repo, www.svgrepo.com, Transformed by: SVG Repo Mixer Tools -->
<svg height="800px" width="800px" version="1.1" id="Layer_1" xmlns="http://www.w3.org/2000/svg" xmlns:xlink="http://www.w3.org/1999/xlink" viewBox="0 0 512 512" xml:space="preserve" fill="#000000">
<g id="SVGRepo_bgCarrier" stroke-width="0"/>
<g id="SVGRepo_tracerCarrier" stroke-linecap="round" stroke-linejoin="round"/>
<g id="SVGRepo_iconCarrier"> <path style="fill:#EBEBEC;" d="M469.333,0H42.667C19.14,0,0,19.14,0,42.667v307.2c0,23.526,19.14,42.667,42.667,42.667h426.667 c23.526,0,42.667-19.14,42.667-42.667v-307.2C512,19.14,492.86,0,469.333,0z"/> <path style="fill:#D7D8D9;" d="M25.6,349.867v-307.2C25.6,19.14,44.74,0,68.267,0h-25.6C19.14,0,0,19.14,0,42.667v307.2 c0,23.526,19.14,42.667,42.667,42.667h25.6C44.74,392.533,25.6,373.393,25.6,349.867z"/> <path style="fill:#20AAB0;" d="M324.129,476.34l-17.067-93.867c-0.737-4.058-4.272-7.007-8.396-7.007h-85.333 c-4.124,0-7.658,2.949-8.396,7.007l-17.067,93.867c-0.452,2.49,0.223,5.051,1.844,6.994c1.621,1.943,4.021,3.066,6.551,3.066 h119.467c2.53,0,4.93-1.123,6.551-3.066C323.906,481.392,324.581,478.83,324.129,476.34z"/> <path style="fill:#14858A;" d="M307.062,382.474c-0.737-4.058-4.272-7.007-8.396-7.007h-85.333c-4.124,0-7.658,2.949-8.396,7.007 l-4.932,27.126h111.989L307.062,382.474z"/> <path style="fill:#41BBBE;" d="M332.8,469.333H179.2c-14.115,0-25.6,11.485-25.6,25.6v8.533c0,4.713,3.821,8.533,8.533,8.533 h187.733c4.713,0,8.533-3.821,8.533-8.533v-8.533C358.4,480.818,346.915,469.333,332.8,469.333z"/> <g> <path style="fill:#20AAB0;" d="M170.667,503.467v-8.533c0-14.115,11.485-25.6,25.6-25.6H179.2c-14.115,0-25.6,11.485-25.6,25.6 v8.533c0,4.713,3.821,8.533,8.533,8.533H179.2C174.487,512,170.667,508.179,170.667,503.467z"/> <path style="fill:#20AAB0;" d="M512,42.667C512,19.14,492.86,0,469.333,0H42.667C19.14,0,0,19.14,0,42.667V51.2h512V42.667z"/> <path style="fill:#20AAB0;" d="M42.667,392.533h426.667c23.526,0,42.667-19.14,42.667-42.667H0 C0,373.393,19.14,392.533,42.667,392.533z"/> </g> <g> <path style="fill:#14858A;" d="M68.267,0h-25.6C19.14,0,0,19.14,0,42.667V51.2h25.6v-8.533C25.6,19.14,44.74,0,68.267,0z"/> <path style="fill:#14858A;" d="M25.6,349.867H0c0,23.526,19.14,42.667,42.667,42.667h25.6C44.74,392.533,25.6,373.393,25.6,349.867 z"/> </g> <path style="fill:#606268;" d="M384,324.267H128c-4.713,0-8.533-3.821-8.533-8.533c0-4.713,3.821-8.533,8.533-8.533h256 c18.821,0,34.133-15.312,34.133-34.133S402.821,238.933,384,238.933H264.533c-28.231,0-51.2-22.969-51.2-51.2s22.969-51.2,51.2-51.2 h153.6c4.713,0,8.533,3.821,8.533,8.533c0,4.713-3.821,8.533-8.533,8.533h-153.6c-18.821,0-34.133,15.312-34.133,34.133 s15.312,34.133,34.133,34.133H384c28.231,0,51.2,22.969,51.2,51.2S412.232,324.267,384,324.267z"/> <path style="fill:#E5563C;" d="M128,119.467c-42.348,0-76.8,34.452-76.8,76.8c0,39.652,63.059,116.324,70.25,124.936 c1.621,1.941,4.021,3.065,6.55,3.065c2.529,0,4.929-1.123,6.55-3.065c7.19-8.611,70.25-85.283,70.25-124.936 C204.8,153.919,170.348,119.467,128,119.467z"/> <path style="fill:#CF442B;" d="M68.267,204.8c0-42.348,34.452-76.8,76.8-76.8c8.924,0,17.49,1.547,25.465,4.357 c-12.186-8.135-26.812-12.891-42.531-12.891c-42.348,0-76.8,34.452-76.8,76.8c0,39.652,63.059,116.324,70.25,124.936 c1.621,1.941,4.021,3.065,6.55,3.065c1.742,0,3.414-0.543,4.821-1.508C115.417,301.055,68.267,239.089,68.267,204.8z"/> <circle style="fill:#EBEBEC;" cx="128" cy="196.267" r="51.2"/> <circle style="fill:#D7D8D9;" cx="128" cy="196.267" r="34.133"/> <path style="fill:#FDD042;" d="M443.733,93.867h-51.2c-4.713,0-8.533,3.821-8.533,8.533v42.667c0,4.713,3.821,8.533,8.533,8.533 h51.2c4.713,0,8.533-3.821,8.533-8.533V102.4C452.267,97.687,448.446,93.867,443.733,93.867z"/> <path style="fill:#F07B52;" d="M426.667,110.933V97.402l14.567-14.567c3.332-3.333,3.332-8.735,0-12.068 c-3.333-3.331-8.735-3.331-12.068,0l-11.033,11.034l-11.033-11.034c-3.333-3.331-8.735-3.331-12.068,0 c-3.332,3.333-3.332,8.735,0,12.068L409.6,97.402v13.532H384V128h25.6v25.6h17.067V128h25.6v-17.067H426.667z"/> </g>
</svg>